<svg xmlns="http://www.w3.org/2000/svg" width="1440" height="479" fill="none"><style xmlns="" class="adjust-screen-brightness" media="screen"/><mask id="a" maskUnits="userSpaceOnUse" x="-124" y="-374" width="2164" height="853"><path fill="#C4C4C4" d="M-124-374h2164v852.924H-124z"/></mask><g mask="url(#a)" fill="#F9FAFB"><path d="M9.51 8.467a3.344 3.344 0 100-6.688 3.344 3.344 0 000 6.688zm40.577.763a4.087 4.087 0 004.104-4.104 4.087 4.087 0 00-4.104-4.104 4.087 4.087 0 00-4.104 4.104c.153 2.28 1.977 4.105 4.104 4.105zm40.571.454a4.56 4.56 0 100-9.12 4.56 4.56 0 000 9.12zm40.725.764c2.888 0 5.32-2.433 5.32-5.32 0-2.89-2.432-5.321-5.32-5.321-2.888 0-5.32 2.432-5.32 5.32 0 2.888 2.28 5.32 5.32 5.32zm40.614.759a6.08 6.08 0 100-12.16 6.08 6.08 0 000 12.16zm40.573.608c3.648 0 6.688-3.04 6.688-6.688 0-3.649-3.04-6.689-6.688-6.689-3.648 0-6.687 3.04-6.687 6.689 0 3.648 3.039 6.688 6.687 6.688zm40.57.453a7.144 7.144 0 007.144-7.144 7.144 7.144 0 10-14.287 0 7.144 7.144 0 007.143 7.144zm40.607.459c4.104 0 7.6-3.345 7.6-7.449 0-4.104-3.344-7.6-7.6-7.6-4.104 0-7.6 3.344-7.6 7.6s3.496 7.449 7.6 7.449zm40.57.456c4.408 0 8.056-3.496 8.056-8.057 0-4.408-3.648-8.056-8.056-8.056-4.407 0-8.055 3.648-8.055 8.056.152 4.409 3.648 8.057 8.055 8.057zm40.716.151a8.174 8.174 0 008.208-8.209 8.174 8.174 0 00-8.208-8.209 8.174 8.174 0 00-8.208 8.21c-.152 4.56 3.648 8.208 8.208 8.208zm40.595.151a8.36 8.36 0 008.36-8.36 8.36 8.36 0 10-8.36 8.36zm40.593-.151a8.174 8.174 0 008.208-8.209 8.174 8.174 0 00-8.208-8.209 8.174 8.174 0 00-8.208 8.21 8.174 8.174 0 008.208 8.208zm40.593-.151c4.559 0 8.055-3.648 8.055-8.057 0-4.408-3.648-8.056-8.055-8.056-4.408 0-8.056 3.648-8.056 8.056 0 4.56 3.648 8.057 8.056 8.057zm40.559 0c4.408 0 8.056-3.496 8.056-8.057 0-4.408-3.648-8.056-8.056-8.056-4.408 0-8.056 3.648-8.056 8.056.152 4.409 3.648 8.057 8.056 8.057zm40.589-.306c4.256 0 7.752-3.497 7.752-7.753 0-4.257-3.496-7.753-7.752-7.753S570.21.867 570.21 5.124c0 4.256 3.496 7.753 7.752 7.753zm40.593-.15c4.103 0 7.599-3.345 7.599-7.449 0-4.104-3.344-7.6-7.599-7.6-4.256 0-7.6 3.344-7.6 7.6s3.496 7.449 7.6 7.449zm40.706-.303c4.104 0 7.295-3.345 7.295-7.297 0-4.104-3.343-7.297-7.295-7.297-4.104 0-7.296 3.193-7.296 7.297-.152 4.104 3.192 7.297 7.296 7.297zm40.587-.156a7.136 7.136 0 007.144-7.144 7.136 7.136 0 00-7.144-7.145 7.136 7.136 0 00-7.143 7.145 7.136 7.136 0 007.143 7.144zm40.589-.302c3.8 0 6.84-3.04 6.84-6.84s-3.04-6.841-6.84-6.841-6.84 3.04-6.84 6.84a6.812 6.812 0 006.84 6.841zm40.597.001c3.648 0 6.688-3.04 6.688-6.688 0-3.8-3.04-6.84-6.688-6.84-3.8 0-6.84 3.04-6.84 6.84.152 3.648 3.04 6.688 6.84 6.688zm40.585-.458c3.496 0 6.384-2.888 6.384-6.385 0-3.496-2.888-6.384-6.384-6.384-3.496 0-6.384 2.888-6.384 6.384 0 3.497 2.888 6.385 6.384 6.385zm40.556-.151c3.344 0 6.232-2.736 6.232-6.233 0-3.496-2.736-6.232-6.232-6.232s-6.232 2.736-6.232 6.232c.152 3.497 2.888 6.233 6.232 6.233zm40.743-.306c3.344 0 5.928-2.737 5.928-5.93 0-3.343-2.736-5.928-5.928-5.928-3.343 0-5.927 2.585-5.927 5.929-.152 3.344 2.584 5.929 5.927 5.929zm40.587-.152a5.776 5.776 0 100-11.552 5.776 5.776 0 000 11.552zm40.589-.301a5.45 5.45 0 005.472-5.473 5.45 5.45 0 00-5.472-5.472 5.45 5.45 0 00-5.472 5.472 5.45 5.45 0 005.472 5.473zm40.586-.458c2.74 0 5.02-2.28 5.02-5.016 0-2.737-2.28-5.017-5.02-5.017-2.74 0-5.02 2.28-5.02 5.017 0 2.888 2.28 5.016 5.02 5.016zm40.59-.151c2.74 0 4.87-2.128 4.87-4.864 0-2.736-2.13-4.865-4.87-4.865-2.73 0-4.86 2.129-4.86 4.865s2.28 4.864 4.86 4.864zm40.56-.15a4.712 4.712 0 000-9.426 4.712 4.712 0 000 9.425zm40.74-.156a4.56 4.56 0 004.56-4.56 4.56 4.56 0 00-4.56-4.561 4.56 4.56 0 00-4.56 4.56 4.56 4.56 0 004.56 4.56zm40.6 0c2.59 0 4.56-2.128 4.56-4.56 0-2.585-2.13-4.561-4.56-4.561-2.58 0-4.56 2.128-4.56 4.56-.15 2.585 1.98 4.56 4.56 4.56zm40.56 0c2.43 0 4.56-1.976 4.56-4.56 0-2.433-1.98-4.561-4.56-4.561-2.44 0-4.56 1.976-4.56 4.56 0 2.433 1.97 4.56 4.56 4.56zm40.59-.151c2.43 0 4.41-1.976 4.41-4.409a4.414 4.414 0 00-4.41-4.408 4.414 4.414 0 00-4.41 4.408 4.414 4.414 0 004.41 4.409zm40.59-.151c2.28 0 4.26-1.976 4.26-4.257 0-2.432-1.98-4.256-4.26-4.256-2.43 0-4.26 1.976-4.26 4.256 0 2.433 1.83 4.257 4.26 4.257zm40.59-.152c2.28 0 4.11-1.823 4.11-4.104 0-2.28-1.83-4.104-4.11-4.104-2.28 0-4.1 1.824-4.1 4.104.15 2.28 1.82 4.105 4.1 4.105zm40.56-.306c2.09 0 3.8-1.701 3.8-3.8a3.8 3.8 0 10-7.6 0 3.8 3.8 0 003.8 3.8zm40.74-.151c1.97 0 3.64-1.672 3.64-3.648 0-1.976-1.67-3.648-3.64-3.648-1.98 0-3.65 1.672-3.65 3.648 0 1.976 1.52 3.648 3.65 3.648zM9.507 48.904c1.672 0 3.192-1.368 3.192-3.193 0-1.672-1.368-3.192-3.192-3.192-1.672 0-3.192 1.52-3.192 3.192 0 1.825 1.52 3.193 3.192 3.193zm40.57.609c2.128 0 3.8-1.672 3.8-3.8s-1.672-3.649-3.8-3.649c-1.976 0-3.648 1.673-3.648 3.649s1.672 3.8 3.648 3.8zm40.573.457c2.433 0 4.257-1.977 4.257-4.257 0-2.432-1.976-4.256-4.256-4.256-2.432 0-4.256 1.976-4.256 4.256 0 2.432 1.976 4.256 4.256 4.256zm40.763.759c2.736 0 5.016-2.28 5.016-5.017 0-2.736-2.28-5.016-5.016-5.016s-5.016 2.28-5.016 5.016c0 2.737 2.28 5.017 5.016 5.017zm40.573.608c3.04 0 5.624-2.584 5.624-5.624 0-3.04-2.584-5.625-5.624-5.625-3.191 0-5.623 2.584-5.623 5.625 0 3.192 2.432 5.624 5.623 5.624zm40.574.609c3.496 0 6.231-2.737 6.231-6.233 0-3.496-2.887-6.233-6.231-6.233s-6.232 2.737-6.232 6.233c0 3.496 2.736 6.233 6.232 6.233zm40.57.457c3.648 0 6.688-3.04 6.688-6.688 0-3.649-3.04-6.69-6.688-6.69-3.648 0-6.688 2.89-6.688 6.69 0 3.648 3.04 6.688 6.688 6.688zm40.607.453a7.136 7.136 0 007.144-7.145 7.136 7.136 0 00-7.144-7.144 7.136 7.136 0 00-7.144 7.144c.152 3.953 3.192 7.145 7.144 7.145zm40.566.307c4.104 0 7.448-3.345 7.448-7.45 0-4.104-3.344-7.448-7.448-7.448-4.104 0-7.448 3.344-7.448 7.449.152 4.104 3.344 7.449 7.448 7.449zm40.748.304c4.256 0 7.6-3.497 7.6-7.601 0-4.105-3.496-7.601-7.6-7.601-4.256 0-7.6 3.344-7.6 7.6 0 4.257 3.344 7.602 7.6 7.602zm40.563-.003c4.256 0 7.752-3.496 7.752-7.752 0-4.257-3.496-7.753-7.752-7.753s-7.751 3.496-7.751 7.753c0 4.256 3.343 7.752 7.751 7.752zm40.593.003c4.255 0 7.599-3.497 7.599-7.601 0-4.105-3.496-7.601-7.599-7.601-4.256 0-7.6 3.344-7.6 7.6 0 4.257 3.344 7.602 7.6 7.602zm40.593-.304c4.104 0 7.448-3.345 7.448-7.45 0-4.104-3.344-7.448-7.448-7.448-4.104 0-7.448 3.344-7.448 7.449 0 4.104 3.344 7.449 7.448 7.449zm40.592-.152c4.104 0 7.296-3.192 7.296-7.296 0-3.953-3.192-7.297-7.296-7.297s-7.296 3.344-7.296 7.297c0 4.104 3.344 7.296 7.296 7.296zm40.556-.003c3.952 0 7.144-3.192 7.144-7.297a7.136 7.136 0 00-7.144-7.144 7.136 7.136 0 00-7.144 7.144c0 3.953 3.192 7.297 7.144 7.297zm40.596-.152a7.136 7.136 0 007.144-7.145 7.136 7.136 0 00-7.144-7.144 7.136 7.136 0 00-7.144 7.144c.152 3.953 3.344 7.145 7.144 7.145zm40.743-.302c3.8 0 6.84-3.04 6.84-6.84 0-3.801-3.04-6.841-6.84-6.841s-6.84 3.04-6.84 6.84c-.152 3.8 3.04 6.841 6.84 6.841zm40.587-.151c3.648 0 6.688-3.04 6.688-6.688 0-3.649-3.04-6.69-6.688-6.69-3.648 0-6.687 2.89-6.687 6.69 0 3.648 3.039 6.688 6.687 6.688zm40.553-.306c3.496 0 6.384-2.889 6.384-6.385s-2.888-6.385-6.384-6.385c-3.496 0-6.384 2.889-6.384 6.385 0 3.648 2.888 6.385 6.384 6.385zm40.596.001c3.496 0 6.232-2.889 6.232-6.385s-2.888-6.233-6.232-6.233c-3.496 0-6.384 2.889-6.384 6.233.152 3.496 2.888 6.385 6.384 6.385zm40.589-.303c3.344 0 6.08-2.737 6.08-6.08 0-3.345-2.736-6.082-6.08-6.082s-6.08 2.737-6.08 6.081c0 3.344 2.736 6.08 6.08 6.08zm40.589-.155c3.192 0 5.776-2.584 5.776-5.928a5.774 5.774 0 00-5.776-5.777 5.773 5.773 0 00-5.775 5.777c0 3.344 2.583 5.928 5.775 5.928zm40.711-.303c3.04 0 5.624-2.584 5.624-5.624 0-3.04-2.584-5.625-5.624-5.625-3.192 0-5.624 2.584-5.624 5.625-.152 3.192 2.432 5.624 5.624 5.624zm40.583-.302c2.888 0 5.32-2.432 5.32-5.32 0-2.888-2.432-5.32-5.32-5.32-2.888 0-5.32 2.28-5.32 5.32 0 3.04 2.28 5.32 5.32 5.32zm40.595-.153c2.736 0 5.016-2.28 5.016-5.017 0-2.736-2.28-5.016-5.016-5.016s-5.015 2.28-5.015 5.017c-.152 2.736 2.279 5.016 5.015 5.016zm40.59-.304c2.73 0 4.86-2.128 4.86-4.864 0-2.585-2.13-4.865-4.86-4.865-2.74 0-4.87 2.128-4.87 4.865 0 2.736 2.13 4.864 4.87 4.864zm40.59-.153c2.58 0 4.56-2.129 4.56-4.56 0-2.585-2.13-4.561-4.56-4.561-2.59 0-4.56 2.128-4.56 4.56 0 2.432 1.97 4.56 4.56 4.56zm40.55-.154c2.44 0 4.56-1.976 4.56-4.56 0-2.432-1.97-4.56-4.56-4.56-2.43 0-4.55 1.976-4.55 4.56.15 2.584 2.12 4.56 4.55 4.56zm40.75-.151c2.43 0 4.4-1.976 4.4-4.408a4.406 4.406 0 10-8.81 0c0 2.432 1.82 4.408 4.41 4.408zm40.6-.15c2.43 0 4.25-1.977 4.25-4.257a4.244 4.244 0 00-4.25-4.256c-2.44 0-4.26 1.976-4.26 4.256-.15 2.432 1.82 4.256 4.26 4.256zm40.58 0c2.28 0 4.26-1.977 4.26-4.257 0-2.432-1.98-4.256-4.26-4.256-2.43 0-4.25 1.976-4.25 4.256 0 2.432 1.82 4.256 4.25 4.256zm40.57 0c2.28 0 4.25-1.824 4.25-4.256 0-2.28-1.82-4.104-4.25-4.104-2.28 0-4.1 1.824-4.1 4.104-.16 2.28 1.82 4.257 4.1 4.257zm40.58-.307c2.13 0 3.95-1.824 3.95-3.952s-1.82-3.953-3.95-3.953c-2.12 0-3.95 1.672-3.95 3.953 0 2.28 1.83 3.952 3.95 3.952zm40.6-.151c2.12 0 3.8-1.672 3.8-3.8 0-2.129-1.68-3.8-3.8-3.8-2.13 0-3.8 1.672-3.8 3.8s1.67 3.8 3.8 3.8zm40.55-.151c1.98 0 3.65-1.672 3.65-3.648 0-1.976-1.67-3.649-3.65-3.649-1.97 0-3.65 1.673-3.65 3.649.16 1.976 1.68 3.648 3.65 3.648zm40.75-.301c1.82 0 3.34-1.52 3.34-3.345 0-1.824-1.52-3.344-3.34-3.344-1.82 0-3.34 1.52-3.34 3.344-.16 1.824 1.36 3.344 3.34 3.344zM9.496 89.19c1.52 0 2.888-1.215 2.888-2.888 0-1.52-1.216-2.736-2.888-2.736a2.725 2.725 0 00-2.736 2.736c0 1.672 1.216 2.889 2.736 2.889zm40.578.608c1.976 0 3.496-1.52 3.496-3.496 0-1.977-1.52-3.497-3.496-3.497s-3.496 1.52-3.496 3.497c0 1.976 1.672 3.496 3.496 3.496zm40.573.609a4.087 4.087 0 004.104-4.104c0-2.28-1.824-3.952-4.104-3.952-2.28 0-4.104 1.824-4.104 3.952.152 2.28 1.976 4.104 4.104 4.104zm40.755.453c2.432 0 4.56-1.977 4.56-4.561 0-2.433-1.976-4.56-4.56-4.56-2.432 0-4.559 1.975-4.559 4.56 0 2.584 1.975 4.56 4.559 4.56zm40.577.61c2.736 0 5.016-2.28 5.016-5.017 0-2.736-2.28-5.016-5.016-5.016s-5.016 2.28-5.016 5.016c-.152 2.736 2.128 5.017 5.016 5.017zm40.57.606a5.774 5.774 0 005.776-5.777 5.774 5.774 0 00-5.776-5.776 5.774 5.774 0 00-5.775 5.776 5.774 5.774 0 005.775 5.777zm40.607.457c3.496 0 6.232-2.736 6.232-6.232 0-3.497-2.736-6.233-6.232-6.233s-6.232 2.736-6.232 6.233c0 3.496 2.888 6.232 6.232 6.232zm40.567.302a6.488 6.488 0 006.536-6.536 6.488 6.488 0 00-6.536-6.537 6.488 6.488 0 00-6.536 6.537 6.488 6.488 0 006.536 6.536zm40.603.46c3.8 0 6.84-3.04 6.84-6.84 0-3.801-3.04-6.841-6.84-6.841s-6.84 3.04-6.84 6.84c0 3.649 3.04 6.84 6.84 6.84zm40.715.15a7.136 7.136 0 007.143-7.145c0-3.952-3.192-6.993-7.143-6.993-3.952 0-7.144 3.193-7.144 6.993a7.136 7.136 0 007.144 7.145zm40.596 0a7.136 7.136 0 007.144-7.145c0-3.952-3.192-6.993-7.144-6.993s-7.144 3.193-7.144 6.993a7.136 7.136 0 007.144 7.145zm40.559 0a7.136 7.136 0 007.144-7.145c0-3.952-3.192-6.993-7.144-6.993s-7.144 3.193-7.144 6.993a7.136 7.136 0 007.144 7.145zm40.59-.15a6.812 6.812 0 006.839-6.84 6.812 6.812 0 00-6.839-6.841c-3.8 0-6.84 3.04-6.84 6.84 0 3.649 3.04 6.84 6.84 6.84zm40.595-.155c3.648 0 6.688-3.041 6.688-6.69 0-3.648-3.04-6.688-6.688-6.688-3.8 0-6.84 3.04-6.84 6.689.152 3.648 3.192 6.688 6.84 6.688zm40.594-.15c3.647 0 6.687-3.04 6.687-6.688 0-3.648-2.888-6.689-6.687-6.689-3.648 0-6.688 3.04-6.688 6.69.152 3.8 3.04 6.688 6.688 6.688zm40.555-.155a6.488 6.488 0 006.536-6.536 6.488 6.488 0 00-6.536-6.537 6.488 6.488 0 00-6.536 6.537c0 3.648 3.04 6.536 6.536 6.536zm40.743-.15c3.496 0 6.384-2.888 6.384-6.384 0-3.497-2.888-6.233-6.384-6.233-3.496 0-6.232 2.736-6.232 6.233-.152 3.496 2.736 6.384 6.232 6.384zm40.587-.303a6.08 6.08 0 100-12.16 6.08 6.08 0 000 12.16zm40.593-.002c3.344 0 5.928-2.736 5.928-5.929 0-3.344-2.736-5.928-5.928-5.928-3.344 0-5.928 2.584-5.928 5.928 0 3.193 2.584 5.929 5.928 5.929zm40.559-.152c3.192 0 5.776-2.584 5.776-5.929a5.774 5.774 0 00-5.776-5.776c-3.191 0-5.927 2.584-5.927 5.776.152 3.345 2.736 5.929 5.927 5.929zm40.586-.301a5.45 5.45 0 005.472-5.472 5.45 5.45 0 00-5.472-5.473 5.45 5.45 0 00-5.472 5.473 5.45 5.45 0 005.472 5.472zm40.596-.153a5.45 5.45 0 005.472-5.472 5.45 5.45 0 00-5.472-5.473 5.449 5.449 0 00-5.471 5.473c.152 3.04 2.583 5.472 5.471 5.472zm40.741-.304c2.735 0 5.016-2.28 5.016-5.017 0-2.736-2.281-5.016-5.016-5.016-2.736 0-5.016 2.28-5.016 5.016-.152 2.736 2.128 5.017 5.016 5.017zm40.589-.153c2.736 0 5.016-2.28 5.016-5.017 0-2.736-2.28-5.016-5.016-5.016-2.735 0-5.015 2.128-5.015 5.016 0 2.736 2.28 5.017 5.015 5.017zm40.553-.302c2.584 0 4.712-2.129 4.712-4.713s-2.128-4.712-4.712-4.712c-2.584 0-4.712 2.128-4.712 4.712 0 2.736 2.128 4.713 4.712 4.713zm40.593-.155c2.43 0 4.56-1.977 4.56-4.561 0-2.433-1.98-4.56-4.56-4.56-2.43 0-4.56 1.975-4.56 4.56 0 2.584 2.13 4.56 4.56 4.56zm40.59-.15c2.28 0 4.25-1.977 4.25-4.257 0-2.432-1.82-4.409-4.25-4.409-2.43 0-4.26 1.977-4.26 4.257 0 2.432 1.98 4.408 4.26 4.408zm40.59-.15c2.28 0 4.1-1.825 4.1-4.105 0-2.28-1.82-4.104-4.1-4.104-2.28 0-4.1 1.824-4.1 4.104 0 2.28 1.82 4.104 4.1 4.104zm40.71-.153c2.28 0 4.1-1.824 4.1-4.104 0-2.28-1.82-3.952-4.1-3.952-2.28 0-4.1 1.824-4.1 3.952 0 2.28 1.82 4.104 4.1 4.104zm40.6 0c2.28 0 4.1-1.824 4.1-4.104 0-2.28-1.82-3.952-4.1-3.952-2.28 0-4.11 1.824-4.11 3.952 0 2.28 1.83 4.104 4.11 4.104zm40.59-.152c2.13 0 3.95-1.824 3.95-3.952s-1.82-3.952-3.95-3.952-3.95 1.824-3.95 3.952c0 2.28 1.67 3.952 3.95 3.952zm40.55-.155c2.13 0 3.8-1.672 3.8-3.8 0-2.129-1.67-3.8-3.8-3.8-2.12 0-3.8 1.671-3.8 3.8 0 2.128 1.68 3.8 3.8 3.8zm40.6 0c2.12 0 3.64-1.671 3.64-3.8 0-2.128-1.67-3.648-3.64-3.648-1.98 0-3.65 1.672-3.65 3.648 0 1.977 1.67 3.8 3.65 3.8zm40.59-.302c1.97 0 3.49-1.52 3.49-3.496 0-1.977-1.52-3.497-3.49-3.497-1.98 0-3.5 1.52-3.5 3.497 0 1.976 1.67 3.496 3.5 3.496zm40.59-.002c1.83 0 3.35-1.52 3.35-3.345 0-1.824-1.52-3.344-3.35-3.344-1.82 0-3.34 1.52-3.34 3.344 0 1.824 1.52 3.345 3.34 3.345zm40.74-.456a3.05 3.05 0 003.04-3.04 3.05 3.05 0 00-3.04-3.04 3.05 3.05 0 00-3.04 3.04c0 1.672 1.22 3.04 3.04 3.04zM9.493 129.475c1.368 0 2.584-1.064 2.584-2.584 0-1.368-1.216-2.584-2.584-2.584s-2.584 1.216-2.584 2.584c0 1.52 1.216 2.584 2.584 2.584zm40.573.604c1.824 0 3.192-1.368 3.192-3.192 0-1.672-1.368-3.192-3.192-3.192-1.671 0-3.191 1.368-3.191 3.192.152 1.824 1.52 3.192 3.191 3.192zm40.607.611c2.128 0 3.648-1.673 3.648-3.649s-1.672-3.648-3.648-3.648c-1.976 0-3.648 1.672-3.648 3.648 0 1.976 1.672 3.649 3.648 3.649zm40.719.457a4.104 4.104 0 10-.002-8.208 4.104 4.104 0 00.002 8.208zm40.577.453c2.584 0 4.56-1.976 4.56-4.561 0-2.584-2.128-4.56-4.56-4.56-2.584 0-4.56 2.128-4.56 4.56-.152 2.433 1.976 4.561 4.56 4.561zm40.603.608a5.125 5.125 0 005.168-5.168 5.126 5.126 0 00-5.168-5.169 5.126 5.126 0 00-5.168 5.169c0 2.736 2.28 5.168 5.168 5.168zm40.574.609a5.776 5.776 0 005.775-5.777 5.775 5.775 0 10-11.551 0 5.777 5.777 0 005.776 5.777zm40.599.151c3.344 0 5.928-2.585 5.928-5.929 0-3.344-2.736-5.928-5.928-5.928-3.344 0-5.928 2.584-5.928 5.928 0 3.192 2.736 5.929 5.928 5.929zm40.57.304c3.496 0 6.384-2.888 6.384-6.385 0-3.496-2.888-6.384-6.384-6.384-3.496 0-6.384 2.888-6.384 6.384.152 3.649 2.888 6.385 6.384 6.385zm40.751.153c3.496 0 6.383-2.888 6.383-6.385 0-3.496-2.887-6.384-6.383-6.384s-6.384 2.888-6.384 6.384c-.152 3.497 2.736 6.385 6.384 6.385zm40.557.151a6.488 6.488 0 006.535-6.537 6.487 6.487 0 00-6.535-6.536 6.488 6.488 0 00-6.536 6.536c0 3.497 2.888 6.537 6.536 6.537zm40.592-.151c3.496 0 6.384-2.888 6.384-6.385 0-3.496-2.888-6.384-6.384-6.384-3.496 0-6.383 2.888-6.383 6.384 0 3.497 2.735 6.385 6.383 6.385zm40.597-.153c3.496 0 6.383-2.888 6.383-6.385 0-3.496-2.887-6.384-6.383-6.384s-6.384 2.888-6.384 6.384c0 3.649 2.888 6.385 6.384 6.385zm40.556-.151c3.495 0 6.231-2.736 6.231-6.233 0-3.496-2.736-6.232-6.231-6.232-3.496 0-6.232 2.736-6.232 6.232 0 3.497 2.888 6.233 6.232 6.233zm40.596 0c3.495 0 6.231-2.736 6.231-6.233 0-3.496-2.736-6.232-6.231-6.232-3.344 0-6.232 2.736-6.232 6.232 0 3.497 2.888 6.233 6.232 6.233zm40.588-.153c3.344 0 5.928-2.585 5.928-5.929 0-3.344-2.584-5.928-5.928-5.928s-5.927 2.584-5.927 5.928c0 3.192 2.735 5.929 5.927 5.929zm40.742-.304a5.774 5.774 0 005.776-5.777 5.773 5.773 0 00-5.776-5.776 5.773 5.773 0 00-5.776 5.776 5.774 5.774 0 005.776 5.777zm40.556.002c3.04 0 5.624-2.584 5.624-5.625 0-3.04-2.584-5.624-5.624-5.624-3.192 0-5.624 2.584-5.624 5.624 0 3.041 2.432 5.625 5.624 5.625zm40.595-.304a5.45 5.45 0 005.472-5.473 5.45 5.45 0 00-5.472-5.472c-3.04 0-5.32 2.432-5.32 5.472-.152 3.041 2.28 5.473 5.32 5.473zm40.586-.154a5.168 5.168 0 100-10.337 5.168 5.168 0 000 10.337zm40.593-.151c2.736 0 5.016-2.28 5.016-5.016s-2.28-5.017-5.016-5.017-5.016 2.281-5.016 5.017 2.28 5.016 5.016 5.016zm40.556-.304c2.736 0 4.864-2.128 4.864-4.864 0-2.736-2.128-4.865-4.864-4.865-2.736 0-4.864 2.129-4.864 4.865s2.28 4.864 4.864 4.864zm40.749.002c2.584 0 4.712-2.128 4.712-4.712 0-2.584-2.128-4.712-4.712-4.712-2.584 0-4.712 2.128-4.712 4.712-.152 2.584 1.976 4.712 4.712 4.712zm40.592-.155c2.584 0 4.56-1.976 4.56-4.561 0-2.584-2.128-4.56-4.56-4.56-2.432 0-4.559 2.128-4.559 4.56-.152 2.433 1.975 4.561 4.559 4.561zm40.585-.151a4.41 4.41 0 004.407-4.408 4.41 4.41 0 00-4.407-4.409 4.411 4.411 0 00-4.408 4.409 4.411 4.411 0 004.408 4.408zm40.554-.151c2.43 0 4.26-1.976 4.26-4.256 0-2.433-1.98-4.257-4.26-4.257-2.43 0-4.25 1.976-4.25 4.257 0 2.28 1.82 4.256 4.25 4.256zm40.59-.304c2.28 0 4.11-1.824 4.11-4.104a4.092 4.092 0 00-4.11-4.105c-2.28 0-4.1 1.824-4.1 4.105 0 2.28 1.82 4.104 4.1 4.104zm40.6-.002c2.13 0 3.95-1.825 3.95-3.953s-1.82-3.952-3.95-3.952-3.95 1.824-3.95 3.952 1.82 3.953 3.95 3.953zm40.74-.151a3.8 3.8 0 100-7.601 3.8 3.8 0 100 7.601zm40.55-.151c2.13 0 3.65-1.673 3.65-3.649s-1.67-3.648-3.65-3.648c-1.97 0-3.64 1.672-3.64 3.648 0 1.976 1.52 3.649 3.64 3.649zm40.6 0c1.98 0 3.65-1.673 3.65-3.649s-1.67-3.648-3.65-3.648c-2.12 0-3.8 1.672-3.8 3.648 0 1.976 1.68 3.649 3.8 3.649zm40.59-.151c1.98 0 3.5-1.521 3.5-3.497s-1.52-3.496-3.5-3.496c-1.97 0-3.49 1.52-3.49 3.496 0 1.824 1.52 3.497 3.49 3.497zm40.56-.156c1.85 0 3.34-1.497 3.34-3.344a3.338 3.338 0 00-3.34-3.344 3.338 3.338 0 00-3.34 3.344 3.338 3.338 0 003.34 3.344zm40.59-.304c1.67 0 3.19-1.368 3.19-3.192 0-1.672-1.36-3.192-3.19-3.192-1.67 0-3.19 1.368-3.19 3.192s1.52 3.192 3.19 3.192zm40.59-.149c1.67 0 2.89-1.216 2.89-2.888s-1.37-2.888-2.89-2.888c-1.67 0-2.89 1.368-2.89 2.888 0 1.52 1.37 2.888 2.89 2.888zm40.75-.152c1.52 0 2.73-1.216 2.73-2.888a2.72 2.72 0 00-2.73-2.736c-1.52 0-2.89 1.216-2.89 2.736 0 1.672 1.21 2.888 2.89 2.888zM9.49 169.907a2.4 2.4 0 002.43-2.432 2.4 2.4 0 00-2.43-2.432 2.4 2.4 0 00-2.433 2.432c0 1.368 1.216 2.432 2.432 2.432zm40.603.459c1.52 0 2.887-1.216 2.887-2.736 0-1.52-1.215-2.889-2.887-2.889-1.52 0-2.736 1.217-2.736 2.889a2.725 2.725 0 002.736 2.736zm40.57.454a3.192 3.192 0 100-6.384 3.192 3.192 0 000 6.384zm40.722.608a3.762 3.762 0 003.799-3.8c0-2.128-1.671-3.8-3.799-3.8a3.763 3.763 0 00-3.8 3.8c0 2.128 1.672 3.8 3.8 3.8zm40.603.307a4.087 4.087 0 004.104-4.105 4.087 4.087 0 00-4.104-4.104 4.087 4.087 0 00-4.104 4.104 4.087 4.087 0 004.104 4.105zm40.57.453c2.583 0 4.559-2.129 4.559-4.561 0-2.584-2.128-4.56-4.559-4.56-2.584 0-4.56 2.128-4.56 4.56 0 2.432 1.976 4.561 4.56 4.561zm40.607.457c2.735 0 5.015-2.28 5.015-5.016 0-2.737-2.28-5.017-5.015-5.017-2.736 0-5.016 2.28-5.016 5.017 0 2.736 2.28 5.016 5.016 5.016zm40.569.304a5.45 5.45 0 005.472-5.472 5.45 5.45 0 00-5.472-5.473 5.45 5.45 0 00-5.472 5.473c.152 3.04 2.584 5.472 5.472 5.472zm40.567.455a5.776 5.776 0 100-11.552 5.776 5.776 0 000 11.552zm40.748.003c3.192 0 5.928-2.584 5.928-5.929 0-3.192-2.584-5.928-5.928-5.928-3.192 0-5.928 2.584-5.928 5.928 0 3.345 2.584 5.929 5.928 5.929zm40.566.148c3.344 0 5.927-2.736 5.927-5.928 0-3.345-2.735-5.929-5.927-5.929-3.192 0-5.928 2.584-5.928 5.929-.152 3.192 2.584 5.928 5.928 5.928zm40.59-.148c3.192 0 5.776-2.584 5.776-5.929 0-3.192-2.584-5.928-5.776-5.928-3.192 0-5.928 2.584-5.928 5.928 0 3.345 2.736 5.929 5.928 5.929zm40.598 0c3.192 0 5.776-2.584 5.776-5.929 0-3.192-2.584-5.928-5.776-5.928-3.192 0-5.775 2.584-5.775 5.928-.152 3.345 2.583 5.929 5.775 5.929zm40.59-.003a5.776 5.776 0 100-11.552 5.776 5.776 0 000 11.552zm40.557-.151c3.192 0 5.623-2.584 5.623-5.624 0-3.04-2.583-5.625-5.623-5.625s-5.624 2.585-5.624 5.625 2.584 5.624 5.624 5.624zm40.592-.304c3.04 0 5.32-2.432 5.32-5.472 0-3.04-2.432-5.473-5.32-5.473a5.45 5.45 0 00-5.471 5.473c.152 3.04 2.583 5.472 5.471 5.472zm40.738-.153a5.125 5.125 0 005.167-5.169 5.125 5.125 0 00-5.167-5.168 5.125 5.125 0 00-5.168 5.168 5.126 5.126 0 005.168 5.169zm40.592-.151c2.736 0 5.016-2.28 5.016-5.016 0-2.737-2.28-5.017-5.016-5.017-2.735 0-5.015 2.28-5.015 5.017 0 2.736 2.128 5.016 5.015 5.016zm40.556-.151c2.736 0 4.864-2.128 4.864-4.864 0-2.737-2.128-4.865-4.864-4.865-2.583 0-4.863 2.128-4.863 4.865 0 2.736 2.128 4.864 4.863 4.864zm40.593-.151a4.712 4.712 0 004.711-4.712 4.712 4.712 0 10-4.711 4.712zm40.592-.155c2.584 0 4.56-2.129 4.56-4.561 0-2.584-2.128-4.56-4.56-4.56-2.584 0-4.56 2.128-4.56 4.56 0 2.432 1.976 4.561 4.56 4.561zm40.56-.149c2.432 0 4.56-1.976 4.56-4.56 0-2.433-1.976-4.561-4.56-4.561-2.432 0-4.56 1.976-4.56 4.561.152 2.584 2.128 4.56 4.56 4.56zm40.741-.002a4.412 4.412 0 004.408-4.409 4.411 4.411 0 00-4.408-4.408 4.411 4.411 0 00-4.408 4.408 4.412 4.412 0 004.408 4.409zm40.589-.302a4.104 4.104 0 100-8.209 4.104 4.104 0 000 8.209zm40.596-.153a4.088 4.088 0 004.104-4.105 4.087 4.087 0 00-4.104-4.104 4.087 4.087 0 00-4.103 4.104c0 2.433 1.824 4.105 4.103 4.105zm40.591-.003c2.13 0 3.95-1.824 3.95-3.952s-1.82-3.953-3.95-3.953-3.95 1.825-3.95 3.953 1.82 3.952 3.95 3.952zm40.56-.303c1.97 0 3.65-1.672 3.65-3.648 0-1.976-1.68-3.8-3.65-3.8-2.13 0-3.8 1.672-3.8 3.8s1.82 3.648 3.8 3.648zm40.59 0c2.13 0 3.8-1.672 3.8-3.648 0-1.976-1.67-3.8-3.8-3.8-1.98 0-3.65 1.672-3.65 3.8s1.67 3.648 3.65 3.648zm40.74-.152c1.98 0 3.65-1.52 3.65-3.648 0-1.976-1.67-3.648-3.65-3.648-1.97 0-3.64 1.672-3.64 3.648 0 2.128 1.52 3.648 3.64 3.648zm40.56.002c1.98 0 3.5-1.52 3.5-3.496s-1.52-3.496-3.5-3.496c-1.97 0-3.49 1.52-3.49 3.496 0 1.824 1.52 3.496 3.49 3.496zm40.59-.155c1.83 0 3.35-1.52 3.35-3.345 0-1.824-1.52-3.344-3.35-3.344-1.82 0-3.34 1.52-3.34 3.344 0 1.825 1.37 3.345 3.34 3.345zm40.6-.304c1.67 0 3.19-1.368 3.19-3.193 0-1.824-1.37-3.192-3.19-3.192-1.68 0-3.2 1.368-3.2 3.192 0 1.825 1.37 3.193 3.2 3.193zm40.59.002a3.04 3.04 0 100-6.082 3.04 3.04 0 000 6.082zm40.55-.303c1.52 0 2.89-1.216 2.89-2.736 0-1.52-1.22-2.889-2.89-2.889-1.52 0-2.73 1.217-2.73 2.889a2.72 2.72 0 002.73 2.736zm40.6-.152a2.72 2.72 0 002.73-2.736 2.72 2.72 0 00-2.73-2.737 2.729 2.729 0 00-2.74 2.737c.15 1.52 1.37 2.736 2.74 2.736zm40.75-.003c1.37 0 2.59-1.216 2.59-2.584s-1.22-2.584-2.59-2.584c-1.52 0-2.58 1.216-2.58 2.584-.15 1.368 1.06 2.584 2.58 2.584zM9.482 210.346a2.127 2.127 0 100-4.255 2.127 2.127 0 000 4.255zm40.603.302a2.432 2.432 0 100-4.864 2.432 2.432 0 000 4.864zm40.571.458c1.671 0 2.887-1.368 2.887-2.889 0-1.672-1.368-2.888-2.888-2.888-1.671 0-2.887 1.368-2.887 2.888 0 1.673 1.368 2.889 2.888 2.889zm40.754.457c1.824 0 3.344-1.52 3.344-3.344 0-1.824-1.52-3.344-3.344-3.344-1.823 0-3.343 1.52-3.343 3.344 0 1.824 1.368 3.344 3.343 3.344zm40.571.453c2.128 0 3.8-1.672 3.8-3.8a3.763 3.763 0 00-3.8-3.801 3.763 3.763 0 00-3.8 3.801c0 2.128 1.672 3.8 3.8 3.8zm40.569.457c2.432 0 4.256-1.976 4.256-4.256 0-2.432-1.976-4.256-4.256-4.256-2.431 0-4.255 1.976-4.255 4.256 0 2.28 1.824 4.256 4.255 4.256zm40.604.302a4.56 4.56 0 10-.001-9.121 4.56 4.56 0 00.001 9.121zm40.563.156c2.584 0 4.712-2.128 4.712-4.713 0-2.584-2.128-4.712-4.712-4.712-2.584 0-4.712 2.128-4.712 4.712 0 2.585 2.128 4.713 4.712 4.713zm40.603.149c2.736 0 5.016-2.281 5.016-5.017s-2.28-5.016-5.016-5.016-5.016 2.28-5.016 5.016c.152 2.888 2.28 5.017 5.016 5.017zm40.712.304a5.126 5.126 0 005.167-5.169 5.125 5.125 0 00-5.167-5.168 5.125 5.125 0 00-5.168 5.168 5.126 5.126 0 005.168 5.169zm40.599.155a5.32 5.32 0 100-10.64 5.32 5.32 0 000 10.64zm40.596 0c2.888 0 5.32-2.432 5.32-5.32 0-2.889-2.432-5.321-5.32-5.321-2.888 0-5.32 2.432-5.32 5.321 0 2.888 2.432 5.32 5.32 5.32zm40.557-.155a5.168 5.168 0 005.167-5.169 5.167 5.167 0 10-10.335 0 5.168 5.168 0 005.168 5.169zm40.592-.151c2.736 0 5.016-2.281 5.016-5.017s-2.28-5.016-5.016-5.016-5.015 2.28-5.015 5.016 2.279 5.017 5.015 5.017zm40.596-.153c2.736 0 5.016-2.281 5.016-5.017s-2.28-5.016-5.016-5.016-5.016 2.28-5.016 5.016c.152 2.888 2.28 5.017 5.016 5.017zm40.556.002c2.736 0 4.864-2.128 4.864-4.865 0-2.736-2.128-4.864-4.864-4.864-2.736 0-4.864 2.128-4.864 4.864 0 2.737 2.28 4.865 4.864 4.865zm40.741-.151a4.712 4.712 0 100-9.424 4.712 4.712 0 000 9.424zm40.593-.156c2.584 0 4.56-2.128 4.56-4.56 0-2.432-2.128-4.561-4.56-4.561-2.584 0-4.56 2.129-4.56 4.561s1.976 4.56 4.56 4.56zm40.592-.151a4.411 4.411 0 004.408-4.408 4.412 4.412 0 00-4.408-4.409 4.411 4.411 0 00-4.407 4.409 4.41 4.41 0 004.407 4.408zm40.556-.151c2.28 0 4.256-1.976 4.256-4.256 0-2.432-1.976-4.256-4.256-4.256-2.431 0-4.255 1.976-4.255 4.256 0 2.28 1.976 4.256 4.255 4.256zm40.593-.151a4.087 4.087 0 004.104-4.104 4.087 4.087 0 00-4.104-4.104 4.087 4.087 0 00-4.104 4.104 4.087 4.087 0 004.104 4.104zm40.596-.153a4.087 4.087 0 004.104-4.104 4.087 4.087 0 00-4.104-4.104 4.087 4.087 0 00-4.104 4.104c0 2.28 1.976 4.104 4.104 4.104zm40.741-.002c2.128 0 3.952-1.824 3.952-3.952 0-2.129-1.824-3.953-3.952-3.953s-3.952 1.824-3.952 3.953c0 2.128 1.672 3.952 3.952 3.952zm40.556-.151a3.8 3.8 0 100-7.6 3.8 3.8 0 000 7.6zm40.593-.152c2.128 0 3.648-1.672 3.648-3.648 0-1.977-1.672-3.801-3.648-3.801-1.976 0-3.648 1.672-3.648 3.801 0 2.128 1.52 3.648 3.648 3.648zm40.601.001c2.01 0 3.64-1.633 3.64-3.648a3.645 3.645 0 10-7.29 0 3.646 3.646 0 003.65 3.648zm40.55-.151c1.98 0 3.5-1.52 3.5-3.496s-1.52-3.497-3.5-3.497c-1.97 0-3.49 1.521-3.49 3.497s1.52 3.496 3.49 3.496zm40.59-.151c1.85 0 3.35-1.497 3.35-3.344a3.345 3.345 0 10-3.35 3.344zm40.74-.155c1.77 0 3.2-1.43 3.2-3.193a3.194 3.194 0 00-3.2-3.192 3.192 3.192 0 000 6.385zm40.6 0c1.67 0 3.19-1.369 3.19-3.193s-1.37-3.192-3.19-3.192c-1.67 0-3.19 1.368-3.19 3.192 0 1.672 1.37 3.193 3.19 3.193zm40.56-.302c1.68 0 2.89-1.368 2.89-2.889 0-1.672-1.37-2.888-2.89-2.888-1.67 0-2.88 1.368-2.88 2.888-.16 1.673 1.21 2.889 2.88 2.889zm40.59-.153a2.88 2.88 0 002.88-2.889c0-1.672-1.21-2.888-2.88-2.888-1.52 0-2.74 1.216-2.74 2.888 0 1.673 1.22 2.889 2.74 2.889zm40.59.002c1.52 0 2.74-1.216 2.74-2.736a2.728 2.728 0 00-2.74-2.737 2.72 2.72 0 00-2.73 2.737 2.72 2.72 0 002.73 2.736zm40.59-.156c1.52 0 2.59-1.216 2.59-2.584s-1.22-2.584-2.59-2.584c-1.36 0-2.58 1.216-2.58 2.584s1.22 2.584 2.58 2.584zm40.56-.151a2.432 2.432 0 000-4.864 2.432 2.432 0 000 4.864zm40.75-.152c1.21 0 2.27-1.064 2.27-2.28 0-1.216-1.06-2.432-2.27-2.432-1.37 0-2.44 1.064-2.44 2.432 0 1.368 1.07 2.28 2.44 2.28zM9.516 250.783c1.064 0 1.976-.912 1.976-1.976s-.912-1.976-1.976-1.976-1.976.912-1.976 1.976c.152 1.064.912 1.976 1.976 1.976zm40.566.302c1.216 0 2.28-1.064 2.28-2.28 0-1.216-1.064-2.28-2.28-2.28-1.216 0-2.28 1.064-2.28 2.28 0 1.216 1.064 2.28 2.28 2.28zm40.566.302c1.368 0 2.585-1.216 2.585-2.584s-1.065-2.585-2.585-2.585c-1.367 0-2.583 1.217-2.583 2.585 0 1.368 1.216 2.584 2.584 2.584zm40.763.306c1.672 0 2.888-1.368 2.888-2.888 0-1.672-1.368-2.888-2.888-2.888-1.672 0-2.888 1.368-2.888 2.888-.152 1.672 1.216 2.888 2.888 2.888zm40.559.458c1.824 0 3.344-1.52 3.344-3.344 0-1.825-1.52-3.345-3.344-3.345-1.824 0-3.344 1.52-3.344 3.345 0 1.824 1.368 3.344 3.344 3.344zm40.613.302c2.128 0 3.648-1.672 3.648-3.649 0-2.128-1.672-3.648-3.648-3.648-1.976 0-3.648 1.672-3.648 3.648-.152 1.977 1.52 3.649 3.648 3.649zm40.56.457a4.087 4.087 0 004.104-4.104 4.088 4.088 0 00-4.104-4.105 4.088 4.088 0 00-4.104 4.105 4.087 4.087 0 004.104 4.104zm40.6.151c2.432 0 4.256-1.976 4.256-4.256 0-2.432-1.976-4.257-4.256-4.257-2.432 0-4.256 1.977-4.256 4.257 0 2.432 1.976 4.256 4.256 4.256zm40.567.302c2.432 0 4.56-1.976 4.56-4.56 0-2.433-1.976-4.561-4.56-4.561-2.432 0-4.56 1.976-4.56 4.561.152 2.432 2.128 4.56 4.56 4.56zm40.752 0c2.583 0 4.559-2.128 4.559-4.56 0-2.585-2.128-4.561-4.559-4.561-2.584 0-4.56 2.128-4.56 4.561-.152 2.584 1.976 4.56 4.56 4.56zm40.555.156c2.584 0 4.712-2.129 4.712-4.713s-2.128-4.712-4.712-4.712c-2.584 0-4.712 2.128-4.712 4.712 0 2.584 2.128 4.713 4.712 4.713zm40.6-.156c2.584 0 4.56-2.128 4.56-4.56 0-2.585-2.128-4.561-4.56-4.561-2.583 0-4.559 2.128-4.559 4.561-.152 2.584 1.976 4.56 4.559 4.56zm40.589 0c2.584 0 4.559-2.128 4.559-4.56 0-2.585-2.127-4.561-4.559-4.561-2.584 0-4.56 2.128-4.56 4.561 0 2.584 1.976 4.56 4.56 4.56zm40.56 0c2.431 0 4.559-1.976 4.559-4.56 0-2.433-1.976-4.561-4.559-4.561-2.432 0-4.56 1.976-4.56 4.561 0 2.432 2.128 4.56 4.56 4.56zm40.592-.151a4.409 4.409 0 10-.001-8.817 4.409 4.409 0 00.001 8.817zm40.596 0a4.409 4.409 0 10-.001-8.817 4.409 4.409 0 00.001 8.817zm40.737-.302a4.104 4.104 0 100-8.21 4.104 4.104 0 000 8.21zm40.56 0a4.087 4.087 0 004.104-4.104 4.088 4.088 0 00-4.104-4.105 4.088 4.088 0 00-4.104 4.105 4.087 4.087 0 004.104 4.104zm40.593-.151c2.128 0 3.952-1.824 3.952-3.952s-1.824-3.953-3.952-3.953-3.952 1.825-3.952 3.953 1.824 3.952 3.952 3.952zm40.592-.155a3.8 3.8 0 100-7.6 3.8 3.8 0 000 7.6zm40.557-.151c2.127 0 3.647-1.672 3.647-3.649 0-2.128-1.672-3.648-3.647-3.648-2.128 0-3.648 1.672-3.648 3.648 0 1.977 1.672 3.649 3.648 3.649zm40.596 0a3.65 3.65 0 10-.002-7.298 3.65 3.65 0 00.002 7.298zm40.741-.151c1.976 0 3.496-1.52 3.496-3.497 0-1.976-1.52-3.496-3.496-3.496s-3.496 1.52-3.496 3.496c0 1.977 1.52 3.497 3.496 3.497zm40.566-.151c1.824 0 3.344-1.52 3.344-3.344 0-1.825-1.52-3.345-3.344-3.345-1.824 0-3.344 1.52-3.344 3.345-.152 1.824 1.368 3.344 3.344 3.344zm40.593 0c1.824 0 3.191-1.52 3.191-3.344 0-1.825-1.519-3.345-3.191-3.345-1.824 0-3.192 1.52-3.192 3.345-.152 1.824 1.368 3.344 3.192 3.344zm40.581-.156c1.68 0 3.2-1.368 3.2-3.192 0-1.672-1.37-3.192-3.2-3.192-1.67 0-3.19 1.368-3.19 3.192s1.52 3.192 3.19 3.192zm40.59-.302c1.68 0 2.89-1.368 2.89-2.888 0-1.672-1.37-2.888-2.89-2.888-1.67 0-2.88 1.368-2.88 2.888a2.88 2.88 0 002.88 2.888zm40.56 0c1.68 0 2.89-1.368 2.89-2.888 0-1.672-1.37-2.888-2.89-2.888-1.67 0-2.88 1.368-2.88 2.888a2.88 2.88 0 002.88 2.888zm40.75 0c1.59 0 2.89-1.293 2.89-2.888s-1.3-2.888-2.89-2.888c-1.6 0-2.89 1.293-2.89 2.888a2.887 2.887 0 002.89 2.888zm40.59-.151c1.52 0 2.74-1.216 2.74-2.736 0-1.52-1.22-2.736-2.74-2.736a2.728 2.728 0 00-2.74 2.736c0 1.52 1.22 2.736 2.74 2.736zm40.59-.155c1.37 0 2.59-1.216 2.59-2.584s-1.22-2.585-2.59-2.585c-1.37 0-2.58 1.217-2.58 2.585 0 1.368 1.06 2.584 2.58 2.584zm40.56-.151a2.432 2.432 0 000-4.865 2.433 2.433 0 000 4.865zm40.59 0c1.37 0 2.44-1.064 2.44-2.432a2.407 2.407 0 00-2.44-2.433 2.405 2.405 0 00-2.43 2.433 2.404 2.404 0 002.43 2.432zm40.6 0c1.37 0 2.43-1.064 2.43-2.432a2.399 2.399 0 00-2.43-2.433c-1.22 0-2.28 1.065-2.28 2.433 0 1.368 1.06 2.432 2.28 2.432zm40.55-.151c1.22 0 2.28-1.064 2.28-2.28 0-1.216-1.06-2.28-2.28-2.28-1.21 0-2.12 1.064-2.12 2.28 0 1.216.91 2.28 2.12 2.28zm40.75-.151c1.21 0 2.13-.912 2.13-2.128 0-1.216-.92-2.128-2.13-2.128-1.22 0-2.13.912-2.13 2.128 0 1.216.91 2.128 2.13 2.128zM9.508 291.064a1.672 1.672 0 100-3.343 1.672 1.672 0 000 3.343zm40.567.307a1.976 1.976 0 100-3.952 1.976 1.976 0 000 3.952zm40.603.302a2.28 2.28 0 100-4.56 2.28 2.28 0 000 4.56zm40.715.302c1.368 0 2.584-1.217 2.584-2.585 0-1.52-1.216-2.584-2.584-2.584s-2.584 1.216-2.584 2.584c0 1.52 1.064 2.585 2.584 2.585zm40.603.307a2.725 2.725 0 002.736-2.736c0-1.52-1.216-2.888-2.736-2.888-1.52 0-2.888 1.216-2.888 2.888s1.368 2.736 2.888 2.736zm40.567.301c1.824 0 3.192-1.368 3.192-3.192 0-1.673-1.368-3.193-3.192-3.193-1.672 0-3.192 1.368-3.192 3.193 0 1.824 1.368 3.192 3.192 3.192zm40.567.306c1.975 0 3.495-1.52 3.495-3.496s-1.52-3.496-3.495-3.496c-1.976 0-3.496 1.52-3.496 3.496s1.52 3.496 3.496 3.496zm40.599.304c2.128 0 3.648-1.672 3.648-3.648 0-2.128-1.672-3.648-3.648-3.648-1.976 0-3.648 1.672-3.648 3.648 0 1.976 1.672 3.648 3.648 3.648zm40.566.154a3.952 3.952 0 100-7.904 3.952 3.952 0 000 7.904zm40.749.151a4.087 4.087 0 004.104-4.104 4.087 4.087 0 00-4.104-4.105 4.087 4.087 0 00-4.104 4.105 4.087 4.087 0 004.104 4.104zm40.596 0a4.105 4.105 0 10-.001-8.21 4.105 4.105 0 00.001 8.21zm40.559 0a4.087 4.087 0 004.104-4.104 4.087 4.087 0 00-4.104-4.105 4.087 4.087 0 00-4.104 4.105 4.087 4.087 0 004.104 4.104zm40.593-.151a3.952 3.952 0 10-.002-7.904 3.952 3.952 0 00.002 7.904zm40.593-.156a3.8 3.8 0 100-7.6 3.8 3.8 0 000 7.6zm40.559 0a3.8 3.8 0 100-7.6 3.8 3.8 0 000 7.6zm40.596 0a3.8 3.8 0 100-7.6 3.8 3.8 0 000 7.6zm40.741-.151a3.648 3.648 0 100-7.295 3.648 3.648 0 000 7.295zm40.592-.151c1.976 0 3.496-1.52 3.496-3.496s-1.52-3.496-3.496-3.496-3.496 1.52-3.496 3.496 1.52 3.496 3.496 3.496zm40.556-.15c1.824 0 3.344-1.521 3.344-3.345 0-1.824-1.52-3.344-3.344-3.344-1.823 0-3.343 1.52-3.343 3.344 0 1.824 1.52 3.345 3.343 3.345zm40.597 0a3.345 3.345 0 000-6.689 3.344 3.344 0 100 6.689zm40.592-.156c1.672 0 3.192-1.368 3.192-3.192 0-1.673-1.368-3.193-3.192-3.193-1.672 0-3.192 1.368-3.192 3.193 0 1.824 1.52 3.192 3.192 3.192zm40.557-.151a3.04 3.04 0 10-.001-6.08 3.04 3.04 0 00.001 6.08zm40.741.002c1.671 0 2.888-1.368 2.888-2.888 0-1.52-1.369-2.888-2.888-2.888-1.672 0-2.888 1.368-2.888 2.888 0 1.52 1.216 2.888 2.888 2.888zm40.596-.152a2.724 2.724 0 002.735-2.736c0-1.52-1.216-2.888-2.735-2.888-1.52 0-2.888 1.216-2.888 2.888s1.216 2.736 2.888 2.736zm40.593-.152a2.725 2.725 0 002.736-2.736 2.725 2.725 0 00-2.736-2.736 2.725 2.725 0 00-2.736 2.736 2.725 2.725 0 002.736 2.736zm40.555-.155c1.37 0 2.58-1.217 2.58-2.585 0-1.52-1.21-2.584-2.58-2.584s-2.58 1.216-2.58 2.584c0 1.52 1.21 2.585 2.58 2.585zm40.6 0c1.36 0 2.58-1.217 2.58-2.585 0-1.52-1.22-2.584-2.58-2.584-1.37 0-2.59 1.216-2.59 2.584 0 1.52 1.22 2.585 2.59 2.585zm40.59 0c1.37 0 2.59-1.217 2.59-2.585 0-1.52-1.22-2.584-2.59-2.584-1.37 0-2.58 1.216-2.58 2.584 0 1.52 1.21 2.585 2.58 2.585zm40.72-.151c1.37 0 2.43-1.065 2.43-2.433a2.398 2.398 0 00-2.43-2.432 2.398 2.398 0 00-2.43 2.432c-.15 1.368.91 2.433 2.43 2.433zm40.58 0c1.37 0 2.44-1.065 2.44-2.433 0-1.368-1.07-2.432-2.44-2.432a2.404 2.404 0 00-2.43 2.432 2.405 2.405 0 002.43 2.433zm40.6-.151c1.21 0 2.28-1.064 2.28-2.281 0-1.216-1.07-2.28-2.28-2.28-1.22 0-2.28 1.064-2.28 2.28 0 1.217 1.06 2.281 2.28 2.281zm40.59-.151c1.21 0 2.13-.912 2.13-2.128 0-1.217-.92-2.129-2.13-2.129-1.22 0-2.13.912-2.13 2.129 0 1.216.91 2.128 2.13 2.128zm40.56 0c1.17 0 2.13-.953 2.13-2.128 0-1.176-.96-2.129-2.13-2.129-1.18 0-2.13.953-2.13 2.129 0 1.175.95 2.128 2.13 2.128zm40.59-.003c1.06 0 1.98-.912 1.98-1.976s-.92-1.976-1.98-1.976-1.98.912-1.98 1.976.92 1.976 1.98 1.976zm40.6-.148c1.06 0 1.97-.912 1.97-1.976 0-1.065-.91-1.977-1.97-1.977-1.07 0-1.98.912-1.98 1.977.15 1.064.91 1.976 1.98 1.976zm40.7-.156c.91 0 1.83-.76 1.83-1.824s-.76-1.824-1.83-1.824c-1.06 0-1.82.76-1.82 1.824s.76 1.824 1.82 1.824zM9.505 331.501c.76 0 1.52-.608 1.52-1.52s-.608-1.52-1.52-1.52c-.76 0-1.52.608-1.52 1.52s.76 1.52 1.52 1.52zm40.563.151c.912 0 1.672-.76 1.672-1.672 0-.912-.76-1.672-1.672-1.672-.912 0-1.672.76-1.672 1.672 0 .912.76 1.672 1.672 1.672zm40.602.306a1.976 1.976 0 10.002-3.951 1.976 1.976 0 00-.001 3.951zm40.716.302c1.216 0 2.28-1.064 2.28-2.28 0-1.216-1.064-2.28-2.28-2.28-1.216 0-2.28 1.064-2.28 2.28 0 1.216 1.064 2.28 2.28 2.28zm40.6.304a2.4 2.4 0 002.432-2.432 2.4 2.4 0 00-2.432-2.432 2.4 2.4 0 00-2.432 2.432 2.4 2.4 0 002.432 2.432zm40.566.154a2.725 2.725 0 002.736-2.736 2.725 2.725 0 00-2.736-2.737 2.725 2.725 0 00-2.736 2.737 2.725 2.725 0 002.736 2.736zm40.6.304c1.672 0 2.888-1.368 2.888-2.888 0-1.673-1.368-2.889-2.888-2.889-1.52 0-2.888 1.368-2.888 2.889 0 1.52 1.216 2.888 2.888 2.888zm40.566.149c1.672 0 3.192-1.368 3.192-3.193 0-1.672-1.368-3.192-3.192-3.192-1.672 0-3.192 1.368-3.192 3.192 0 1.825 1.52 3.193 3.192 3.193zm40.6.152c1.824 0 3.192-1.52 3.192-3.345 0-1.824-1.52-3.192-3.192-3.192-1.672 0-3.344 1.52-3.344 3.192.152 1.825 1.52 3.345 3.344 3.345zm40.718.152c1.824 0 3.344-1.52 3.344-3.345 0-1.824-1.52-3.344-3.344-3.344-1.824 0-3.343 1.52-3.343 3.344-.152 1.825 1.367 3.345 3.343 3.345zm40.59.002c1.976 0 3.496-1.52 3.496-3.496s-1.52-3.497-3.496-3.497-3.496 1.521-3.496 3.497 1.52 3.496 3.496 3.496zm40.596 0c1.975 0 3.495-1.52 3.495-3.496s-1.52-3.497-3.495-3.497c-1.976 0-3.496 1.521-3.496 3.497s1.52 3.496 3.496 3.496zm40.556-.002c1.824 0 3.344-1.52 3.344-3.345 0-1.824-1.52-3.344-3.344-3.344-1.824 0-3.344 1.52-3.344 3.344 0 1.825 1.52 3.345 3.344 3.345zm40.596-.152c1.824 0 3.191-1.52 3.191-3.345 0-1.824-1.519-3.192-3.191-3.192-1.824 0-3.344 1.52-3.344 3.192.152 1.825 1.52 3.345 3.344 3.345zm40.592 0c1.824 0 3.344-1.52 3.344-3.345 0-1.824-1.52-3.192-3.344-3.192-1.823 0-3.191 1.52-3.191 3.192 0 1.825 1.368 3.345 3.191 3.345zm40.56-.152c1.672 0 3.192-1.368 3.192-3.193 0-1.672-1.368-3.192-3.192-3.192s-3.192 1.368-3.192 3.192c.152 1.825 1.52 3.193 3.192 3.193zm40.741-.151a3.04 3.04 0 100-6.08 3.04 3.04 0 000 6.08zm40.593-.15c1.52 0 2.736-1.216 2.736-2.888a2.725 2.725 0 00-2.736-2.737c-1.52 0-2.888 1.216-2.888 2.737 0 1.672 1.368 2.888 2.888 2.888zm40.595 0c1.52 0 2.888-1.216 2.888-2.888 0-1.521-1.216-2.737-2.888-2.737-1.52 0-2.887 1.216-2.887 2.737 0 1.672 1.367 2.888 2.887 2.888zm40.561 0c1.52 0 2.736-1.216 2.736-2.888a2.725 2.725 0 00-2.736-2.737c-1.52 0-2.888 1.216-2.888 2.737.152 1.672 1.368 2.888 2.888 2.888zm40.592-.152a2.725 2.725 0 002.736-2.736 2.725 2.725 0 00-2.736-2.737 2.725 2.725 0 00-2.736 2.737 2.725 2.725 0 002.736 2.736zm40.592-.151a2.583 2.583 0 100-5.169 2.584 2.584 0 000 5.169zm40.741-.156a2.432 2.432 0 100-4.863 2.432 2.432 0 000 4.863zm40.56 0a2.4 2.4 0 002.432-2.432 2.4 2.4 0 00-2.432-2.432c-1.368 0-2.432 1.216-2.432 2.432a2.4 2.4 0 002.432 2.432zm40.593-.151c1.216 0 2.28-1.064 2.28-2.28 0-1.216-1.064-2.28-2.28-2.28-1.216 0-2.28 1.064-2.28 2.28 0 1.216 1.064 2.28 2.28 2.28zm40.596 0c1.22 0 2.28-1.064 2.28-2.28 0-1.216-1.06-2.28-2.28-2.28-1.22 0-2.28 1.064-2.28 2.28 0 1.216 1.06 2.28 2.28 2.28zm40.56 0a2.28 2.28 0 100-4.56 2.28 2.28 0 000 4.56zm40.59-.151c1.22 0 2.13-.912 2.13-2.128 0-1.216-.91-2.128-2.13-2.128-1.21 0-2.13.912-2.13 2.128 0 1.216 1.07 2.128 2.13 2.128zm40.72 0c1.22 0 2.13-.912 2.13-2.128 0-1.216-.91-2.128-2.13-2.128-1.21 0-2.12.912-2.12 2.128-.16 1.216.91 2.128 2.12 2.128zm40.6-.002c1.06 0 1.98-.912 1.98-1.976s-.92-1.976-1.98-1.976-1.98.912-1.98 1.976c-.15 1.064.76 1.976 1.98 1.976zm40.58-.149c1.06 0 1.97-.912 1.97-1.976s-.91-1.976-1.97-1.976c-1.07 0-1.98.912-1.98 1.976s.91 1.976 1.98 1.976zm40.6 0c1.09 0 1.97-.884 1.97-1.976a1.974 1.974 0 10-3.95 0c0 1.092.88 1.976 1.98 1.976zm40.55-.155c1.06 0 1.82-.76 1.82-1.824 0-.912-.76-1.824-1.82-1.824s-1.82.76-1.82 1.824.76 1.824 1.82 1.824zm40.59-.151c.92 0 1.68-.76 1.68-1.672 0-.912-.76-1.672-1.68-1.672-.91 0-1.67.76-1.67 1.672 0 .912.76 1.672 1.67 1.672zm40.6 0c.91 0 1.67-.76 1.67-1.672 0-.912-.76-1.672-1.67-1.672-.91 0-1.67.76-1.67 1.672 0 .912.76 1.672 1.67 1.672zm40.72.002c.92 0 1.52-.608 1.52-1.52s-.76-1.52-1.52-1.52c-.91 0-1.52.76-1.52 1.52-.15.76.61 1.52 1.52 1.52zM9.498 371.939c.76 0 1.216-.608 1.216-1.216s-.456-1.368-1.216-1.368c-.608 0-1.216.608-1.216 1.216s.608 1.368 1.216 1.368zm40.6-.001a1.368 1.368 0 10-.001-2.737 1.368 1.368 0 000 2.737zm40.562.304c.912 0 1.52-.76 1.52-1.52s-.76-1.521-1.52-1.521c-.912 0-1.52.761-1.52 1.521 0 .76.76 1.52 1.52 1.52zm40.752.149c1.064 0 1.824-.761 1.824-1.825 0-.912-.76-1.824-1.824-1.824s-1.824.76-1.824 1.824.76 1.825 1.824 1.825zm40.563.304c1.064 0 1.976-.912 1.976-1.977 0-1.064-.912-1.976-1.976-1.976s-1.976.912-1.976 1.976c0 1.065.76 1.977 1.976 1.977zm40.603.153c1.216 0 2.28-.912 2.28-2.28 0-1.368-1.064-2.28-2.28-2.28-1.216 0-2.279 1.064-2.279 2.28 0 1.216 1.063 2.28 2.279 2.28zm40.563.151a2.432 2.432 0 100-4.864 2.432 2.432 0 000 4.864zm40.596 0a2.432 2.432 0 100-4.864 2.432 2.432 0 000 4.864zm40.564.156c1.368 0 2.583-1.217 2.583-2.585 0-1.368-1.215-2.584-2.583-2.584s-2.584 1.216-2.584 2.584c0 1.52 1.216 2.585 2.584 2.585zm40.748.15a2.725 2.725 0 002.736-2.736 2.725 2.725 0 00-2.736-2.736 2.725 2.725 0 00-2.736 2.736 2.725 2.725 0 002.736 2.736zm40.599.153c1.52 0 2.888-1.217 2.888-2.737s-1.368-2.888-2.888-2.888c-1.52 0-2.888 1.216-2.888 2.888s1.368 2.737 2.888 2.737zm40.556-.151a2.725 2.725 0 002.736-2.737c0-1.52-1.216-2.584-2.736-2.584a2.725 2.725 0 00-2.736 2.736c0 1.521 1.216 2.585 2.736 2.585zm40.596-.002a2.725 2.725 0 002.736-2.736 2.725 2.725 0 00-2.736-2.736 2.725 2.725 0 00-2.736 2.736 2.725 2.725 0 002.736 2.736zm40.593-.15c1.368 0 2.584-1.217 2.584-2.585 0-1.368-1.216-2.584-2.584-2.584s-2.584 1.216-2.584 2.584c0 1.52 1.216 2.585 2.584 2.585zm40.56 0c1.368 0 2.584-1.217 2.584-2.585 0-1.368-1.216-2.584-2.584-2.584s-2.584 1.216-2.584 2.584c0 1.52 1.216 2.585 2.584 2.585zm40.595 0c1.368 0 2.584-1.217 2.584-2.585 0-1.368-1.216-2.584-2.584-2.584-1.367 0-2.583 1.216-2.583 2.584 0 1.52 1.216 2.585 2.583 2.585zm40.742-.156a2.432 2.432 0 100-4.864 2.432 2.432 0 000 4.864zm40.559 0c1.368 0 2.28-1.064 2.28-2.432 0-1.368-1.064-2.432-2.28-2.432a2.4 2.4 0 00-2.432 2.432 2.4 2.4 0 002.432 2.432zm40.596 0a2.4 2.4 0 002.432-2.432 2.4 2.4 0 00-2.432-2.432 2.4 2.4 0 00-2.431 2.432 2.4 2.4 0 002.431 2.432zm40.593-.151c1.216 0 2.28-.912 2.28-2.28 0-1.368-1.064-2.28-2.28-2.28-1.216 0-2.28 1.064-2.28 2.28 0 1.216 1.064 2.28 2.28 2.28zm40.556.002c1.216 0 2.128-.912 2.128-2.128 0-1.216-.912-2.128-2.128-2.128-1.216 0-2.128.912-2.128 2.128 0 1.216.912 2.128 2.128 2.128zm40.592-.304a1.976 1.976 0 100-3.953 1.976 1.976 0 000 3.953zm40.745.149c1.064 0 1.976-.912 1.976-1.977 0-1.064-.912-1.976-1.976-1.976s-1.976.912-1.976 1.976c0 1.065.76 1.977 1.976 1.977zm40.56-.149c1.064 0 1.976-.912 1.976-1.976s-.912-1.976-1.976-1.976-1.976.912-1.976 1.976.912 1.976 1.976 1.976zm40.596 0c1.064 0 1.976-.912 1.976-1.976s-.912-1.976-1.976-1.976-1.976.912-1.976 1.976.912 1.976 1.976 1.976zm40.593-.003c1.07 0 1.98-.913 1.98-1.977s-.91-1.824-1.98-1.824c-1.06 0-1.97.912-1.97 1.976 0 1.065.91 1.825 1.97 1.825zm40.56-.152c.91 0 1.82-.761 1.82-1.825 0-.912-.76-1.824-1.82-1.824s-1.82.76-1.82 1.824.91 1.825 1.82 1.825zm40.59 0c1.07 0 1.83-.761 1.83-1.825 0-.912-.76-1.824-1.83-1.824-.91 0-1.82.76-1.82 1.824s.91 1.825 1.82 1.825zm40.75-.151a1.673 1.673 0 000-3.345c-.93 0-1.68.749-1.68 1.672 0 .924.75 1.673 1.68 1.673zm40.59 0c.93 0 1.67-.749 1.67-1.673 0-.923-.74-1.672-1.67-1.672a1.673 1.673 0 000 3.345zm40.56.002c.91 0 1.52-.76 1.52-1.52s-.76-1.521-1.52-1.521c-.91 0-1.52.761-1.52 1.521 0 .76.61 1.52 1.52 1.52zm40.59 0c.92 0 1.52-.76 1.52-1.52s-.76-1.521-1.52-1.521c-.91 0-1.52.761-1.52 1.521 0 .76.61 1.52 1.52 1.52zm40.6-.153a1.52 1.52 0 100-3.04 1.52 1.52 0 000 3.04zm40.56 0c.76 0 1.52-.608 1.52-1.52 0-.913-.61-1.521-1.52-1.521-.76 0-1.52.608-1.52 1.521 0 .912.76 1.52 1.52 1.52zm40.59-.151a1.367 1.367 0 100-2.737c-.75 0-1.37.613-1.37 1.369 0 .755.62 1.368 1.37 1.368zm40.74.001c.61 0 1.22-.608 1.22-1.216s-.61-1.368-1.22-1.368c-.76 0-1.21.608-1.21 1.216s.45 1.368 1.21 1.368zM9.49 412.221l.913-.912-.912-.912-.912.912.912.912zm40.6.15c.608 0 1.064-.456 1.064-1.064 0-.608-.456-1.216-1.064-1.216-.608 0-1.063.456-1.063 1.216 0 .608.456 1.064 1.063 1.064zm40.563.152c.76 0 1.216-.608 1.216-1.216s-.608-1.216-1.216-1.216-1.216.608-1.216 1.216.608 1.216 1.216 1.216zm40.748.002c.76 0 1.368-.608 1.368-1.368 0-.76-.608-1.368-1.368-1.368-.76 0-1.368.608-1.368 1.368 0 .912.608 1.368 1.368 1.368zm40.583.305c.912 0 1.52-.761 1.52-1.521 0-.912-.76-1.52-1.52-1.52-.912 0-1.52.76-1.52 1.52-.152.76.608 1.521 1.52 1.521zm40.58.15c.912 0 1.672-.76 1.672-1.672 0-.912-.76-1.672-1.672-1.672-.912 0-1.672.76-1.672 1.672 0 .912.76 1.672 1.672 1.672zm40.6.003c.912 0 1.824-.76 1.824-1.824s-.76-1.824-1.824-1.824-1.824.76-1.824 1.824.912 1.824 1.824 1.824zm40.563.152c1.064 0 1.976-.912 1.976-1.824 0-1.064-.912-1.976-1.976-1.976s-1.976.912-1.976 1.976c.152 1.064.912 1.824 1.976 1.824zm40.596.152c1.064 0 1.976-.912 1.976-1.976s-.912-1.976-1.976-1.976-1.976.912-1.976 1.976.912 1.976 1.976 1.976zm40.726.151c1.216 0 2.128-.912 2.128-2.128 0-1.216-.912-2.129-2.128-2.129-1.216 0-2.128.913-2.128 2.129-.152 1.064.912 2.128 2.128 2.128zm40.581 0c1.216 0 2.128-.912 2.128-2.128 0-1.216-.912-2.129-2.128-2.129-1.216 0-2.128.913-2.128 2.129 0 1.064.912 2.128 2.128 2.128zm40.597 0c1.215 0 2.127-.912 2.127-2.128 0-1.216-.912-2.129-2.127-2.129-1.216 0-2.128.913-2.128 2.129 0 1.064.912 2.128 2.128 2.128zm40.559 0c1.216 0 2.128-.912 2.128-2.128 0-1.216-.912-2.129-2.128-2.129-1.216 0-2.128.913-2.128 2.129 0 1.064.912 2.128 2.128 2.128zm40.596 0c1.216 0 2.128-.912 2.128-2.128 0-1.216-.912-2.129-2.128-2.129-1.216 0-2.128.913-2.128 2.129 0 1.064.912 2.128 2.128 2.128zm40.593-.151c1.064 0 1.976-.912 1.976-1.976s-.912-1.976-1.976-1.976-1.976.912-1.976 1.976.912 1.976 1.976 1.976zm40.559 0c1.064 0 1.976-.912 1.976-1.976s-.912-1.976-1.976-1.976-1.976.912-1.976 1.976.912 1.976 1.976 1.976zm40.745-.152c1.064 0 1.976-.912 1.976-1.824 0-1.064-.912-1.976-1.976-1.976s-1.976.912-1.976 1.976.912 1.824 1.976 1.824zm40.596 0c1.064 0 1.976-.912 1.976-1.824 0-1.064-.912-1.976-1.976-1.976s-1.976.912-1.976 1.976.912 1.824 1.976 1.824zm40.556-.152c1.064 0 1.824-.76 1.824-1.824s-.76-1.824-1.824-1.824-1.824.76-1.824 1.824.76 1.824 1.824 1.824zm40.596 0c.912 0 1.824-.76 1.824-1.824s-.76-1.824-1.824-1.824-1.824.76-1.824 1.824.912 1.824 1.824 1.824zm40.593-.003c.912 0 1.672-.76 1.672-1.672 0-.912-.76-1.672-1.672-1.672-.912 0-1.672.76-1.672 1.672 0 .912.76 1.672 1.672 1.672zm40.56 0c.912 0 1.672-.76 1.672-1.672 0-.912-.76-1.672-1.672-1.672-.912 0-1.672.76-1.672 1.672 0 .912.76 1.672 1.672 1.672zm40.763 0c.912 0 1.671-.76 1.671-1.672 0-.912-.759-1.672-1.671-1.672s-1.672.76-1.672 1.672c-.152.912.608 1.672 1.672 1.672zm40.557-.15c.912 0 1.52-.761 1.52-1.521 0-.912-.76-1.52-1.52-1.52-.912 0-1.521.76-1.521 1.52-.152.76.609 1.521 1.521 1.521zm40.596 0c.912 0 1.52-.761 1.52-1.521 0-.912-.76-1.52-1.52-1.52-.912 0-1.52.76-1.52 1.52-.152.76.608 1.521 1.52 1.521zm40.574-.154c.76 0 1.52-.608 1.52-1.52 0-.76-.61-1.52-1.52-1.52-.76 0-1.52.608-1.52 1.52s.76 1.52 1.52 1.52zm40.6 0c.76 0 1.52-.608 1.52-1.52 0-.76-.61-1.52-1.52-1.52-.76 0-1.52.608-1.52 1.52s.76 1.52 1.52 1.52zm40.56 0c.76 0 1.52-.608 1.52-1.52 0-.76-.61-1.52-1.52-1.52s-1.52.608-1.52 1.52c.15.912.76 1.52 1.52 1.52zm40.74-.151c.76 0 1.37-.608 1.37-1.368 0-.76-.61-1.368-1.37-1.368-.76 0-1.37.608-1.37 1.368 0 .912.61 1.368 1.37 1.368zm40.6 0c.76 0 1.36-.608 1.36-1.368 0-.76-.6-1.368-1.36-1.368-.76 0-1.37.76-1.37 1.52s.61 1.216 1.37 1.216zm40.55-.002c.61 0 1.22-.608 1.22-1.216s-.61-1.216-1.22-1.216c-.76 0-1.21.608-1.21 1.216s.45 1.216 1.21 1.216zm40.6 0c.61 0 1.21-.608 1.21-1.216s-.6-1.216-1.21-1.216-1.22.608-1.22 1.216.46 1.216 1.22 1.216zm40.59 0c.61 0 1.22-.608 1.22-1.216s-.61-1.216-1.22-1.216c-.76 0-1.21.608-1.21 1.216s.61 1.216 1.21 1.216zm40.56-.152c.61 0 1.06-.456 1.06-1.064 0-.608-.45-1.216-1.06-1.216-.61 0-1.06.456-1.06 1.216 0 .608.45 1.064 1.06 1.064zm40.59-.151l1.07-.912-1.07-1.064-.91 1.064.91.912zm40.75.001l.76-.912-.76-.912-.91.912.91.912zM9.487 452.658l.76-.76-.76-.76-.76.76.76.76zm40.596 0l.912-.76-.912-.76-.76.76.76.76zm40.6.151a.913.913 0 100-1.825.913.913 0 000 1.825zm40.712-.001l.912-.912-.912-1.064-1.064 1.064 1.064.912zm40.599.303c.608 0 1.216-.608 1.216-1.216s-.608-1.217-1.216-1.217c-.76 0-1.216.609-1.216 1.217 0 .608.456 1.216 1.216 1.216zm40.563.155c.76 0 1.368-.608 1.368-1.368 0-.76-.608-1.368-1.368-1.368-.76 0-1.368.608-1.368 1.368 0 .76.608 1.368 1.368 1.368zm40.6-.002c.76 0 1.52-.608 1.52-1.52s-.608-1.52-1.52-1.52c-.76 0-1.52.608-1.52 1.52s.76 1.52 1.52 1.52zm40.559.153c.912 0 1.52-.76 1.52-1.52 0-.912-.76-1.52-1.52-1.52-.912 0-1.52.76-1.52 1.52s.608 1.52 1.52 1.52zm40.596 0c.912 0 1.52-.76 1.52-1.52 0-.912-.76-1.52-1.52-1.52s-1.52.76-1.52 1.52.76 1.52 1.52 1.52zm40.728 0c.912 0 1.52-.76 1.52-1.52 0-.912-.76-1.52-1.52-1.52-.912 0-1.52.76-1.52 1.52-.152.76.608 1.52 1.52 1.52zm40.58.151c.912 0 1.672-.76 1.672-1.672 0-.912-.76-1.672-1.672-1.672-.912 0-1.672.76-1.672 1.672 0 .912.76 1.672 1.672 1.672zm40.597 0c.912 0 1.672-.76 1.672-1.672 0-.912-.76-1.672-1.672-1.672-.912 0-1.673.76-1.673 1.672 0 .912.761 1.672 1.673 1.672zm40.595 0c.912 0 1.672-.76 1.672-1.672 0-.912-.76-1.672-1.672-1.672-.912 0-1.672.76-1.672 1.672 0 .912.76 1.672 1.672 1.672zm40.557-.151c.912 0 1.52-.76 1.52-1.52 0-.912-.76-1.52-1.52-1.52-.912 0-1.52.76-1.52 1.52s.608 1.52 1.52 1.52zm40.595 0c.912 0 1.52-.76 1.52-1.52 0-.912-.76-1.52-1.52-1.52-.912 0-1.52.76-1.52 1.52s.76 1.52 1.52 1.52zm40.596 0a1.52 1.52 0 10.001-3.039 1.52 1.52 0 00-.001 3.039zm40.709-.153c.76 0 1.52-.608 1.52-1.52s-.608-1.52-1.52-1.52c-.76 0-1.52.608-1.52 1.52s.608 1.52 1.52 1.52zm40.596 0c.76 0 1.52-.608 1.52-1.52s-.608-1.52-1.52-1.52c-.76 0-1.52.608-1.52 1.52s.608 1.52 1.52 1.52zm40.592.002c.76 0 1.368-.608 1.368-1.368 0-.76-.608-1.368-1.368-1.368-.76 0-1.368.608-1.368 1.368 0 .76.608 1.368 1.368 1.368zm40.56 0a1.368 1.368 0 100-2.736 1.368 1.368 0 000 2.736zm40.596 0c.76 0 1.368-.608 1.368-1.368 0-.76-.608-1.368-1.368-1.368-.76 0-1.368.608-1.368 1.368 0 .76.608 1.368 1.368 1.368zm40.596 0a1.367 1.367 0 10.001-2.735 1.367 1.367 0 00-.001 2.735zm40.727-.155c.76 0 1.216-.608 1.216-1.216s-.608-1.217-1.216-1.217-1.216.609-1.216 1.217c-.152.608.456 1.216 1.216 1.216zm40.574 0c.608 0 1.216-.608 1.216-1.216s-.608-1.217-1.216-1.217c-.76 0-1.216.609-1.216 1.217 0 .608.456 1.216 1.216 1.216zm40.592-.151a1.065 1.065 0 10-.002-2.13 1.065 1.065 0 00.002 2.13zm40.558 0c.59 0 1.07-.477 1.07-1.064 0-.588-.48-1.064-1.07-1.064-.59 0-1.06.476-1.06 1.064 0 .587.47 1.064 1.06 1.064zm40.6-.152l1.06-.912-1.06-1.064-1.07 1.064 1.07.912zm40.59 0l1.06-.912-1.06-1.064-.91 1.064.91.912zm40.71 0l.91-.912-.91-1.064-1.06 1.064 1.06.912zm40.6 0l.91-.912-.91-1.064-1.07 1.064 1.07.912zm40.59.001l.91-.912-.91-.912-.91.912.91.912zm40.56 0l.91-.912-.91-.912-.91.912.91.912zm40.6 0a.913.913 0 000-1.824c-.51 0-.92.408-.92.912 0 .503.41.912.92.912zm40.59-.151l.76-.76-.76-.76-.76.76.76.76zm40.56 0l.91-.76-.91-.76-.76.76.76.76zm40.75 0l.76-.76-.76-.76-.91.76.91.76z"/></g></svg>