<svg width="124" height="124" fill="none" xmlns="http://www.w3.org/2000/svg"><rect opacity=".12" width="124" height="124" rx="62" fill="#E3CB75"/><rect opacity=".24" x="9.5" y="9.5" width="105" height="105" rx="52.5" stroke="#E3CB75"/><rect opacity=".7" x="18.5" y="18.5" width="87" height="87" rx="43.5" stroke="#E3CB75"/><rect x="33" y="33" width="58" height="58" rx="29" stroke="#fff" stroke-width="2" stroke-linecap="round" stroke-linejoin="round" stroke-dasharray="1 8"/><path d="M75.696 48.463c-.29 0-1.595-.149-2.61-1.19-.87-.893-.87-2.083-.87-2.53 0-.148-.145-.446-.145-.594-.145-.149-.29-.149-.58-.149l-9.57.149L52.93 44c-.29 0-.436 0-.58.149-.146.148-.146.446-.146.595 0 .446-.145 1.487-.87 2.529-1.015 1.041-2.32 1.19-2.61 1.19-.435 0-.725.297-.725.744V61.85c.145 2.232.87 6.695 4.06 11.008 3.335 4.463 7.685 6.397 10.005 7.141h.29c2.32-.744 6.526-2.529 10.006-7.14 3.19-4.166 3.915-8.629 4.06-11.009V49.207c0-.447-.29-.744-.725-.744zm-4.495 23.504a19.138 19.138 0 01-8.99 6.545 19.137 19.137 0 01-8.99-6.545c-2.9-3.868-3.626-8.033-3.77-10.116v-11.9c.724-.15 1.884-.596 2.9-1.637.724-1.041 1.014-2.083 1.16-2.826l8.41.148 8.99-.148c.145.743.435 1.785 1.305 2.677 1.015 1.042 2.03 1.488 2.9 1.637v11.9c-.29 2.232-1.015 6.248-3.915 10.265z" fill="#fff" stroke="#fff" stroke-width=".7"/><path d="M57 61.333L60.912 65 68 58" stroke="#fff" stroke-width="2" stroke-linecap="round" stroke-linejoin="round"/></svg>
