<svg width="124" height="124" fill="none" xmlns="http://www.w3.org/2000/svg"><rect opacity=".12" width="124" height="124" rx="62" fill="#E3CB75"/><rect opacity=".24" x="9.5" y="9.5" width="105" height="105" rx="52.5" stroke="#E3CB75"/><rect opacity=".7" x="18.5" y="18.5" width="87" height="87" rx="43.5" stroke="#E3CB75"/><rect x="33" y="33" width="58" height="58" rx="29" stroke="#fff" stroke-width="2" stroke-linecap="round" stroke-linejoin="round" stroke-dasharray="1 8"/><path d="M61.092 44.356a1 1 0 011.816 0l3.922 8.503a3 3 0 002.371 1.723l9.299 1.102a1 1 0 01.56 1.727l-6.874 6.358a3 3 0 00-.906 2.787l1.825 9.184a1 1 0 01-1.469 1.068l-8.17-4.574a3 3 0 00-2.931 0l-8.171 4.574a1 1 0 01-1.47-1.068l1.825-9.184a3 3 0 00-.905-2.787l-6.875-6.358a1 1 0 01.561-1.727l9.299-1.102a3 3 0 002.37-1.723l3.923-8.503z" stroke="#fff" stroke-width="2"/></svg>
