<svg width="124" height="124" fill="none" xmlns="http://www.w3.org/2000/svg"><rect opacity=".12" width="124" height="124" rx="62" fill="#E3CB75"/><rect opacity=".24" x="9.5" y="9.5" width="105" height="105" rx="52.5" stroke="#E3CB75"/><rect opacity=".7" x="18.5" y="18.5" width="87" height="87" rx="43.5" stroke="#E3CB75"/><rect x="33" y="33" width="58" height="58" rx="29" stroke="#fff" stroke-width="2" stroke-linecap="round" stroke-linejoin="round" stroke-dasharray="1 8"/><path d="M61.448 59.69l.957.536c1.042.583 2.29-.323 2.057-1.495l-.831-4.182a1.4 1.4 0 01.422-1.301l3.131-2.895c.877-.812.401-2.278-.785-2.419l-4.235-.502a1.4 1.4 0 01-1.107-.803l-1.786-3.873c-.5-1.085-2.042-1.085-2.542 0l-1.786 3.873a1.4 1.4 0 01-1.107.803l-4.234.502c-1.187.141-1.663 1.607-.786 2.419l3.13 2.895a1.4 1.4 0 01.423 1.3l-.83 4.183c-.234 1.172 1.014 2.078 2.056 1.495l1.624-.91" stroke="#fff" stroke-width="2" stroke-linecap="round" stroke-linejoin="round"/><path d="M55.937 70.792a.73.73 0 01-.729-.73v-16.77a2.92 2.92 0 012.917-2.917 2.92 2.92 0 012.917 2.917v15.312a.73.73 0 01-1.459 0V53.292a1.459 1.459 0 00-2.916 0v16.77a.73.73 0 01-.73.73z" fill="#fff" stroke="#fff" stroke-width=".5"/><path d="M64.688 69.333a.73.73 0 01-.73-.729v-6.562a1.459 1.459 0 00-2.916 0 .73.73 0 01-1.459 0 2.92 2.92 0 012.917-2.917 2.92 2.92 0 012.917 2.917v6.562a.73.73 0 01-.73.73z" fill="#fff" stroke="#fff" stroke-width=".5"/><path d="M69.063 69.333a.73.73 0 01-.73-.729V63.5a1.459 1.459 0 00-2.916 0 .73.73 0 01-1.459 0 2.92 2.92 0 012.917-2.917 2.92 2.92 0 012.917 2.917v5.104a.73.73 0 01-.73.73z" fill="#fff" stroke="#fff" stroke-width=".5"/><path d="M67.604 81h-8.44c-2.454 0-4.985-1.069-6.775-2.86-1.974-1.976-3.017-4.795-3.013-8.149.002-2.774 2.322-5.033 5.17-5.033h1.392a.73.73 0 010 1.459h-1.392c-2.044 0-3.71 1.605-3.711 3.576-.003 3 .867 5.394 2.585 7.116 1.793 1.794 4.142 2.433 5.745 2.433h8.44a5.11 5.11 0 005.103-5.105v-9.479a1.459 1.459 0 00-2.916 0 .73.73 0 01-1.459 0 2.92 2.92 0 012.917-2.916 2.92 2.92 0 012.917 2.916v9.48A6.57 6.57 0 0167.604 81z" fill="#fff" stroke="#fff" stroke-width=".5"/></svg>
