<svg xmlns="http://www.w3.org/2000/svg" width="1418" height="411" viewBox="0 0 1418 411" fill="none"><style xmlns="" class="adjust-screen-brightness" media="screen"/>
<g opacity="0.5">
<rect x="448.571" y="311.491" width="11.7894" height="22.2007" rx="1.5" stroke="#E4E5E5"/>
<rect x="466.334" y="302.211" width="11.7894" height="23.1288" rx="1.5" stroke="#E4E5E5"/>
<rect x="501.731" y="205.215" width="11.8952" height="103.279" rx="1.5" stroke="#E4E5E5"/>
<rect x="537.193" y="231.559" width="11.8952" height="75.8368" rx="1.5" stroke="#E4E5E5"/>
<rect x="236.034" y="215.577" width="11.8952" height="75.8368" rx="1.5" stroke="#E4E5E5"/>
<rect x="572.655" y="199.178" width="11.8952" height="42.9068" rx="1.5" stroke="#E4E5E5"/>
<rect x="271.497" y="183.196" width="11.8952" height="42.9068" rx="1.5" stroke="#E4E5E5"/>
<rect x="607.714" y="233.205" width="11.8952" height="42.9068" rx="1.5" stroke="#E4E5E5"/>
<rect x="306.555" y="217.223" width="11.8952" height="42.9068" rx="1.5" stroke="#E4E5E5"/>
<rect x="1370.5" y="63.5" width="12" height="77" rx="1.5" stroke="#E4E5E5"/>
<rect x="1334.5" y="77.5" width="12" height="141" rx="1.5" stroke="#E4E5E5"/>
<rect x="1299.22" y="92.7041" width="11.8952" height="26.4417" rx="1.5" stroke="#E4E5E5"/>
<rect x="1263.76" y="91.0577" width="11.8952" height="42.9068" rx="1.5" stroke="#E4E5E5"/>
<rect x="1228.3" y="159.113" width="11.8952" height="42.9068" rx="1.5" stroke="#E4E5E5"/>
<rect x="1192.83" y="108.62" width="11.8952" height="64.8601" rx="1.5" stroke="#E4E5E5"/>
<rect x="1157.37" y="116.304" width="11.8952" height="42.9068" rx="1.5" stroke="#E4E5E5"/>
<rect x="1139.64" y="126.732" width="11.8952" height="26.4417" rx="1.5" stroke="#E4E5E5"/>
<rect x="1104.18" y="161.308" width="11.8952" height="64.8601" rx="1.5" stroke="#E4E5E5"/>
<rect x="181.155" y="226.662" width="11.8952" height="64.8601" rx="1.5" stroke="#E4E5E5"/>
<rect x="1086.45" y="230.461" width="11.8952" height="48.3951" rx="1.5" stroke="#E4E5E5"/>
<rect x="163.424" y="295.815" width="11.8952" height="48.3951" rx="1.5" stroke="#E4E5E5"/>
<rect x="1050.99" y="251.866" width="11.8952" height="92.3019" rx="1.5" stroke="#E4E5E5"/>
<rect x="127.962" y="317.22" width="11.8952" height="92.3019" rx="1.5" stroke="#E4E5E5"/>
<rect x="1015.52" y="264.489" width="11.8952" height="42.9068" rx="1.5" stroke="#E4E5E5"/>
<rect x="92.5" y="329.843" width="11.8952" height="42.9068" rx="1.5" stroke="#E4E5E5"/>
<rect x="997.794" y="245.28" width="11.8952" height="26.4417" rx="1.5" stroke="#E4E5E5"/>
<rect x="962.332" y="193.141" width="11.8952" height="75.8368" rx="1.5" stroke="#E4E5E5"/>
<rect x="926.467" y="218.387" width="11.8952" height="42.9068" rx="1.5" stroke="#E4E5E5"/>
<rect x="873.274" y="156.918" width="11.8952" height="42.9068" rx="1.5" stroke="#E4E5E5"/>
<rect x="855.543" y="179.969" width="11.8952" height="42.9068" rx="1.5" stroke="#E4E5E5"/>
<rect x="802.753" y="173.932" width="11.8952" height="75.8368" rx="1.5" stroke="#E4E5E5"/>
<rect x="767.292" y="245.28" width="11.8952" height="42.9068" rx="1.5" stroke="#E4E5E5"/>
<rect x="749.561" y="288.089" width="11.8952" height="26.4417" rx="1.5" stroke="#E4E5E5"/>
<rect x="414.628" y="296.575" width="11.8952" height="26.4417" rx="1.5" stroke="#E4E5E5"/>
<rect x="678.637" y="221.681" width="11.8952" height="56.6276" rx="1.5" stroke="#E4E5E5"/>
<rect x="660.906" y="210.154" width="11.8952" height="42.9068" rx="1.5" stroke="#E4E5E5"/>
<rect x="625.444" y="229.364" width="11.8952" height="26.4417" rx="1.5" stroke="#E4E5E5"/>
<rect x="324.286" y="213.381" width="11.8952" height="26.4417" rx="1.5" stroke="#E4E5E5"/>
<rect x="2.96143" y="255.03" width="11.8952" height="26.4417" rx="1.5" stroke="#E4E5E5"/>
<rect x="430.307" y="323.056" width="12.7894" height="11.1364" rx="2" fill="#E4E5E5"/>
<rect x="483.597" y="259.95" width="12.7894" height="74.2423" rx="2" fill="#E4E5E5"/>
<rect x="518.962" y="223.925" width="12.8952" height="93.3019" rx="2" fill="#E4E5E5"/>
<rect x="217.804" y="207.942" width="12.8952" height="93.3019" rx="2" fill="#E4E5E5"/>
<rect x="554.424" y="170.139" width="12.8952" height="120.744" rx="2" fill="#E4E5E5"/>
<rect x="253.266" y="154.156" width="12.8952" height="120.744" rx="2" fill="#E4E5E5"/>
<rect x="589.483" y="172.334" width="12.8952" height="104.279" rx="2" fill="#E4E5E5"/>
<rect x="288.324" y="156.352" width="12.8952" height="104.279" rx="2" fill="#E4E5E5"/>
<rect x="1405.1" width="12.8952" height="104.279" rx="2" fill="#E4E5E5"/>
<rect x="1387.37" y="35.1255" width="12.8952" height="27.4417" rx="2" fill="#E4E5E5"/>
<rect x="1352" y="30" width="13" height="129" rx="2" fill="#E4E5E5"/>
<rect x="1316" y="69" width="13" height="57" rx="2" fill="#E4E5E5"/>
<rect x="1280.99" y="48.2974" width="12.8952" height="76.8368" rx="2" fill="#E4E5E5"/>
<rect x="1245.53" y="140.502" width="12.8952" height="27.4417" rx="2" fill="#E4E5E5"/>
<rect x="1210.06" y="129.525" width="12.8952" height="49.3951" rx="2" fill="#E4E5E5"/>
<rect x="1174.6" y="86.7156" width="12.8952" height="104.279" rx="2" fill="#E4E5E5"/>
<rect x="1121.41" y="119.646" width="12.8952" height="43.9068" rx="2" fill="#E4E5E5"/>
<rect x="198.386" y="185" width="12.8952" height="43.9068" rx="2" fill="#E4E5E5"/>
<rect x="1068.22" y="192.641" width="12.8952" height="104.279" rx="2" fill="#E4E5E5"/>
<rect x="145.193" y="257.995" width="12.8952" height="104.279" rx="2" fill="#E4E5E5"/>
<rect x="1032.76" y="240.389" width="12.8952" height="49.3951" rx="2" fill="#E4E5E5"/>
<rect x="109.731" y="305.743" width="12.8952" height="49.3951" rx="2" fill="#E4E5E5"/>
<rect x="979.563" y="221.181" width="12.8952" height="93.3019" rx="2" fill="#E4E5E5"/>
<rect x="944.101" y="174.53" width="12.8952" height="49.3951" rx="2" fill="#E4E5E5"/>
<rect x="908.236" y="178.92" width="12.8952" height="104.279" rx="2" fill="#E4E5E5"/>
<rect x="890.505" y="193.738" width="12.8952" height="27.4417" rx="2" fill="#E4E5E5"/>
<rect x="837.312" y="114.706" width="12.8952" height="104.279" rx="2" fill="#E4E5E5"/>
<rect x="819.582" y="145.99" width="12.8952" height="57.6276" rx="2" fill="#E4E5E5"/>
<rect x="784.523" y="194.287" width="12.8952" height="57.6276" rx="2" fill="#E4E5E5"/>
<rect x="731.33" y="261.794" width="12.8952" height="27.4417" rx="2" fill="#E4E5E5"/>
<rect x="396.397" y="270.28" width="12.8952" height="27.4417" rx="2" fill="#E4E5E5"/>
<rect x="75.073" y="311.928" width="12.8952" height="27.4417" rx="2" fill="#E4E5E5"/>
<rect x="713.599" y="210.203" width="12.8952" height="57.6276" rx="2" fill="#E4E5E5"/>
<rect x="378.666" y="218.688" width="12.8952" height="57.6276" rx="2" fill="#E4E5E5"/>
<rect x="57.3418" y="260.337" width="12.8952" height="57.6276" rx="2" fill="#E4E5E5"/>
<rect x="695.868" y="178.92" width="12.8952" height="76.8368" rx="2" fill="#E4E5E5"/>
<rect x="360.936" y="187.406" width="12.8952" height="76.8368" rx="2" fill="#E4E5E5"/>
<rect x="39.6111" y="229.054" width="12.8952" height="76.8368" rx="2" fill="#E4E5E5"/>
<rect x="642.676" y="238.194" width="12.8952" height="27.4417" rx="2" fill="#E4E5E5"/>
<rect x="341.517" y="222.211" width="12.8952" height="27.4417" rx="2" fill="#E4E5E5"/>
<rect x="20.1929" y="263.86" width="12.8952" height="27.4417" rx="2" fill="#E4E5E5"/>
</g>
</svg>