<svg width="64" height="64" fill="none" xmlns="http://www.w3.org/2000/svg"><path fill-rule="evenodd" clip-rule="evenodd" d="M24.37 38.047a3.956 3.956 0 013.962-3.948h31.705A3.956 3.956 0 0164 38.047V59.58a3.956 3.956 0 01-3.963 3.948H28.332a3.956 3.956 0 01-3.963-3.948V38.047zm3.962-1.795c-.995 0-1.801.804-1.801 1.795V59.58c0 .991.806 1.795 1.801 1.795h31.705c.995 0 1.802-.804 1.802-1.795V38.047c0-.991-.807-1.795-1.802-1.795H28.332z" fill="#CFB764"/><path fill-rule="evenodd" clip-rule="evenodd" d="M40.582 34.099c.597 0 1.08.482 1.08 1.077V62.45c0 .595-.483 1.077-1.08 1.077-.597 0-1.081-.482-1.081-1.077V35.176c0-.595.484-1.077 1.08-1.077zm7.566 0c.597 0 1.08.482 1.08 1.077v10.048c0 .595-.483 1.077-1.08 1.077-.597 0-1.081-.482-1.081-1.077V35.176c0-.595.484-1.077 1.08-1.077zm0 13.997c.597 0 1.08.482 1.08 1.076v.36c0 .594-.483 1.076-1.08 1.076-.597 0-1.081-.482-1.081-1.077v-.359c0-.594.484-1.076 1.08-1.076zm0 4.306c.597 0 1.08.482 1.08 1.077v8.972c0 .595-.483 1.077-1.08 1.077-.597 0-1.081-.482-1.081-1.077V53.48c0-.595.484-1.077 1.08-1.077zM18.34 25.746a3.971 3.971 0 015.41-1.463l4.283 2.445a3.94 3.94 0 011.468 5.388l-16.37 28.459a3.971 3.971 0 01-5.408 1.462l-4.284-2.445a3.94 3.94 0 01-1.468-5.388l16.37-28.458zm4.334.405a1.805 1.805 0 00-2.458.665L3.846 55.275a1.79 1.79 0 00.668 2.449l4.284 2.445a1.805 1.805 0 002.458-.665l16.37-28.458a1.79 1.79 0 00-.668-2.45l-4.284-2.445z" fill="#CFB764"/><path fill-rule="evenodd" clip-rule="evenodd" d="M18.04 49.862l-9.134-5.167 1.068-1.872 9.133 5.167-1.067 1.872zM21.882 43.539l-9.134-5.167 1.068-1.873 9.133 5.167-1.067 1.873z" fill="#CFB764"/><path fill-rule="evenodd" clip-rule="evenodd" d="M3.782 42.186c-.127.39-.102.825.197 1.295.432.679 1.196.922 2.22.773 1.05-.152 2.024-.689 2.418-1.097l1.557 1.494c-.777.804-2.216 1.524-3.663 1.734-1.474.215-3.289-.07-4.358-1.751-.639-1.005-.756-2.107-.427-3.114.32-.982 1.038-1.798 1.94-2.36 1.817-1.131 4.509-1.326 7.117.16L9.71 41.189c-1.963-1.119-3.8-.886-4.898-.203-.556.347-.895.786-1.03 1.2z" fill="#CFB764"/><path fill-rule="evenodd" clip-rule="evenodd" d="M8.642 33.724c.272-.307.662-.506 1.22-.487.806.026 1.404.559 1.794 1.513.4.979.43 2.088.277 2.633l2.082.58c.302-1.075.195-2.676-.357-4.025-.56-1.374-1.728-2.787-3.724-2.853-1.193-.04-2.206.418-2.911 1.212-.687.773-1.03 1.802-1.058 2.861-.058 2.134 1.137 4.544 3.746 6.03l1.073-1.869c-1.963-1.118-2.693-2.813-2.658-4.103.017-.653.226-1.166.516-1.492zM28.758 17.936a1.082 1.082 0 011.388-.639c3.141 1.153 5.079 3.893 6.235 6.642 1.161 2.762 1.614 5.712 1.678 7.612a1.079 1.079 0 01-1.045 1.112 1.08 1.08 0 01-1.116-1.04c-.057-1.69-.469-4.374-1.51-6.852-1.049-2.491-2.654-4.596-4.99-5.453a1.076 1.076 0 01-.64-1.383zM58.89 17.936a1.082 1.082 0 00-1.389-.639c-3.14 1.153-5.078 3.893-6.234 6.642-1.162 2.762-1.614 5.712-1.678 7.612a1.078 1.078 0 001.044 1.112 1.08 1.08 0 001.116-1.04c.057-1.69.47-4.374 1.511-6.852 1.048-2.491 2.653-4.596 4.989-5.453.56-.206.846-.825.64-1.383zM43.824 19.743c.596 0 1.08.483 1.08 1.077v10.767c0 .595-.484 1.076-1.08 1.076-.597 0-1.081-.481-1.081-1.076V20.82c0-.595.484-1.077 1.08-1.077z" fill="#CFB764"/><path d="M37.475 11.286c-.555.003-1.008-.394-1.01-.885-.003-.491.446-.893 1-.896.554-.003 1.007.394 1.01.885a.463.463 0 00.46.465.463.463 0 00.454-.47c-.005-.857-.633-1.575-1.472-1.766l-.002-.243a.463.463 0 00-.46-.465.462.462 0 00-.453.47l.001.243c-.837.2-1.457.925-1.452 1.782.005 1.007.87 1.822 1.929 1.816.554-.003 1.007.394 1.01.885.003.491-.446.893-1 .896-.554.004-1.008-.394-1.01-.885a.463.463 0 00-.46-.465.462.462 0 00-.454.47c.005.857.633 1.575 1.472 1.766l.001.202a.462.462 0 00.46.465.463.463 0 00.454-.47l-.001-.202c.837-.2 1.456-.925 1.452-1.782-.006-1.007-.871-1.822-1.93-1.816zM50.691 4.717c-.416.002-.757-.296-.759-.665-.002-.369.335-.67.752-.673.416-.002.756.296.758.665.001.194.156.35.345.35a.347.347 0 00.341-.354c-.003-.644-.475-1.183-1.105-1.326l-.001-.183a.347.347 0 00-.345-.35.347.347 0 00-.341.354v.183c-.628.15-1.093.694-1.09 1.338.004.756.654 1.368 1.449 1.364.416-.003.757.296.758.664.003.37-.334.671-.75.674-.417.002-.757-.296-.76-.665a.347.347 0 00-.344-.35.347.347 0 00-.341.354c.003.643.475 1.182 1.105 1.326v.151c.002.194.156.35.346.35a.347.347 0 00.341-.353v-.152c.628-.15 1.093-.694 1.09-1.338-.005-.757-.654-1.368-1.449-1.364z" fill="#CFB764"/><path fill-rule="evenodd" clip-rule="evenodd" d="M37.696 6.676c-2.682.014-4.844 2.192-4.829 4.864.015 2.67 2.201 4.825 4.883 4.81 2.681-.015 4.843-2.193 4.829-4.864-.015-2.671-2.201-4.825-4.883-4.81zm-6.63 4.873c-.02-3.662 2.943-6.647 6.62-6.668 3.677-.02 6.674 2.933 6.694 6.595.02 3.662-2.944 6.648-6.62 6.668-3.677.02-6.674-2.932-6.694-6.595zM50.673 1.463a3.596 3.596 0 00-3.583 3.61 3.596 3.596 0 003.623 3.568 3.596 3.596 0 003.583-3.609 3.596 3.596 0 00-3.623-3.569zM45.649 5.08c-.015-2.775 2.23-5.037 5.016-5.052 2.786-.016 5.056 2.221 5.072 4.996.015 2.775-2.23 5.037-5.016 5.052-2.786.016-5.057-2.221-5.072-4.996z" fill="#CFB764"/><path d="M49.228 17.59c0 .595-.484 1.076-1.08 1.076-.598 0-1.082-.482-1.082-1.076 0-.595.484-1.077 1.081-1.077s1.081.482 1.081 1.077z" fill="#CFB764"/></svg>
