<svg width="60" height="60" fill="none" xmlns="http://www.w3.org/2000/svg"><path d="M59.055 58.11h-4.488v-6.555h1.545A3.893 3.893 0 0060 47.667V5.669A5.675 5.675 0 0054.33 0H5.67A5.675 5.675 0 000 5.67v41.997a3.893 3.893 0 003.888 3.888h1.545v6.555H.945a.946.946 0 000 1.89h58.11a.946.946 0 000-1.89zM1.89 5.67a3.783 3.783 0 013.78-3.78h48.66a3.784 3.784 0 013.78 3.78v2.834H2.244a.865.865 0 00-.096.005l-.258.026V5.669zm11.102 52.44h-5.67V47.008h5.67V58.11zm13.229 0h-5.67V33.948h5.67V58.11zm13.228 0h-5.67V43.937h5.67V58.11zm14.173-27.815h-7.559a.946.946 0 00-.945.945v5.965a.946.946 0 001.89 0v-5.02h5.67V58.11h-5.67V45.148a.946.946 0 00-1.89 0V58.11h-3.78V42.992a.946.946 0 00-.944-.945h-7.56a.946.946 0 00-.944.945V58.11h-3.78V33.004a.946.946 0 00-.945-.945h-7.559a.946.946 0 00-.945.945V58.11h-3.78V46.063a.946.946 0 00-.944-.945H6.378a.946.946 0 00-.945.945v3.602H3.888a2 2 0 01-1.998-1.998V10.363l.26.026a.84.84 0 00.094.005H58.11v37.273a2 2 0 01-1.998 1.998h-1.545V31.24a.946.946 0 00-.945-.945z" fill="#CFB764"/><path d="M52.678 4.252H25.992a.946.946 0 000 1.89h26.686a.946.946 0 000-1.89zM12.716 4.528a.95.95 0 00-1.337 0 .948.948 0 00.668 1.613.95.95 0 00.946-.944c0-.248-.1-.493-.277-.669zM7.992 4.528a.95.95 0 00-1.337 0 .948.948 0 00.668 1.613.949.949 0 00.945-.944c0-.248-.1-.493-.276-.669zM17.44 4.528a.95.95 0 00-1.337 0 .948.948 0 00.669 1.613.95.95 0 00.943-.944c0-.248-.1-.493-.276-.669zM46.731 40.746a.947.947 0 00-1.613.668c0 .25.1.493.276.669a.95.95 0 001.337 0 .951.951 0 00.276-.669c0-.25-.1-.492-.276-.668zM49.843 16.056a4.02 4.02 0 00-4.016 4.016c0 .851.264 1.665.766 2.355l.118.163-8.114 8.114-.156-.086a4.01 4.01 0 00-3.702-.09l-.151.074-8.438-8.438.086-.155c.327-.59.5-1.262.5-1.939a4.02 4.02 0 00-4.016-4.015 4.02 4.02 0 00-4.016 4.015c0 .747.208 1.477.601 2.111l.1.16-7.234 7.233-.155-.087a4.01 4.01 0 00-1.939-.5 4.02 4.02 0 00-4.015 4.017 4.02 4.02 0 004.015 4.015 4.014 4.014 0 003.516-5.954l-.086-.156 7.303-7.302.151.074a4.014 4.014 0 003.696-.093l.156-.087 8.369 8.37-.098.16a3.998 3.998 0 00-.598 2.103 4.02 4.02 0 004.016 4.016 4.014 4.014 0 003.516-5.954l-.086-.156 8.291-8.292.144.057c.472.187.967.281 1.473.281a4.02 4.02 0 004.016-4.016 4.017 4.017 0 00-4.013-4.014zM10.08 35.129a2.128 2.128 0 01-2.126-2.125c0-1.172.953-2.126 2.126-2.126 1.172 0 2.126.954 2.126 2.126a2.13 2.13 0 01-2.126 2.126zM22.72 22.199a2.128 2.128 0 01-2.126-2.126c0-1.173.953-2.126 2.126-2.126s2.126.953 2.126 2.126a2.128 2.128 0 01-2.126 2.126zM36.504 36.26a2.13 2.13 0 01-2.125-2.126 2.13 2.13 0 012.125-2.126 2.13 2.13 0 012.126 2.126 2.128 2.128 0 01-2.126 2.126zm13.339-14.062a2.128 2.128 0 01-2.126-2.126c0-1.173.954-2.126 2.126-2.126 1.171 0 2.126.953 2.126 2.126a2.128 2.128 0 01-2.126 2.126zM16.448 14.884c-.249 0-.493.1-.67.277a.95.95 0 000 1.337c.178.176.421.276.67.276a.956.956 0 00.669-.277.95.95 0 00.276-.668.95.95 0 00-.276-.667.959.959 0 00-.669-.278zM12.047 14.884H6.378a.946.946 0 00-.945.945c0 .521.424.945.945.945h5.67a.946.946 0 000-1.89zM12.047 20.553H6.378a.946.946 0 00-.945.945c0 .521.424.945.945.945h5.67c.52 0 .944-.424.944-.945a.946.946 0 00-.945-.945z" fill="#CFB764"/></svg>
