<svg width="67" height="60" fill="none" xmlns="http://www.w3.org/2000/svg"><path fill-rule="evenodd" clip-rule="evenodd" d="M30.112 2.454c-15.27 0-27.65 12.332-27.65 27.546 0 15.214 12.38 27.546 27.65 27.546 15.27 0 27.65-12.332 27.65-27.546a1.23 1.23 0 011.231-1.227c.68 0 1.232.55 1.232 1.227 0 16.569-13.482 30-30.113 30C13.482 60 0 46.569 0 30 0 13.431 13.482 0 30.112 0 39.755 0 48.34 4.517 53.85 11.538a1.224 1.224 0 01-.212 1.722 1.235 1.235 0 01-1.728-.211C46.846 6.597 38.965 2.454 30.112 2.454zM57.72 21.436a1.232 1.232 0 011.506.872c.067.256.132.512.193.77a1.231 1.231 0 01-2.397.564 27.486 27.486 0 00-.177-.706 1.226 1.226 0 01.875-1.5z" fill="#CFB764"/><path fill-rule="evenodd" clip-rule="evenodd" d="M66.429 4.735c.51.449.557 1.224.107 1.732L51.7 23.183a1.233 1.233 0 01-1.744.102l-8.74-7.797a1.223 1.223 0 01-.097-1.732 1.235 1.235 0 011.739-.096l7.818 6.973L64.69 4.841a1.235 1.235 0 011.738-.106zM12.344 51.947c-.003-.1-.004-.2-.004-.302V50.38c0-7.838 5.533-14.388 12.92-15.985a11.258 11.258 0 01-6.255-10.118c0-6.21 4.973-11.245 11.108-11.245 6.135 0 11.108 5.035 11.108 11.245 0 4.168-2.24 7.807-5.568 9.75 8.266.16 15.034 6.407 15.978 14.428-.738.82-1.523 1.6-2.35 2.33v-.405c0-7.679-6.248-13.904-13.956-13.904h-6.567c-7.707 0-13.955 6.225-13.955 13.904v1.266c0 .764.105 1.503.301 2.205a28.944 28.944 0 01-2.76-1.903zm17.769-18.88c4.737 0 8.645-3.898 8.645-8.79 0-4.893-3.908-8.792-8.645-8.792-4.738 0-8.646 3.899-8.646 8.791 0 4.893 3.908 8.792 8.646 8.792z" fill="#CFB764"/></svg>
