<svg width="122" height="69" fill="none" xmlns="http://www.w3.org/2000/svg"><path d="M89.788 30.265a1.044 1.044 0 01-1.25-.783l-1.852-8.106a1.044 1.044 0 012.036-.461l1.852 8.106a1.04 1.04 0 01-.786 1.244zM83.497 40.215l-8.144 1.844a1.04 1.04 0 11-.463-2.027l8.144-1.844a1.04 1.04 0 11.463 2.027zM107.928 34.683l-8.144 1.844a1.04 1.04 0 11-.463-2.027l8.144-1.843a1.039 1.039 0 11.463 2.027zM84.573 33.944c-.27.062-.553.014-.788-.133l-7.069-4.422a1.042 1.042 0 01-.329-1.441 1.052 1.052 0 011.448-.328l7.061 4.43a1.036 1.036 0 01-.325 1.895h.002v-.001zM82.743 52.443a1.044 1.044 0 01-1.25-.78 1.036 1.036 0 01.134-.787l4.45-7.037c.315-.48.962-.615 1.445-.301.47.306.613.929.321 1.407l-4.44 7.038a1.043 1.043 0 01-.66.46zM96.088 31.336a1.044 1.044 0 01-1.25-.78 1.035 1.035 0 01.134-.787l4.444-7.036c.315-.48.962-.615 1.445-.301.47.306.613.929.321 1.408l-4.441 7.035c-.147.234-.382.4-.653.461z" fill="#455A64"/><path d="M98.588 68.77a1.043 1.043 0 01-1.25-.783l-6.947-30.399a1.039 1.039 0 01.788-1.242c.234-.053.479-.024.694.082l26.564 13.168a1.037 1.037 0 01-.233 1.943l-13.706 3.104-5.167 13.483a1.043 1.043 0 01-.743.643zm-5.672-29.504l5.693 24.914 4.137-10.797c.124-.325.403-.566.743-.643l11.402-2.582-21.976-10.892z" fill="#CFB764"/><path fill-rule="evenodd" clip-rule="evenodd" d="M91.21 36.48a.9.9 0 00-.683 1.078l6.947 30.398a.904.904 0 001.727.12l5.194-13.552 13.778-3.12a.898.898 0 00.202-1.684L91.811 36.552a.909.909 0 00-.602-.072zm1.505 2.531l22.587 11.196-11.782 2.668a.902.902 0 00-.644.557l-4.3 11.225-5.861-25.646z" fill="#CFB764"/><path d="M89.788 30.265a1.044 1.044 0 01-1.25-.783l-1.852-8.106a1.044 1.044 0 012.036-.461l1.852 8.106a1.04 1.04 0 01-.786 1.244z" fill="#CFB764"/><path fill-rule="evenodd" clip-rule="evenodd" d="M86.958 21.315l1.852 8.106a.766.766 0 001.493-.338l-1.852-8.106a.766.766 0 00-1.493.338zm-.543.123a1.323 1.323 0 012.579-.584l1.852 8.106a1.323 1.323 0 01-2.579.584l-1.852-8.106z" fill="#CFB764"/><path d="M83.497 40.215l-8.144 1.844a1.04 1.04 0 11-.463-2.027l8.144-1.844a1.04 1.04 0 11.463 2.027z" fill="#CFB764"/><path fill-rule="evenodd" clip-rule="evenodd" d="M74.951 40.303a.762.762 0 10.34 1.486l8.144-1.844a.762.762 0 10-.34-1.486l-8.144 1.844zm-1.12 1.035a1.316 1.316 0 01.997-1.575l8.143-1.844a1.316 1.316 0 11.587 2.567l-8.144 1.844a1.323 1.323 0 01-1.583-.992z" fill="#CFB764"/><path d="M107.928 34.683l-8.144 1.844a1.04 1.04 0 11-.463-2.027l8.144-1.843a1.039 1.039 0 11.463 2.027z" fill="#CFB764"/><path fill-rule="evenodd" clip-rule="evenodd" d="M99.383 34.77a.762.762 0 10.34 1.487l8.144-1.844a.762.762 0 10-.34-1.486l-8.144 1.844zm-1.12 1.036a1.316 1.316 0 01.997-1.575l8.143-1.845a1.316 1.316 0 11.587 2.567l-8.144 1.844a1.323 1.323 0 01-1.583-.991z" fill="#CFB764"/><path d="M84.573 33.944c-.27.062-.553.014-.788-.133l-7.069-4.422a1.042 1.042 0 01-.329-1.441 1.052 1.052 0 011.448-.328l7.061 4.43a1.036 1.036 0 01-.325 1.895h.002v-.001z" fill="#CFB764"/><path fill-rule="evenodd" clip-rule="evenodd" d="M77.685 27.854a.773.773 0 00-1.063.241.766.766 0 00.242 1.059l7.068 4.423c.172.107.38.142.578.097l.014-.003a.765.765 0 00.465-.335m-.353.878l.27-.061-.007-.03a1.313 1.313 0 00.145-2.308v.001l-7.062-4.43a1.332 1.332 0 00-1.831.414 1.318 1.318 0 00.416 1.823l7.069 4.423c.296.185.655.246.996.169l.004-.001zm-6.95-6.36zm0 0zm0 0l7.061 4.431-7.062-4.43zm7.061 4.431a.76.76 0 01.242 1.05l-.242-1.05z" fill="#CFB764"/><path d="M82.743 52.443a1.044 1.044 0 01-1.25-.78 1.036 1.036 0 01.134-.787l4.45-7.037c.315-.48.962-.615 1.445-.301.47.306.613.929.321 1.407l-4.44 7.038a1.043 1.043 0 01-.66.46z" fill="#CFB764"/><path fill-rule="evenodd" clip-rule="evenodd" d="M86.31 43.988l-4.447 7.035a.76.76 0 00-.1.578m4.548-7.613a.768.768 0 011.058-.219l-1.058.22zm-.467-.301c.4-.608 1.219-.78 1.83-.381.596.388.777 1.176.408 1.783l-.003.004-4.44 7.037a1.323 1.323 0 01-.835.584l-.06-.27.062.27h-.002a1.323 1.323 0 01-1.583-.99c-.079-.34-.017-.7.17-.996l4.453-7.041zm1.525.082a.76.76 0 01.237 1.031l-.237-1.03zm.237 1.031l-4.439 7.035a.766.766 0 01-.483.338h-.003a.766.766 0 01-.917-.572" fill="#CFB764"/><path d="M96.088 31.336a1.044 1.044 0 01-1.25-.78 1.035 1.035 0 01.134-.787l4.444-7.036c.315-.48.962-.615 1.445-.301.47.306.613.929.321 1.408l-4.441 7.035c-.147.234-.382.4-.653.461z" fill="#CFB764"/><path fill-rule="evenodd" clip-rule="evenodd" d="M99.65 22.883l-4.442 7.033a.76.76 0 00-.099.578m4.541-7.611a.768.768 0 011.059-.22l-1.059.22zm-.467-.302c.4-.608 1.219-.779 1.83-.38.596.387.777 1.176.408 1.782l-.003.004-4.44 7.035a1.322 1.322 0 01-.828.585 1.323 1.323 0 01-1.584-.99 1.31 1.31 0 01.17-.996l4.447-7.04zm1.526.083a.76.76 0 01.237 1.03l-.237-1.03zm.237 1.03l-4.44 7.034a.766.766 0 01-1.397-.234" fill="#CFB764"/><path fill-rule="evenodd" clip-rule="evenodd" d="M1 5.576C1 3.05 3.256 1 6.038 1h87.025C95.845 1 98.1 3.049 98.1 5.576v11.65c0 .689-.615 1.247-1.374 1.247-.759 0-1.374-.558-1.374-1.248V5.576c0-1.148-1.025-2.08-2.29-2.08H6.038c-1.265 0-2.29.932-2.29 2.08v27.459c0 1.148 1.025 2.08 2.29 2.08h56.795c.76 0 1.374.558 1.374 1.248 0 .689-.615 1.248-1.374 1.248H6.038C3.256 37.61 1 35.56 1 33.035V5.576z" fill="#CFB764" stroke="#fff" stroke-width=".3" stroke-linecap="round" stroke-linejoin="round"/><path d="M18.295 24.134c-.303 0-.55-.09-.74-.271-.183-.181-.274-.423-.274-.725v-6.543h-2.104c-.641 0-.962-.276-.962-.828 0-.543.32-.814.962-.814h6.236c.64 0 .961.271.961.814 0 .552-.32.828-.961.828h-2.105v6.543c0 .302-.09.543-.273.725-.182.18-.428.271-.74.271zM30.614 22.841c.07.155.104.293.104.414 0 .241-.1.448-.299.62a.986.986 0 01-.663.246.912.912 0 01-.467-.13.9.9 0 01-.338-.413l-.689-1.526h-4.404l-.688 1.526a.898.898 0 01-.338.414.867.867 0 01-.468.13c-.251 0-.476-.083-.675-.247a.794.794 0 01-.3-.62c0-.12.035-.259.105-.414L25 15.509a.979.979 0 01.43-.466 1.208 1.208 0 011.234 0c.19.112.337.267.441.466l3.508 7.332zm-3.04-2.315l-1.507-3.362-1.52 3.362h3.027zM39.253 22.556c.2.199.299.414.299.647a.848.848 0 01-.286.634.874.874 0 01-.636.271c-.278 0-.525-.112-.741-.336l-4.028-3.918v3.284c0 .31-.09.556-.272.737-.182.182-.429.272-.74.272-.313 0-.56-.09-.741-.271-.182-.181-.273-.427-.273-.738v-7.254c0-.302.09-.543.273-.725.181-.18.428-.271.74-.271s.559.09.74.271c.183.181.273.423.273.725v3.09l3.924-3.789a.897.897 0 01.65-.284c.242 0 .454.09.636.271.182.173.273.38.273.621 0 .25-.104.474-.312.673l-3.092 2.883 3.313 3.207zM41.588 24.07c-.303 0-.537-.082-.701-.246-.165-.164-.247-.397-.247-.699v-7.228c0-.302.082-.535.247-.699.164-.164.398-.245.701-.245h4.6c.64 0 .96.258.96.776 0 .525-.32.788-.96.788h-3.574v2.134h3.313c.641 0 .962.263.962.789 0 .517-.32.776-.962.776h-3.313v2.289h3.573c.641 0 .962.263.962.789 0 .517-.32.776-.962.776h-4.599zM52.983 24.147c-.312 0-.559-.09-.74-.271-.183-.181-.274-.427-.274-.738v-7.241c0-.302.083-.535.247-.699.165-.164.399-.245.702-.245h3.26c.997 0 1.772.25 2.326.75.555.5.832 1.198.832 2.095 0 .896-.277 1.595-.832 2.095-.554.5-1.33.75-2.325.75h-2.183v2.495c0 .31-.09.556-.273.737-.181.182-.428.272-.74.272zm2.936-5.03c1.013 0 1.52-.436 1.52-1.306 0-.88-.507-1.32-1.52-1.32h-1.923v2.626h1.923zM68.206 22.841c.07.155.104.293.104.414 0 .241-.1.448-.299.62a.986.986 0 01-.662.246.912.912 0 01-.468-.13.898.898 0 01-.338-.413l-.688-1.526H61.45l-.689 1.526a.898.898 0 01-.338.414.867.867 0 01-.468.13c-.25 0-.476-.083-.675-.247a.794.794 0 01-.299-.62c0-.12.035-.259.104-.414l3.508-7.332a.978.978 0 01.429-.466 1.208 1.208 0 011.234 0c.19.112.338.267.441.466l3.508 7.332zm-3.04-2.315l-1.507-3.362-1.52 3.362h3.027zM76.936 22.79c.13.189.195.374.195.555 0 .242-.1.44-.299.595-.19.155-.415.233-.675.233-.165 0-.325-.039-.48-.116a.976.976 0 01-.39-.362l-1.715-2.535c-.148-.224-.303-.384-.468-.479-.165-.103-.373-.155-.624-.155h-1.052v2.612c0 .31-.091.556-.273.737-.173.182-.411.272-.714.272-.312 0-.56-.09-.74-.271-.183-.181-.274-.427-.274-.738v-7.241c0-.302.082-.535.247-.699.165-.164.398-.245.702-.245h3.26c1.075 0 1.884.237 2.43.71.554.466.831 1.143.831 2.031 0 .698-.194 1.28-.584 1.746-.39.465-.94.771-1.65.918.26.052.49.155.689.31.207.147.407.363.597.647l.987 1.474zM73.338 19c.58 0 1-.099 1.26-.297.26-.207.39-.526.39-.957 0-.44-.13-.759-.39-.957-.26-.198-.68-.298-1.26-.298h-1.936v2.51h1.936zM81.414 24.134c-.303 0-.55-.09-.74-.271-.182-.181-.273-.423-.273-.725v-6.543h-2.105c-.641 0-.961-.276-.961-.828 0-.543.32-.814.96-.814h6.237c.64 0 .961.271.961.814 0 .552-.32.828-.961.828h-2.105v6.543c0 .302-.09.543-.273.725-.181.18-.428.271-.74.271z" fill="#CFB764"/></svg>
