<svg xmlns="http://www.w3.org/2000/svg" width="1052" height="281" viewBox="0 0 1052 281" fill="none"><style xmlns="" class="adjust-screen-brightness" media="screen"/>
  <path d="M158.153 240.638l-1.125-1.125 46.121-46.112 351.644.025 53.502 53.502 192.7.014 12.841 19.258 106.454.009v1.591l-107.304-.007-12.843-19.26-192.507-.014-53.502-53.502-350.326-.025-45.655 45.646z" fill="#262930"/>
  <path d="M920.171 264.611a2.394 2.394 0 11-.002 4.784 2.394 2.394 0 01.002-4.784zM185.984 238.298a2.392 2.392 0 103.384 3.384 2.392 2.392 0 10-3.384-3.384zM258.228 79.672L217.656 39.1l1.125-1.125 40.106 40.106 268.194.02L604.367.824l242.423.02 43.601 43.6 89.882.005v1.591l-90.541-.005-43.601-43.6-241.105-.02-77.285 77.276-269.513-.02z" fill="#262930"/>
  <path d="M978.461 46.937a2.393 2.393 0 103.384-3.384 2.393 2.393 0 00-3.384 3.384zM189.995 26.93a2.392 2.392 0 10-3.384 3.382 2.392 2.392 0 003.384-3.382zM91.811 212.983l-1.125-1.125 20.583-20.583 67.048.005 28.081-28.079 392.376.029 52.188 52.198 175.719.013 27.745 27.744 118.945.009v1.59l-119.605-.008-27.744-27.745-175.718-.012-52.19-52.198-391.057-.029-28.081 28.078-67.048-.005-20.117 20.118z" fill="#262930"/>
  <path d="M973.251 241.596a2.394 2.394 0 110 4.784 2.394 2.394 0 010-4.784zM89.642 210.643a2.393 2.393 0 103.385 3.384 2.393 2.393 0 00-3.385-3.384zM24.268 76.684L.592 53.01l1.125-1.125 23.21 23.21 114.614.008 36.002 36.003 280.091.021 83.88-83.88 218.651.015 33.037 33.034 140.084.012v1.59l-140.743-.01-33.037-33.035-217.333-.015-83.879 83.879-281.41-.02-36.002-36.003-114.614-.008z" fill="#262930"/>
  <path d="M931.165 58.708a2.394 2.394 0 01.001 4.786 2.394 2.394 0 01-.001-4.786zM49.547 44.222a2.393 2.393 0 103.384-3.383 2.393 2.393 0 00-3.384 3.383zM201.992 144.782l-23.951-23.959 1.125-1.125 23.485 23.494 310.697.024 79.703-79.714 190.011.014 30.834 30.843 152.424.011.001 1.59-153.084-.01-30.834-30.843-188.693-.014-79.702 79.714-312.016-.025z" fill="#262930"/>
  <path d="M966.201 92.772a2.394 2.394 0 010 4.786 2.395 2.395 0 01-2.393-2.393 2.391 2.391 0 012.393-2.393zM180.381 103.654a2.392 2.392 0 10-3.384 3.384 2.394 2.394 0 003.384-3.384zM676.687 181.343v-1.591l142.063.01 47.56 47.568 126.875.01v1.59l-127.534-.009-47.56-47.569-141.404-.009z" fill="#262930"/>
  <path d="M993.065 225.742a2.394 2.394 0 110 4.784 2.394 2.394 0 010-4.784zM676.806 178.155a2.394 2.394 0 10.001 4.787 2.394 2.394 0 00-.001-4.787zM604.449 139.062v-1.591l212.967.015 58.133 58.135 90.761.007-.001 1.592-91.419-.008-58.132-58.134-212.309-.016z" fill="#262930"/>
  <path d="M966.19 194.031a2.394 2.394 0 11-.002 4.784 2.394 2.394 0 01.002-4.784zM604.568 135.874a2.394 2.394 0 10.002 4.788 2.394 2.394 0 00-.002-4.788zM686.859 115.642l-1.125-1.125 32.535-32.536 140.699.01 23.785 23.785 166.497.013v1.59l-167.156-.012-23.785-23.785-139.38-.01-32.07 32.07z" fill="#262930"/>
  <path d="M1049.13 104.191a2.394 2.394 0 110 4.786 2.391 2.391 0 01-2.39-2.393 2.392 2.392 0 012.39-2.393zM594.69 116.686a2.393 2.393 0 103.384-3.384 2.393 2.393 0 00-3.384 3.384zM873.357 138.697l1.125-1.125 21.063 21.057 81.956.006.001 1.59-82.615-.005-21.53-21.523z" fill="#262930"/>
  <path d="M977.381 157.038a2.394 2.394 0 11-.002 4.788 2.394 2.394 0 01.002-4.788zM875.076 136.528a2.393 2.393 0 10-3.384 3.384 2.393 2.393 0 003.384-3.384zM236.174 275.09l-1.125-1.125 48.814-48.814 299.391.023 52.01 52.01 154.624.011v1.591l-155.284-.011-52.009-52.01-298.072-.023-48.349 48.348z" fill="#262930"/>
  <path d="M789.769 275.598a2.394 2.394 0 010 4.786 2.394 2.394 0 010-4.786zM234.004 276.135a2.393 2.393 0 103.384-3.384 2.393 2.393 0 00-3.384 3.384zM300.981 259.399v-1.59l271.206.018v1.591l-271.206-.019z" fill="#262930"/>
  <path d="M572.068 256.23a2.394 2.394 0 11-.002 4.784 2.394 2.394 0 01.002-4.784zM301.101 256.21a2.394 2.394 0 10.002 4.788 2.394 2.394 0 00-.002-4.788zM297.312 183.819l-1.687-1.688 23.178-23.174 187.512.014 28.433 28.433 102.499.007 6.823 10.234 53.959.004.001 2.386-55.236-.004-6.823-10.234-102.212-.007-28.433-28.433-185.534-.014-22.48 22.476z" fill="#262930"/>
  <path d="M697.85 198.254a3.59 3.59 0 110 7.178 3.59 3.59 0 010-7.178zM294.057 180.309a3.59 3.59 0 005.077 5.077 3.59 3.59 0 00-5.077-5.077zM316.187 97.745l-20.229-20.23 1.687-1.687 19.531 19.531 141.888.01 41.072-41.066 129.47.009 23.17 23.17 45.245.004-.001 2.386-46.232-.003-23.171-23.171-127.492-.008-41.072 41.065-143.866-.01z" fill="#262930"/>
  <path d="M697.841 75.09a3.59 3.59 0 110 7.178 3.59 3.59 0 010-7.178zM299.466 74.261a3.59 3.59 0 10-5.076 5.075 3.59 3.59 0 005.076-5.075zM246.113 169.122l-1.687-1.688 9.607-9.607 35.632.003 14.922-14.923 209.158.016 27.735 27.739 93.381.009 14.743 14.743 60.692.005v2.385l-61.68-.004-14.744-14.743-93.381-.008-27.735-27.74-207.18-.015-14.922 14.922-35.632-.003-8.909 8.909z" fill="#262930"/>
  <path d="M710.116 186.022a3.59 3.59 0 010 7.178 3.59 3.59 0 010-7.178zM242.858 165.613a3.59 3.59 0 105.078 5.075 3.59 3.59 0 00-5.078-5.075zM234.37 96.158l-11.251-11.252 1.687-1.687 10.553 10.552 60.908.004 19.133 19.132 148.211.013 44.576-44.577 116.834.009 17.557 17.556 71.924.004-.001 2.387-72.912-.005-17.556-17.556-114.857-.008-44.576 44.576-150.188-.011-19.134-19.134-60.908-.003z" fill="#262930"/>
  <path d="M714.322 83.516a3.589 3.589 0 110 7.177 3.589 3.589 0 010-7.177zM226.628 81.652a3.59 3.59 0 10-5.076 5.075 3.59 3.59 0 005.076-5.075zM302.245 126.69l-11.397-11.401 1.688-1.688 10.697 10.703 164.476.012 42.355-42.362 101.618.007 16.384 16.39 78.482.007.001 2.387-79.471-.006-16.385-16.392-99.639-.007-42.356 42.362-166.453-.012z" fill="#262930"/>
  <path d="M706.368 98.961a3.588 3.588 0 11.001 7.177 3.588 3.588 0 01-.001-7.177zM294.357 112.034a3.59 3.59 0 10-5.076 5.076 3.59 3.59 0 005.076-5.076zM557.033 157.09l-.001-2.387 73.615.006 25.275 25.279 64.903.005-.001 2.386-65.891-.005-25.274-25.279-72.626-.005z" fill="#262930"/>
  <path d="M720.645 177.597a3.589 3.589 0 110 7.177 3.589 3.589 0 010-7.177zM557.212 152.307a3.59 3.59 0 100 7.178 3.59 3.59 0 000-7.178zM518.644 134.621l-.001-2.386 111.295.008 30.894 30.894 45.711.004v2.385l-46.7-.003-30.894-30.894-110.305-.008z" fill="#262930"/>
  <path d="M706.363 160.745a3.59 3.59 0 110 7.178 3.59 3.59 0 010-7.178zM518.822 129.84a3.588 3.588 0 100 7.177 3.589 3.589 0 100-7.177zM514.51 120.391l-1.688-1.687 15.959-15.959 75.41.007 12.639 12.639 85.964.007v2.385l-86.952-.006-12.64-12.639-73.432-.007-15.26 15.26z" fill="#262930"/>
  <path d="M702.614 113.001a3.59 3.59 0 01.001 7.178 3.59 3.59 0 01-.001-7.178zM511.255 116.884a3.589 3.589 0 105.077 5.079 3.589 3.589 0 00-5.077-5.079zM649.731 135.758l1.688-1.687 9.41 9.408 41.033.002.001 2.387-42.023-.003-10.109-10.107z" fill="#262930"/>
  <path d="M701.682 141.087a3.588 3.588 0 013.589 3.589 3.586 3.586 0 01-3.588 3.588 3.588 3.588 0 01-3.589-3.589 3.586 3.586 0 013.588-3.588zM653.239 132.502a3.59 3.59 0 10-5.074 5.078 3.59 3.59 0 005.074-5.078zM322.831 202.128l-1.688-1.687 24.611-24.611 159.743.012 27.64 27.639 79.651.007-.001 2.387-80.639-.007-27.64-27.64-157.765-.012-23.912 23.912z" fill="#262930"/>
  <path d="M612.608 204.092a3.59 3.59 0 110 7.178 3.59 3.59 0 010-7.178zM319.577 198.62a3.589 3.589 0 105.076 5.077 3.59 3.59 0 00-5.076-5.077zM357.373 208.572v-2.388l139.722.011.001 2.387-139.723-.01zM496.916 193.8a3.59 3.59 0 11.001 7.179 3.59 3.59 0 01-.001-7.179z" fill="#262930"/>
  <path d="M357.552 203.789a3.589 3.589 0 100 7.177 3.589 3.589 0 000-7.177z" fill="#262930"/>
</svg>