<svg xmlns="http://www.w3.org/2000/svg" width="947" height="290" viewBox="0 0 947 290" fill="none"><style xmlns="" class="adjust-screen-brightness" media="screen"/>
  <g opacity=".5" fill="#262930">
    <path d="M139.307 249.813l-1.125-1.125 46.121-46.112 351.644.025 53.503 53.503 192.699.013 12.841 19.258 106.454.009v1.591l-107.304-.007-12.843-19.259-192.507-.014-53.502-53.503-350.326-.025-45.655 45.646z"/>
    <path d="M901.325 273.787a2.394 2.394 0 010 4.786 2.394 2.394 0 010-4.786zM137.138 247.473a2.392 2.392 0 103.384 3.384 2.392 2.392 0 10-3.384-3.384zM179.382 78.847L138.81 38.275l1.125-1.124 40.106 40.105 268.195.02L525.521 0l242.423.019 43.601 43.6 89.882.006v1.59l-90.541-.005-43.601-43.6-241.105-.02-77.285 77.277-269.513-.02z"/>
    <path d="M899.615 46.112a2.393 2.393 0 103.384-3.383 2.393 2.393 0 00-3.384 3.383zM141.149 36.105a2.392 2.392 0 10-3.384 3.384 2.393 2.393 0 003.384-3.384zM42.965 222.158l-1.125-1.125 20.583-20.583 67.048.005 28.081-28.079 392.376.029 52.188 52.198 175.72.013 27.744 27.744 118.945.009v1.591l-119.604-.009-27.745-27.744-175.718-.012-52.189-52.199-391.058-.029-28.081 28.079-67.047-.005-20.118 20.117z"/>
    <path d="M924.406 250.771a2.393 2.393 0 110 4.786 2.393 2.393 0 010-4.786zM40.796 219.818a2.393 2.393 0 103.385 3.384 2.393 2.393 0 00-3.385-3.384zM25.422 75.86L1.746 52.184l1.125-1.125 23.21 23.21 114.614.009 36.003 36.002 280.09.021 83.88-83.88 218.652.015 33.036 33.035 140.084.012v1.59l-140.743-.011-33.037-33.035-217.333-.015-83.879 83.88-281.41-.021-36.002-36.002-114.614-.009z"/>
    <path d="M932.319 57.884a2.394 2.394 0 110 4.784 2.394 2.394 0 010-4.784zM.701 53.398a2.393 2.393 0 103.384-3.384 2.393 2.393 0 00-3.384 3.384zM153.146 138.958l-23.95-23.959 1.125-1.125 23.484 23.493 310.697.024 79.703-79.714 190.012.014 30.834 30.843 152.424.012v1.59l-153.084-.011-30.833-30.843-188.693-.014-79.703 79.714-312.016-.024z"/>
    <path d="M917.355 86.948a2.394 2.394 0 01.001 4.786 2.394 2.394 0 01-.001-4.786zM131.536 112.83a2.394 2.394 0 10-3.386 3.385 2.394 2.394 0 003.386-3.385zM627.841 190.519v-1.591l142.064.009 47.559 47.569 126.875.009v1.591l-127.534-.009-47.56-47.569-141.404-.009z"/>
    <path d="M944.22 234.918a2.394 2.394 0 11-.002 4.784 2.394 2.394 0 01.002-4.784zM627.96 187.33a2.394 2.394 0 10.002 4.788 2.394 2.394 0 00-.002-4.788zM555.603 148.238v-1.591l212.968.015 58.132 58.134 90.761.007-.001 1.592-91.419-.008-58.131-58.133-212.31-.016z"/>
    <path d="M917.344 203.207a2.394 2.394 0 010 4.786 2.394 2.394 0 010-4.786zM555.722 145.049a2.394 2.394 0 10.002 4.788 2.394 2.394 0 00-.002-4.788zM548.013 124.817l-1.125-1.125 32.536-32.535 140.699.01 23.785 23.785 166.5.012v1.591l-167.16-.012-23.785-23.785-139.38-.01-32.07 32.069z"/>
    <path d="M910.289 113.367a2.394 2.394 0 11-.002 4.784 2.394 2.394 0 01.002-4.784zM545.844 125.861a2.393 2.393 0 103.385-3.383 2.393 2.393 0 00-3.385 3.383zM804.511 147.873l1.125-1.125 21.063 21.056 81.957.006v1.591l-82.615-.005-21.53-21.523z"/>
    <path d="M908.535 166.214a2.394 2.394 0 01.001 4.786 2.394 2.394 0 01-2.393-2.393 2.39 2.39 0 012.392-2.393zM806.849 145.704a2.394 2.394 0 10-3.385 3.385 2.394 2.394 0 003.385-3.385zM187.329 284.265l-1.126-1.125 48.814-48.814 299.391.024 52.01 52.009 154.624.012.001 1.591-155.284-.012-52.01-52.01-298.072-.023-48.348 48.348z"/>
    <path d="M740.923 284.773a2.394 2.394 0 11-.002 4.784 2.394 2.394 0 01.002-4.784zM185.158 285.31a2.393 2.393 0 103.385-3.381 2.393 2.393 0 00-3.385 3.381zM252.135 268.575v-1.591l271.206.019v1.591l-271.206-.019z"/>
    <path d="M523.222 265.405a2.394 2.394 0 11-.001 4.785 2.394 2.394 0 01.001-4.785zM252.255 265.385a2.394 2.394 0 10.002 4.788 2.394 2.394 0 00-.002-4.788zM248.466 192.994l-1.687-1.687 23.178-23.175 187.512.014 28.433 28.433 102.499.008 6.823 10.234 53.959.004.002 2.386-55.237-.004-6.823-10.234-102.212-.008-28.433-28.432-185.534-.014-22.48 22.475z"/>
    <path d="M649.004 207.429a3.59 3.59 0 110 7.179 3.59 3.59 0 010-7.179zM245.212 189.485a3.589 3.589 0 105.074 5.076 3.589 3.589 0 00-5.074-5.076zM267.341 106.921l-20.229-20.23 1.687-1.687 19.531 19.531 141.888.009 41.072-41.065 129.47.008 23.17 23.17 45.245.005-.001 2.386-46.232-.004-23.171-23.17-127.492-.009-41.072 41.065-143.866-.009z"/>
    <path d="M648.995 84.265a3.59 3.59 0 110 7.179 3.59 3.59 0 010-7.179zM250.62 83.437a3.59 3.59 0 10-5.076 5.075 3.59 3.59 0 005.076-5.075zM197.267 178.297l-1.687-1.687 9.607-9.607 35.632.002 14.922-14.922 209.158.015 27.735 27.74 93.381.008 14.744 14.744 60.691.004v2.385l-61.68-.003-14.744-14.744-93.381-.008-27.735-27.74-207.18-.015-14.922 14.923-35.632-.003-8.909 8.908z"/>
    <path d="M661.27 195.198a3.59 3.59 0 110 7.178 3.59 3.59 0 010-7.178zM194.012 174.788a3.59 3.59 0 105.078 5.075 3.59 3.59 0 00-5.078-5.075zM185.524 105.333l-11.251-11.251 1.687-1.688 10.553 10.553 60.908.003 19.133 19.133 148.211.012 44.576-44.576 116.835.008 17.556 17.557 71.924.004v2.386l-72.913-.004-17.556-17.556-114.857-.009-44.576 44.576-150.188-.011-19.134-19.134-60.908-.003z"/>
    <path d="M665.476 92.692a3.589 3.589 0 110 7.177 3.589 3.589 0 010-7.177zM177.782 90.828a3.59 3.59 0 10-5.076 5.075 3.59 3.59 0 005.076-5.076zM253.399 135.865l-11.396-11.401 1.687-1.687 10.698 10.702 164.475.012 42.356-42.362 101.617.008 16.384 16.39 78.483.006v2.387l-79.47-.005-16.386-16.392-99.639-.008-42.356 42.363-166.453-.013z"/>
    <path d="M657.523 108.137a3.59 3.59 0 110 7.178 3.59 3.59 0 010-7.178zM245.511 121.21a3.59 3.59 0 10-5.077 5.075 3.59 3.59 0 005.077-5.075zM508.187 166.265l-.001-2.386 73.616.005 25.274 25.28 64.903.004-.001 2.387-65.891-.005-25.274-25.279-72.626-.006z"/>
    <path d="M671.799 186.772a3.589 3.589 0 110 7.177 3.589 3.589 0 010-7.177zM508.366 161.483a3.588 3.588 0 100 7.177 3.59 3.59 0 000-7.177zM469.799 143.797l-.002-2.387 111.295.009 30.894 30.893 45.711.005v2.385l-46.7-.004-30.893-30.893-110.305-.008z"/>
    <path d="M657.517 169.92a3.59 3.59 0 110 7.178 3.59 3.59 0 010-7.178zM469.976 139.015a3.589 3.589 0 100 7.177 3.589 3.589 0 000-7.177zM465.664 129.567l-1.688-1.688 15.959-15.958 75.41.006 12.639 12.64 85.964.006v2.385l-86.952-.005-12.64-12.64-73.432-.006-15.26 15.26z"/>
    <path d="M653.768 122.177a3.59 3.59 0 110 7.178 3.59 3.59 0 010-7.178zM462.409 126.06a3.59 3.59 0 105.077 5.076 3.59 3.59 0 00-5.077-5.076zM600.885 144.934l1.688-1.688 9.41 9.408 41.034.002v2.388l-42.023-.004-10.109-10.106z"/>
    <path d="M652.836 150.262a3.589 3.589 0 110 7.177 3.589 3.589 0 010-7.177zM604.393 141.678a3.588 3.588 0 10-5.074 5.076 3.588 3.588 0 005.074-5.076zM273.985 211.304l-1.688-1.688 24.611-24.61 159.743.011 27.64 27.64 79.651.007-.001 2.386-80.639-.007-27.639-27.64-157.766-.011-23.912 23.912z"/>
    <path d="M563.762 213.268a3.589 3.589 0 110 7.177 3.589 3.589 0 010-7.177zM270.731 207.796a3.589 3.589 0 105.074 5.076 3.589 3.589 0 00-5.074-5.076zM308.527 217.747v-2.387l139.723.01v2.388l-139.723-.011zM448.071 202.975a3.59 3.59 0 110 7.178 3.59 3.59 0 010-7.178z"/>
    <path d="M308.706 212.965a3.588 3.588 0 100 7.177 3.59 3.59 0 000-7.177z"/>
  </g>
</svg>