<svg width="24" height="24" viewBox="0 0 24 24" fill="none" xmlns="http://www.w3.org/2000/svg">
<path fill-rule="evenodd" clip-rule="evenodd" d="M6 0C2.68629 0 0 2.68629 0 6V18C0 21.3137 2.68629 24 6 24H18C21.3137 24 24 21.3137 24 18V6C24 2.68629 21.3137 0 18 0H6ZM14.7 12C14.7 13.4912 13.4912 14.7 12 14.7C10.5088 14.7 9.3 13.4912 9.3 12C9.3 10.5088 10.5088 9.3 12 9.3C13.4912 9.3 14.7 10.5088 14.7 12ZM16.5 12C16.5 14.4853 14.4853 16.5 12 16.5C9.51472 16.5 7.5 14.4853 7.5 12C7.5 9.51472 9.51472 7.5 12 7.5C14.4853 7.5 16.5 9.51472 16.5 12ZM18.3 7.05001C18.3 7.7956 17.6956 8.40001 16.95 8.40001C16.2044 8.40001 15.6 7.7956 15.6 7.05001C15.6 6.30443 16.2044 5.70001 16.95 5.70001C17.6956 5.70001 18.3 6.30443 18.3 7.05001ZM6.6 3C4.61177 3 3 4.61178 3 6.6V17.4C3 19.3882 4.61178 21 6.6 21H17.4C19.3882 21 21 19.3882 21 17.4V6.6C21 4.61177 19.3882 3 17.4 3H6.6ZM4.8 6.6C4.8 5.60589 5.60589 4.8 6.6 4.8H17.4C18.3941 4.8 19.2 5.60589 19.2 6.6V17.4C19.2 18.3941 18.3941 19.2 17.4 19.2H6.6C5.60589 19.2 4.8 18.3941 4.8 17.4V6.6Z" fill="white"/>
</svg>
