<svg width="80" height="80" viewBox="0 0 80 80" fill="none" xmlns="http://www.w3.org/2000/svg">
<circle cx="40" cy="40" r="40" fill="#F0EDFB"/>
<path d="M41.9609 30.1149L41.6618 29.4271L41.9609 30.1149ZM42.1412 30.2965L41.4353 30.0432L42.1412 30.2965ZM37.0858 38.7468L37.0566 39.4962L37.0858 38.7468ZM37.236 38.5833L37.9838 38.5256L37.236 38.5833ZM46.1581 36.3851L45.6646 36.95L46.1581 36.3851ZM45.9239 36.4429L46.6208 36.72L45.9239 36.4429ZM33.2563 35.2674L32.6814 34.7857L33.2563 35.2674ZM33.5136 35.3626L34.2614 35.3056L33.5136 35.3626ZM47.75 41.8182C47.75 45.876 44.2165 49.25 39.75 49.25V50.75C44.9485 50.75 49.25 46.7977 49.25 41.8182H47.75ZM39.75 49.25C35.2835 49.25 31.75 45.876 31.75 41.8182H30.25C30.25 46.7977 34.5515 50.75 39.75 50.75V49.25ZM31.75 41.8182C31.75 40.7938 31.9998 39.59 32.3987 38.4647C32.7992 37.3348 33.3257 36.3523 33.8312 35.7491L32.6814 34.7857C32.0232 35.5713 31.4216 36.7315 30.9849 37.9635C30.5466 39.2 30.25 40.5772 30.25 41.8182H31.75ZM45.6646 36.95C46.4321 37.6205 46.9424 38.3025 47.267 39.063C47.5931 39.8273 47.75 40.7139 47.75 41.8182H49.25C49.25 40.572 49.0729 39.4732 48.6466 38.4743C48.2187 37.4715 47.558 36.6123 46.6515 35.8203L45.6646 36.95ZM37.115 37.9974C35.6911 37.9419 34.3939 37.041 34.2614 35.3056L32.7658 35.4197C32.9674 38.0619 35.0288 39.4172 37.0566 39.4962L37.115 37.9974ZM41.6618 29.4271C40.4198 29.9671 36.0035 32.3584 36.4882 38.641L37.9838 38.5256C37.5731 33.2024 41.2397 31.2463 42.2599 30.8027L41.6618 29.4271ZM43.5 38C43.0918 38 42.7947 37.8588 42.5626 37.6051C42.3131 37.3324 42.0993 36.8829 41.9888 36.2192C41.7668 34.8863 42.0001 32.9105 42.8471 30.5498L41.4353 30.0432C40.5417 32.5335 40.2292 34.7845 40.5092 36.4656C40.6496 37.3089 40.9487 38.0632 41.4558 38.6175C41.9802 39.1908 42.683 39.5 43.5 39.5V38ZM45.2269 36.1658C45.0562 36.5952 44.8458 37.0752 44.5428 37.4462C44.2548 37.7988 43.9299 38 43.5 38V39.5C44.5119 39.5 45.227 38.9799 45.7046 38.3951C46.1672 37.8286 46.4478 37.1552 46.6208 36.72L45.2269 36.1658ZM42.2599 30.8027C42.0176 30.9081 41.7439 30.8406 41.5736 30.6661C41.4121 30.5005 41.3583 30.2577 41.4353 30.0432L42.8471 30.5498C42.9667 30.2165 42.8806 29.8578 42.6472 29.6185C42.405 29.3703 42.0199 29.2714 41.6618 29.4271L42.2599 30.8027ZM37.0566 39.4962C37.6399 39.519 38.0213 39.0126 37.9838 38.5256L36.4882 38.641C36.4642 38.3299 36.7079 37.9815 37.115 37.9974L37.0566 39.4962ZM46.6515 35.8203C46.1766 35.4054 45.452 35.5998 45.2269 36.1658L46.6208 36.72C46.4714 37.0959 45.9855 37.2302 45.6646 36.95L46.6515 35.8203ZM33.8312 35.7491C33.6466 35.9693 33.3589 36.0086 33.146 35.9274C32.9452 35.8507 32.7842 35.6613 32.7658 35.4197L34.2614 35.3056C34.2328 34.9306 33.9861 34.6424 33.6806 34.5259C33.3631 34.4048 32.9518 34.463 32.6814 34.7857L33.8312 35.7491Z" fill="#7C6CC5"/>
</svg>
