<svg width="79" height="32" fill="none" xmlns="http://www.w3.org/2000/svg"><g clip-path="url(#a)"><path d="M8 32h71V0H8v32Z" fill="#fff"/><path d="M16.933 16.508v4.487h2.765c.658 0 1.203-.221 1.636-.664a2.15 2.15 0 0 0 .664-1.578c0-.598-.221-1.12-.664-1.562-.433-.455-.978-.683-1.636-.683h-2.765Zm0 6.068v5.204H15.28V14.93h4.382c1.114 0 2.059.37 2.839 1.112.79.743 1.186 1.645 1.186 2.711 0 1.09-.396 1.997-1.186 2.727-.767.73-1.712 1.096-2.839 1.096h-2.73Zm9.034 2.51c0 .432.182.792.549 1.08.363.286.793.428 1.282.428.694 0 1.315-.257 1.86-.772.545-.512.816-1.116.816-1.813-.515-.406-1.232-.607-2.154-.607-.67 0-1.23.158-1.679.482-.45.323-.674.726-.674 1.202Zm2.138-6.386c1.22 0 2.184.324 2.892.977.707.65 1.06 1.546 1.06 2.681v5.422h-1.583v-1.222h-.069c-.684 1.007-1.596 1.509-2.733 1.509-.968 0-1.78-.287-2.432-.862-.654-.574-.978-1.294-.978-2.152 0-.912.344-1.635 1.031-2.173.69-.538 1.61-.809 2.756-.809.985 0 1.791.182 2.425.538v-.376c0-.575-.227-1.06-.68-1.463a2.35 2.35 0 0 0-1.6-.6c-.922 0-1.652.389-2.19 1.165l-1.455-.915c.8-1.149 1.986-1.72 3.556-1.72Zm16.13 9.222c-.72 0-1.316-.221-1.788-.664-.473-.442-.717-1.06-.727-1.849v-4.916h-1.547v-1.509h1.547v-2.69h1.652v2.69h2.155v1.51h-2.155v4.377c0 .588.112.984.34 1.195.228.208.486.314.774.314.132 0 .26-.017.386-.046.126-.03.242-.07.35-.116l.52 1.473c-.43.155-.932.23-1.507.23Zm-10.31-8.938h1.579v1.436h.073c.489-1.122 1.503-1.687 3.033-1.687l.344.037v1.723l-.737-.072c-.767 0-1.398.237-1.897.71-.495.471-.743 1.072-.743 1.802v4.847h-1.653v-8.796Zm13.271 0h1.582v1.222h.07c.251-.43.638-.79 1.16-1.077a3.319 3.319 0 0 1 1.626-.429c1.077 0 1.906.307 2.488.921.578.618.869 1.493.869 2.632v5.527h-1.652v-5.422c-.037-1.436-.76-2.152-2.171-2.152-.661 0-1.213.267-1.656.799-.443.531-.664 1.169-.664 1.911v4.864h-1.652v-8.796Zm11.047 3.338h5.046a2.186 2.186 0 0 0-.744-1.515c-.45-.4-1.05-.601-1.807-.601-.622 0-1.157.191-1.606.574-.45.383-.747.898-.89 1.542Zm2.64 5.745c-1.292 0-2.36-.442-3.196-1.33-.839-.885-1.258-2.001-1.258-3.355 0-1.34.406-2.457 1.222-3.348.813-.888 1.854-1.334 3.123-1.334 1.305 0 2.346.42 3.116 1.265.773.842 1.16 2.024 1.16 3.542l-.016.182h-6.917c.023.858.31 1.555.863 2.08.548.528 1.209.79 1.976.79 1.054 0 1.88-.526 2.478-1.58l1.47.717a4.345 4.345 0 0 1-1.642 1.74c-.7.42-1.493.63-2.379.63Zm7.33-.287h-1.656v-8.796h1.583v1.436h.073c.165-.465.508-.861 1.03-1.191.523-.33 1.035-.496 1.537-.496.48 0 .886.073 1.22.218l-.503 1.595c-.201-.082-.525-.125-.968-.125-.625 0-1.167.25-1.626.756a2.505 2.505 0 0 0-.69 1.756v4.847Z" fill="#777"/><path d="M19.024 7.422v1.12h2.684c-.086.71-.38 1.257-.88 1.653-.488.387-1.09.578-1.804.578-.83 0-1.526-.29-2.095-.868-.565-.575-.849-1.278-.849-2.113s.284-1.539.85-2.113c.568-.578 1.265-.868 2.094-.868.774 0 1.448.267 2.023.799l.793-.79c-.797-.756-1.735-1.132-2.816-1.132-.733 0-1.43.188-2.085.561a4.051 4.051 0 0 0-1.53 1.512 3.956 3.956 0 0 0-.552 2.03c0 .734.185 1.414.552 2.041a3.98 3.98 0 0 0 1.53 1.503 4.152 4.152 0 0 0 2.085.56c1.107 0 2.026-.346 2.753-1.04.724-.69 1.084-1.597 1.084-2.733 0-.267-.02-.502-.06-.7h-3.777Z" fill="#487CBF"/><path d="M26.968 10.393a1.387 1.387 0 0 1-1.05.463 1.4 1.4 0 0 1-1.064-.463c-.288-.307-.43-.686-.43-1.139 0-.468.142-.848.43-1.142a1.397 1.397 0 0 1 1.064-.459c.42 0 .773.152 1.06.46.288.293.43.673.43 1.141 0 .446-.146.826-.44 1.14Zm-1.05-3.783c-.757 0-1.388.254-1.894.763-.509.498-.763 1.125-.763 1.881 0 .74.258 1.367.77 1.88.509.508 1.137.762 1.887.762.746 0 1.374-.254 1.88-.763a2.55 2.55 0 0 0 .773-1.879c0-.756-.258-1.383-.773-1.881-.506-.509-1.134-.763-1.88-.763Z" fill="#EE362C"/><path d="M40.712 11.734h1.16V3.968h-1.16v7.766Z" fill="#00AC4E"/><path d="M32.758 10.393a1.389 1.389 0 0 1-1.054.463c-.42 0-.773-.155-1.06-.463-.288-.307-.43-.686-.43-1.139 0-.468.142-.848.43-1.142a1.395 1.395 0 0 1 1.06-.459c.423 0 .776.152 1.064.46.287.293.43.673.43 1.141 0 .446-.146.826-.44 1.14ZM31.704 6.61c-.754 0-1.385.254-1.89.763-.51.498-.764 1.125-.764 1.881 0 .74.258 1.367.774 1.88.505.508 1.133.762 1.88.762.75 0 1.378-.254 1.883-.763a2.547 2.547 0 0 0 .774-1.879c0-.756-.258-1.383-.774-1.881-.505-.509-1.133-.763-1.883-.763Z" fill="#FDB614"/><path d="M43.987 8.072c.294-.293.621-.439.981-.439.225 0 .43.05.612.156a.819.819 0 0 1 .37.402l-2.363.98c-.017-.445.119-.811.4-1.099Zm1.07 2.784c-.581 0-1.007-.268-1.282-.803l3.536-1.459-.119-.3a2.955 2.955 0 0 0-.367-.684 2.642 2.642 0 0 0-.515-.535 2.222 2.222 0 0 0-.641-.343 2.204 2.204 0 0 0-.74-.122c-.708 0-1.302.25-1.785.753-.472.505-.71 1.135-.71 1.891 0 .747.25 1.374.75 1.88.502.508 1.127.762 1.873.762.936 0 1.67-.39 2.205-1.172l-.903-.601c-.327.488-.76.733-1.302.733Z" fill="#EE362C"/><path d="M38.478 10.403a1.31 1.31 0 0 1-1.004.453c-.413 0-.764-.155-1.051-.463-.281-.307-.42-.683-.42-1.129 0-.455.142-.835.43-1.142.294-.314.64-.469 1.04-.469.404 0 .738.152 1.005.46.271.313.41.696.41 1.151 0 .446-.139.826-.41 1.14Zm.33-3.202h-.042c-.334-.393-.797-.591-1.392-.591-.68 0-1.275.26-1.78.782a2.593 2.593 0 0 0-.754 1.872c0 .72.251 1.34.753 1.86.512.514 1.107.772 1.781.772.595 0 1.058-.202 1.392-.601h.043v.27c0 1.107-.473 1.661-1.415 1.661a1.3 1.3 0 0 1-.8-.26 1.6 1.6 0 0 1-.532-.68l-1.01.419a2.504 2.504 0 0 0 1.583 1.446c.24.079.492.115.76.115.789 0 1.404-.237 1.846-.713.447-.479.668-1.159.668-2.037V6.772h-1.1V7.2ZM0 32h8.43V-.004H0v32.002Z" fill="#487CBF"/></g><defs><clipPath id="a"><path fill="#fff" d="M0 0h79v32H0z"/></clipPath></defs></svg>