<svg width="24" height="24" viewBox="0 0 24 24" fill="none" xmlns="http://www.w3.org/2000/svg">
<rect x="6" y="10.0001" width="12" height="10" rx="1.5" stroke="black" stroke-width="1.5" stroke-linecap="round" stroke-linejoin="round"/>
<path d="M7.25 10.0001C7.25 10.4143 7.58579 10.7501 8 10.7501C8.41421 10.7501 8.75 10.4143 8.75 10.0001H7.25ZM15.25 10.0001C15.25 10.4143 15.5858 10.7501 16 10.7501C16.4142 10.7501 16.75 10.4143 16.75 10.0001H15.25ZM8 8.00012C8.75 8.00012 8.75 8.00047 8.75 8.00081C8.75 8.0009 8.75 8.00122 8.75 8.00141C8.75 8.00178 8.75 8.00209 8.75 8.00235C8.74999 8.00285 8.74999 8.00313 8.74999 8.00318C8.74999 8.00327 8.75 8.00245 8.75002 8.00074C8.75008 7.99733 8.75022 7.9904 8.75056 7.98019C8.75124 7.95973 8.75272 7.92627 8.75591 7.88168C8.76229 7.79225 8.77543 7.65958 8.8023 7.49842C8.85661 7.17254 8.96384 6.7495 9.17082 6.33553C9.37633 5.9245 9.67283 5.53629 10.1035 5.24916C10.5295 4.96516 11.1312 4.75012 12 4.75012V3.25012C10.8688 3.25012 9.97047 3.53509 9.27147 4.00108C8.57717 4.46395 8.12367 5.07574 7.82918 5.66471C7.53616 6.25075 7.39339 6.8277 7.3227 7.25182C7.28707 7.46566 7.26896 7.6455 7.25972 7.77481C7.25509 7.8396 7.25266 7.89207 7.25139 7.93021C7.25076 7.9493 7.25041 7.96483 7.25022 7.97655C7.25013 7.98242 7.25007 7.98733 7.25004 7.99127C7.25002 7.99324 7.25001 7.99496 7.25001 7.99644C7.25 7.99718 7.25 7.99786 7.25 7.99847C7.25 7.99878 7.25 7.99919 7.25 7.99934C7.25 7.99974 7.25 8.00012 8 8.00012ZM12 4.75012C12.8688 4.75012 13.4705 4.96516 13.8965 5.24916C14.3272 5.53629 14.6237 5.9245 14.8292 6.33553C15.0362 6.7495 15.1434 7.17254 15.1977 7.49842C15.2246 7.65958 15.2377 7.79225 15.2441 7.88168C15.2473 7.92627 15.2488 7.95973 15.2494 7.98019C15.2498 7.9904 15.2499 7.99733 15.25 8.00074C15.25 8.00245 15.25 8.00327 15.25 8.00318C15.25 8.00313 15.25 8.00285 15.25 8.00235C15.25 8.00209 15.25 8.00178 15.25 8.00141C15.25 8.00122 15.25 8.0009 15.25 8.00081C15.25 8.00047 15.25 8.00012 16 8.00012C16.75 8.00012 16.75 7.99974 16.75 7.99934C16.75 7.99919 16.75 7.99878 16.75 7.99847C16.75 7.99786 16.75 7.99718 16.75 7.99644C16.75 7.99496 16.75 7.99324 16.75 7.99127C16.7499 7.98733 16.7499 7.98242 16.7498 7.97655C16.7496 7.96483 16.7492 7.9493 16.7486 7.93021C16.7473 7.89207 16.7449 7.8396 16.7403 7.77481C16.731 7.6455 16.7129 7.46566 16.6773 7.25182C16.6066 6.8277 16.4638 6.25075 16.1708 5.66471C15.8763 5.07574 15.4228 4.46395 14.7285 4.00108C14.0295 3.53509 13.1312 3.25012 12 3.25012V4.75012ZM7.25 8.00012V10.0001H8.75V8.00012H7.25ZM15.25 8.00012V10.0001H16.75V8.00012H15.25Z" fill="black"/>
<path d="M12 16.0001V13.0001" stroke="black" stroke-width="1.5" stroke-linecap="round" stroke-linejoin="round"/>
</svg>
