<svg xmlns="http://www.w3.org/2000/svg" xml:space="preserve" viewBox="0 0 221.5 48.2"><path fill="#eabc4c" d="m178.2 19.1-6-.6V11H167v2.8c0 5.8 2.3 7.8 5.1 8.7H167v6.9c0 6.7 3.3 9.4 9.7 9.4 6.4 0 9.7-2.7 9.7-9.4v-.9c.1-8-4.2-9-8.2-9.4zm3.1 15h-9.1V22.6c1 .3 2.1.5 3.1.6l6 .9v10zM193.6 11c-1.6 0-2.7 1.1-2.7 2.7s1.1 2.7 2.7 2.7 2.7-1.1 2.7-2.7c.1-1.6-1-2.7-2.7-2.7zm12.5 8v-4.7H201c0 6.7 3.3 9.4 9.7 9.4h2.1V19h-6.7zm0 4.1H201v6.3c0 6.7 3.3 9.4 9.7 9.4h2.1v-4.7h-6.7v-11zm-15 15.7h5.2V19h-5.2v19.8z"/><path fill="#191a34" d="m104.6 19.1-6-.6V11h-5.2v2.8c0 5.8 2.3 7.8 5.1 8.7h-5.1v16.3h5.2V22.6c1 .3 2.1.5 3.1.6l6 .9v14.7h5.2V28.5c0-8-4.3-9-8.3-9.4zM83 34.1h-6.2V19h-5.2v10.4c0 6.7 3.3 9.4 9.7 9.4h6.8V19H83v15.1zM65.6 19h-5.2v10.4c0 6.7 3.3 9.4 9.7 9.4h2.1v-4.7h-6.7V19zm87.6 0h-9.7v2.5c0 6.7 3.3 9.4 9.7 9.4h9.7v-2.5c0-6.8-3.3-9.4-9.7-9.4zm4.6 7.6h-9.2v-3.2h9.1v3.2zM120.5 11c-1.6 0-2.7 1.1-2.7 2.7s1.1 2.7 2.7 2.7 2.7-1.1 2.7-2.7-1.1-2.7-2.7-2.7zm-2.6 27.8h5.2V19h-5.2v19.8zM133 23.1h-5.2v6.3c0 6.7 3.3 9.4 9.7 9.4h2.1v-4.7H133v-11zm0-8.8h-5.2c0 6.7 3.3 9.4 9.7 9.4h2.1V19H133v-4.7zm15.6 15.9h-5.2c0 6 3.3 8.6 9.7 8.6h8.7v-4.7h-13.3v-3.9zM42.9 5.1a8.7 8.7 0 0 0-8.7 8.7H23.7l8.7-8.7H21.8a8.7 8.7 0 0 0-8.7 8.7H13a8.7 8.7 0 0 0-8.7 8.7h8.8V29c0 8.7 7.1 15.7 15.7 15.7h16v-31L53.5 5l-10.6.1zm-9.1 23a3.32 3.32 0 0 1 0-4.7l4.7 4.7a3.32 3.32 0 0 1-4.7 0z"/></svg>
