<svg version="1.1" id="Layer_1" xmlns="http://www.w3.org/2000/svg" x="0" y="0" viewBox="0 0 221.5 48.2" style="enable-background:new 0 0 221.5 48.2" xml:space="preserve"><style>.st0{fill:#fff}</style><path class="st0" d="m177.7 18.8-6.1-.6v-7.7h-5.2v2.9c0 6 2.3 8 5.1 8.9h-5.1v7c0 6.9 3.4 9.6 9.9 9.6s9.9-2.7 9.9-9.6v-.9c-.1-8.2-4.5-9.2-8.5-9.6m3.2 10.5v4.8h-9.3V22.3c1 .3 2.1.5 3.1.7l6.1.9.1 5.4zM193.3 10.5c-.4 0-.7 0-1.1.2-.3.1-.7.3-.9.6-.3.3-.5.6-.6.9-.1.3-.2.7-.2 1.1 0 .8.3 1.5.8 2s1.2.8 2 .8 1.4-.3 2-.8c.5-.5.8-1.2.8-2 0-.4 0-.8-.2-1.1-.1-.3-.3-.7-.6-.9-.3-.3-.6-.5-.9-.6-.3-.1-.7-.2-1.1-.2zM210.6 18.6H206v-4.8h-5.2c0 6.9 3.4 9.6 9.9 9.6h2.2v-4.8h-2.3z"/><path class="st0" d="M206 34.1V22.9h-5.2v6.5c0 6.9 3.4 9.6 9.9 9.6h2.2v-4.8l-6.9-.1zM195.9 18.6h-5.2V39h5.2V18.6zM103.2 18.8l-6.1-.6v-7.7h-5.2v2.9c0 6 2.3 8 5.1 8.9h-5.1V39h5.2V22.3c1 .3 2.1.5 3.1.7l6.1.9v15h5.2V28.4c0-8.2-4.4-9.2-8.3-9.6M119.2 10.5c-.4 0-.7 0-1.1.2-.3.1-.7.3-.9.6s-.5.6-.6.9c-.1.3-.2.7-.2 1.1 0 .8.3 1.5.8 2s1.2.8 2 .8c.7 0 1.4-.3 2-.8.5-.5.8-1.2.8-2 0-.4 0-.8-.2-1.1-.1-.3-.3-.7-.6-.9-.3-.3-.6-.5-.9-.6-.3-.1-.7-.2-1.1-.2M152.4 18.6h-9.9v2.5c0 6.9 3.4 9.6 9.9 9.6h9.9v-2.5c-.1-6.8-3.5-9.6-9.9-9.6m-4.7 7.8v-3.3h9.2v3.3h-9.2zM131.9 18.6v-4.8h-5.2c0 6.9 3.4 9.6 9.9 9.6h2.2v-4.8h-6.9z"/><path class="st0" d="M131.9 34.1V22.9h-5.2v6.5c0 6.9 3.4 9.6 9.9 9.6h2.2v-4.8l-6.9-.1zM121.9 18.6h-5.2V39h5.2V18.6zM81.3 34.1H75V18.6h-5.2v10.7c0 6.9 3.4 9.6 9.9 9.6h6.9V18.6h-5.2v15.5z"/><path class="st0" d="M63.6 34.1V18.6h-5.2v10.7c0 6.9 3.4 9.6 9.9 9.6h2.2v-4.8h-6.9zM147.7 34.1v-4h-5.2c0 6.1 3.4 8.8 9.9 8.8h8.8v-4.8h-13.5z"/><g><path class="st0" d="M13.4 13.7v-.1.1c-2.5 0-4.7.9-6.4 2.6s-2.6 4-2.6 6.4h9v6.8c0 2.2.4 4.3 1.2 6.3.8 2 2 3.8 3.5 5.3s3.3 2.7 5.3 3.5c2 .8 4.1 1.2 6.2 1.2h16.5V22.7H13.4v-9zm21.3 10 4.8 4.9c-.6.7-1.5 1-2.4 1-.9 0-1.8-.4-2.4-1-.6-.7-1-1.5-1-2.4 0-1 .4-1.9 1-2.5z"/><path d="M22.5 4.5c-5 0-9.1 4.1-9.2 9.1v9.2H46v-9.1l9.1-9.2H22.5z" style="fill:#d26d61"/><circle class="st0" cx="54.3" cy="5.4" r="3.1"/></g></svg>
