<svg xmlns="http://www.w3.org/2000/svg" viewBox="0 0 325 329" fill="none"><style xmlns="" class="adjust-screen-brightness" media="screen"/><path opacity=".5" d="M171.853 280.338c-26.768 1.225-53.549-7.796-74.863-23.82-4.9-3.747-9.693-7.711-13.92-12.227-8.212-8.829-15.317-18.727-20.58-29.585-11.872-24.156-14.112-52.575-7.176-78.484 2.155-8.36 5.84-16.24 9.742-23.915 8.79-16.9 21.145-32.228 36.956-43.086 16.376-11.423 36.064-17.79 55.957-19.123 9.333-.852 18.749-.3 27.997 1.081 3.54.649 7.033 1.526 10.525 2.367.493.12.987.264 1.469.408 1.866.54 3.769.949 5.587 1.658.253.06.771.168 1.024.228l.385.18c2.252.697 4.419 1.586 6.599 2.462.638.24 1.276.505 1.902.757 10.007 4.336 19.412 10.066 27.817 17.009 8.609 7.11 16.653 15.074 22.819 24.419 3.961 5.838 7.08 12.192 9.753 18.69 1.012 2.835 2.144 5.634 2.794 8.577 1.204 5.453 2.372 10.942 2.625 16.528.229 4.624-.554 9.201-1.24 13.753-2.144 13.465-6.635 26.63-13.752 38.305-9.537 15.868-24.011 28.444-40.472 36.804-13.86 6.967-28.984 11.603-44.458 13.117-.012 6.306.422 12.6.265 18.906-15.365-3.483-29.321-11.627-41.122-21.885-10.91-9.561-20.327-20.804-27.949-33.14-.421-.781-1.12-1.658-.578-2.571 7.02-15.567 19.544-28.215 34.102-36.972 10.886-6.498 22.771-11.459 35.21-14.077.024 6.882-.084 13.753.048 20.624 13.776-2.21 27.251-7.075 38.786-15.015 13.367-9.105 24.084-22.125 30.189-37.092.446-1.201 1.18-2.678.241-3.856-10.573-16.107-23.409-31.062-39.328-42.124-9.236-6.27-19.532-11.448-30.683-13.07-.252 4.637-.361 9.286-.409 13.934-.036 2.21.132 4.445-.253 6.643-2.794.384-5.647.024-8.453.312-13.619 1.081-26.564 6.51-37.956 13.862-13.282 8.684-24.842 19.855-34.318 32.539-10.718 14.03-17.894 31.11-18.388 48.876-.614 15.915 3.685 31.878 11.668 45.632 8.237 13.657 20.242 24.756 33.729 33.152 12.415 7.711 26.07 13.369 40.171 17.189 2.517.708 5.118 1.033 7.538 2.03z" fill="url(#paint0_linear)"/><path opacity=".3" d="M16.258 235.049l-.002-.003c-16.875-34.324-20.062-74.718-10.2-111.548l.001-.004c3.06-11.863 8.292-23.056 13.853-33.993 12.505-24.037 30.073-45.82 52.54-61.246l.003-.002C95.725 12.023 123.713 2.973 152 1.078l.012-.001c13.256-1.211 26.641-.428 39.798 1.536 4.371.801 8.691 1.847 13.02 2.895l1.952.472c.691.168 1.384.37 2.07.575l.004.001c.835.242 1.665.463 2.488.682 1.847.492 3.663.976 5.438 1.667l.032.013.034.008c.184.044.462.104.734.164h.004c.252.056.498.11.672.15l.502.235.032.014.032.01c2.968.918 5.834 2.073 8.729 3.239l.643.258h0l.011.004c.695.262 1.389.543 2.082.824l.614.249c14.226 6.163 27.595 14.307 39.542 24.174l.319-.386-.319.386c12.257 10.12 23.688 21.438 32.443 34.706l.003.005c5.622 8.282 10.053 17.304 13.857 26.546.29.813.586 1.622.882 2.428 1.18 3.222 2.346 6.407 3.08 9.728 1.718 7.778 3.374 15.565 3.733 23.479v.003c.296 5.99-.609 11.927-1.518 17.891l-.245 1.614c-3.048 19.142-9.433 37.848-19.544 54.431l-.002.003c-13.546 22.532-34.112 40.402-57.514 52.285-19.714 9.907-41.223 16.498-63.222 18.649l-.45.044-.001.452c-.008 3.877.103 7.751.213 11.616l.053 1.877c.119 4.286.214 8.562.126 12.839-21.577-5.018-41.198-16.502-57.828-30.954-15.516-13.595-28.91-29.581-39.753-47.124-.105-.193-.211-.375-.314-.551-.224-.385-.433-.744-.578-1.133-.195-.527-.22-.996.064-1.475l.015-.024.011-.025c9.962-22.085 27.742-40.046 48.432-52.489 15.308-9.136 31.998-16.13 49.458-19.883.009 3.27-.002 6.542-.013 9.815-.021 6.328-.042 12.658.08 18.982l.011.575.568-.091c19.705-3.161 38.993-10.12 55.515-21.488 19.139-13.035 34.487-31.675 43.231-53.107l.003-.008.003-.007c.061-.166.129-.339.198-.52.275-.71.59-1.523.737-2.326.188-1.029.122-2.133-.655-3.119-15.097-22.992-33.44-44.36-56.205-60.176l-.004-.003c-13.204-8.962-27.958-16.387-43.964-18.714l-.541-.079-.03.546c-.361 6.62-.516 13.255-.585 19.885-.014.878-.006 1.747.001 2.61.019 2.17.037 4.3-.294 6.42-1.834.223-3.694.23-5.586.223l-.422-.002c-1.87-.01-3.771-.019-5.66.175-19.525 1.55-38.062 9.33-54.352 19.84l-.003.002c-18.993 12.416-35.52 28.384-49.066 46.511-15.332 20.067-25.615 44.517-26.323 69.968-.879 22.792 5.279 45.644 16.707 65.327l.005.008c11.794 19.552 28.978 35.429 48.263 47.432l.001.001c17.75 11.023 37.269 19.107 57.419 24.564 1.309.368 2.64.666 3.954.96.5.112.998.223 1.49.337.933.217 1.855.446 2.762.713-37.161 1.042-74.178-11.706-103.783-33.957-6.98-5.336-13.788-10.967-19.787-17.376-11.683-12.557-21.784-26.627-29.264-42.057z" stroke="url(#paint1_linear)"/><defs><linearGradient id="paint0_linear" x1="165.356" y1="49.692" x2="165.356" y2="280.448" gradientUnits="userSpaceOnUse"><stop stop-color="#fff"/><stop offset="1" stop-color="#fff" stop-opacity="0"/></linearGradient><linearGradient id="paint1_linear" x1="162.5" y1="0" x2="162.5" y2="328.998" gradientUnits="userSpaceOnUse"><stop stop-color="#fff" stop-opacity="0"/><stop offset="1" stop-color="#fff"/></linearGradient></defs></svg>