<svg width="128" height="17" fill="none" xmlns="http://www.w3.org/2000/svg"><g clip-path="url(#clip0)" fill="#fff"><path d="M1.004 0H0v16.202h1.004V0zM17.346 0h-1.004v16.202h1.004V0z"/><path d="M15.31 16.202h-1.004V8.617H.669V7.585h14.64v8.617z"/><path d="M13.302 16.202h-1.004v-5.55H.67V9.65h12.633v6.553z"/><path d="M11.266 16.202h-1.004v-3.514H.67v-1.031h10.597v4.545z"/><path d="M7.055 12.382H6.051v3.82h1.004v-3.82zM5.048 12.633H4.043v3.541h1.004v-3.541zM3.012 12.465H2.008v3.737h1.004v-3.737zM16.676 8.617H2.036V0H3.04v7.585h13.636v1.032z"/><path d="M16.676 6.553H4.044V0h1.004v5.55h11.628v1.003z"/><path d="M16.676 4.546H6.08V0h1.004v3.514h9.593v1.032z"/><path d="M11.294 0H10.29v3.82h1.004V0zM13.302 0h-1.004v3.542h1.004V0zM15.338 0h-1.004v3.737h1.004V0zM38.567 6.414h-4.712V2.76h-3.347v10.68h3.347V9.677h4.712v3.764h3.347V2.761h-3.347v3.653zM67.848 5.8h8.84V2.76H64.502v10.681h12.186v-3.04h-8.84v-4.6zM124.654 2.76v4.602l-4.685-4.601h-3.347v10.68h3.347v-4.74l4.685 4.74H128V2.761h-3.346zM90.548 6.386h-5.02V2.761h-3.346v10.68h3.346V9.65h5.02v3.792h3.346V9.565h-3.123l3.151-3.179V2.761h-3.374v3.625zM58.395 2.76H47.519v10.681h3.346v-2.314h4.769v2.314h3.346V2.761h-.585zm-7.53 5.216V5.8h4.769v2.176h-4.769zM100.587 2.76h-.948v10.681h11.462v-3.04h-8.115v-.78h8.115V6.58h-8.115v-.78h8.142V2.76h-10.541z"/></g><defs><clipPath id="clip0"><path fill="#fff" d="M0 0h128v16.202H0z"/></clipPath></defs></svg>
