<svg width="45" height="32" fill="none" xmlns="http://www.w3.org/2000/svg"><path d="M27.138 7.614h-9.3v16.772h9.3V7.614Z" fill="#FF5F00"/><path d="M18.428 16a10.679 10.679 0 0 1 1.066-4.663 10.641 10.641 0 0 1 2.994-3.723 10.597 10.597 0 0 0-11.214-1.208 10.642 10.642 0 0 0-4.365 3.935 10.694 10.694 0 0 0 0 11.318 10.642 10.642 0 0 0 4.364 3.935 10.597 10.597 0 0 0 11.215-1.208 10.64 10.64 0 0 1-2.994-3.723A10.68 10.68 0 0 1 18.428 16Z" fill="#EB001B"/><path d="M39.685 16c0 2.001-.56 3.962-1.619 5.659a10.642 10.642 0 0 1-4.364 3.935 10.596 10.596 0 0 1-11.214-1.208 10.663 10.663 0 0 0 2.99-3.724 10.699 10.699 0 0 0-2.99-13.048 10.597 10.597 0 0 1 11.214-1.208 10.643 10.643 0 0 1 4.364 3.935A10.695 10.695 0 0 1 39.686 16Zm-1.014 6.61v-.344h.138v-.07h-.351v.07h.138v.344h.075Zm.682 0v-.414h-.107l-.124.284-.124-.284h-.108v.414h.076v-.313l.116.27h.08l.115-.27v.313h.076Z" fill="#F79E1B"/></svg>