<svg width="40" height="40" viewBox="0 0 40 40" fill="none" xmlns="http://www.w3.org/2000/svg">
<path d="M19.3425 5.57386C19.7192 5.24509 20.2808 5.24509 20.6575 5.57386L24.3098 8.76129C24.4744 8.90496 24.6815 8.99076 24.8995 9.00557L29.7359 9.33423C30.2347 9.36813 30.6319 9.76527 30.6658 10.2641L30.9944 15.1005C31.0092 15.3185 31.095 15.5256 31.2387 15.6902L34.4261 19.3425C34.7549 19.7192 34.7549 20.2808 34.4261 20.6575L31.2387 24.3098C31.095 24.4744 31.0092 24.6815 30.9944 24.8995L30.6658 29.7359C30.6319 30.2347 30.2347 30.6319 29.7359 30.6658L24.8995 30.9944C24.6815 31.0092 24.4744 31.095 24.3098 31.2387L20.6575 34.4261C20.2808 34.7549 19.7192 34.7549 19.3425 34.4261L15.6902 31.2387C15.5256 31.095 15.3185 31.0092 15.1005 30.9944L10.2641 30.6658C9.76527 30.6319 9.36813 30.2347 9.33423 29.7359L9.00557 24.8995C8.99076 24.6815 8.90496 24.4744 8.76129 24.3098L5.57386 20.6575C5.24509 20.2808 5.24509 19.7192 5.57386 19.3425L8.76129 15.6902C8.90496 15.5256 8.99076 15.3185 9.00557 15.1005L9.33423 10.2641C9.36813 9.76527 9.76527 9.36813 10.2641 9.33423L15.1005 9.00557C15.3185 8.99076 15.5256 8.90496 15.6902 8.76129L19.3425 5.57386Z" stroke="#9E9EB4" stroke-width="2" stroke-linecap="round"/>
<path d="M16.25 20L18.75 22.5L23.75 17.5" stroke="#9E9EB4" stroke-width="2" stroke-linecap="round" stroke-linejoin="round"/>
</svg>
