<svg width="24" height="24" fill="none" xmlns="http://www.w3.org/2000/svg"><path d="M11.94 0a12 12 0 10.12 24 12 12 0 00-.12-24zm4.97 7.22c.1 0 .32.03.46.14.1.09.16.2.17.33.02.1.04.3.02.47-.18 1.9-.96 6.5-1.36 8.63-.17.9-.5 1.2-.82 1.23-.7.06-1.22-.46-1.9-.9-1.05-.7-1.65-1.13-2.68-1.8-1.18-.78-.41-1.21.26-1.91.18-.19 3.25-2.98 3.3-3.23.02-.04.02-.15-.05-.22-.07-.06-.17-.04-.25-.02-.1.02-1.79 1.14-5.06 3.35-.48.33-.91.49-1.3.48a8.5 8.5 0 01-1.86-.45c-.76-.24-1.35-.37-1.3-.78.03-.22.32-.44.9-.67a556.4 556.4 0 016.99-3.01c3.33-1.39 4.02-1.63 4.48-1.64z" fill="#fff"/></svg>
