<svg width="50" height="32" fill="none" xmlns="http://www.w3.org/2000/svg"><g clip-path="url(#a)" fill="#fff"><path d="M21.667 23.725h-4.05l2.533-15.4h4.05l-2.533 15.4ZM36.35 8.7a10.131 10.131 0 0 0-3.633-.655c-4 0-6.817 2.097-6.834 5.095-.033 2.212 2.017 3.441 3.55 4.178 1.567.754 2.1 1.246 2.1 1.918-.017 1.032-1.267 1.507-2.433 1.507-1.617 0-2.484-.245-3.8-.819l-.534-.246-.566 3.457c.95.426 2.7.803 4.517.82 4.25 0 7.017-2.065 7.05-5.26.015-1.753-1.067-3.096-3.4-4.194-1.417-.705-2.285-1.18-2.285-1.9.017-.656.734-1.328 2.333-1.328a6.983 6.983 0 0 1 3.017.59l.367.164.55-3.326Zm5.383 9.57a4642.3 4642.3 0 0 0 1.617-4.31c-.017.033.333-.901.533-1.474l.283 1.327s.767 3.686.933 4.456h-3.366Zm5-9.946h-3.134c-.966 0-1.7.279-2.116 1.278l-6.017 14.123h4.25l.85-2.31h5.2c.117.54.484 2.31.484 2.31H50l-3.268-15.4Zm-32.5 0-3.966 10.502-.434-2.13c-.733-2.457-3.033-5.128-5.6-6.455l3.634 13.468h4.283l6.366-15.385h-4.283Z"/><path d="M6.583 8.324H.067L0 8.635c5.083 1.278 8.45 4.36 9.833 8.062L8.417 9.619c-.234-.984-.95-1.262-1.834-1.295Z"/></g><defs><clipPath id="a"><path fill="#fff" d="M0 0h50v32H0z"/></clipPath></defs></svg>