<svg width="193" height="47" viewBox="0 0 193 47" fill="none" xmlns="http://www.w3.org/2000/svg">
<path d="M24.3927 46.9764C18.9721 47.2259 13.5491 45.3887 9.23311 42.1252C8.24067 41.3619 7.27019 40.5546 6.4143 39.6348C4.75131 37.8367 3.31265 35.8209 2.24706 33.6093C-0.157206 28.6896 -0.61075 22.9015 0.793773 17.6246C1.23025 15.9219 1.9764 14.3171 2.76645 12.7539C4.54648 9.3118 7.04829 6.19021 10.2499 3.97868C13.5662 1.65216 17.553 0.355576 21.5812 0.0840267C23.471 -0.0896668 25.3778 0.022867 27.2505 0.304202C27.9674 0.436307 28.6745 0.614893 29.3817 0.78614C29.4816 0.810604 29.5816 0.83996 29.6792 0.869317C30.0571 0.979405 30.4424 1.06258 30.8106 1.20692C30.8618 1.21915 30.9666 1.24117 31.0178 1.2534L31.0959 1.2901C31.5519 1.43199 31.9908 1.61302 32.4321 1.79161C32.5614 1.84053 32.6906 1.89435 32.8174 1.94573C34.8437 2.82887 36.7481 3.9958 38.4501 5.40981C40.1936 6.85807 41.8224 8.48003 43.0709 10.3833C43.8731 11.5723 44.5047 12.8664 45.046 14.1899C45.2508 14.7672 45.48 15.3373 45.6117 15.9366C45.8556 17.0473 46.0921 18.1653 46.1433 19.3028C46.1896 20.2447 46.0311 21.1768 45.8921 22.104C45.4581 24.8464 44.5486 27.5276 43.1075 29.9055C41.1763 33.1372 38.2453 35.6985 34.912 37.4012C32.1054 38.8201 29.0427 39.7644 25.9094 40.0727C25.9069 41.357 25.9947 42.6389 25.963 43.9233C22.8516 43.2138 20.0255 41.5552 17.6359 39.466C15.4267 37.5187 13.5198 35.2288 11.9763 32.7164C11.891 32.5574 11.7495 32.3788 11.8593 32.1929C13.2809 29.0223 15.8168 26.4463 18.7648 24.6629C20.9692 23.3394 23.3759 22.329 25.8947 21.7957C25.8996 23.1975 25.8777 24.5968 25.9045 25.9962C28.694 25.546 31.4226 24.5552 33.7586 22.9382C36.4653 21.0838 38.6354 18.4319 39.8717 15.3837C39.9619 15.1391 40.1107 14.8382 39.9205 14.5984C37.7796 11.3178 35.1802 8.27209 31.9566 6.01896C30.0864 4.74195 28.0015 3.68756 25.7436 3.35729C25.6924 4.3016 25.6704 5.24835 25.6607 6.1951C25.6533 6.64524 25.6875 7.10027 25.6095 7.54796C25.0437 7.62624 24.4658 7.55285 23.8977 7.61156C21.1399 7.83174 18.5186 8.9375 16.2118 10.4347C13.5223 12.2034 11.1814 14.4786 9.26237 17.062C7.09218 19.9193 5.63889 23.3981 5.53892 27.0163C5.41456 30.2578 6.28507 33.509 7.90173 36.3101C9.56961 39.0917 12.0007 41.3521 14.7317 43.0622C17.2457 44.6327 20.0109 45.785 22.8662 46.5629C23.3759 46.7073 23.9026 46.7733 24.3927 46.9764Z" fill="#202327"/>
<path d="M59.0971 32.6866L53.9009 14.4683H58.0949L61.1015 27.1259H61.2527L64.5689 14.4683H68.1607L71.4672 27.1528H71.6257L74.6322 14.4683H78.8263L73.63 32.6866H69.8895L66.4319 20.7751H66.2904L62.8425 32.6866H59.0971Z" fill="#202327"/>
<path d="M84.5784 24.7872V32.6866H80.8013V14.4683H84.4711V21.4332H84.6296C84.9368 20.6259 85.4342 19.9947 86.1194 19.5348C86.8046 19.0749 87.6654 18.8449 88.6993 18.8449C89.6454 18.8449 90.472 19.0504 91.1767 19.4638C91.8838 19.8773 92.4325 20.4669 92.825 21.235C93.2176 22.0032 93.4127 22.9206 93.4054 23.9872V32.6866H89.6283V24.6624C89.6332 23.8209 89.4235 23.1652 88.9943 22.6955C88.5651 22.2283 87.9677 21.9934 87.1996 21.9934C86.6851 21.9934 86.2316 22.1035 85.839 22.3237C85.4464 22.5438 85.1392 22.8619 84.9173 23.2802C84.6978 23.6985 84.5832 24.2001 84.5784 24.7872Z" fill="#202327"/>
<path d="M98.2919 17.2621C97.7311 17.2621 97.2483 17.0738 96.8459 16.697C96.4436 16.3203 96.2437 15.8677 96.2437 15.3393C96.2437 14.8182 96.4436 14.3681 96.8459 13.9913C97.2483 13.6146 97.7262 13.4262 98.2821 13.4262C98.8503 13.4262 99.3331 13.6146 99.7305 13.9913C100.13 14.3681 100.328 14.8182 100.328 15.3393C100.328 15.8677 100.128 16.3203 99.7305 16.697C99.3355 17.0738 98.8552 17.2621 98.2919 17.2621ZM96.3875 32.6866V19.0235H100.165V32.6866H96.3875Z" fill="#202327"/>
<path d="M110.421 19.0236V21.8712H102.22V19.0236H110.421ZM104.083 15.7503H107.86V28.4886C107.86 28.8385 107.914 29.11 108.019 29.3033C108.126 29.4966 108.275 29.6311 108.467 29.707C108.66 29.7852 108.882 29.8219 109.138 29.8219C109.316 29.8219 109.492 29.8048 109.67 29.773C109.848 29.7412 109.982 29.7143 110.077 29.6972L110.672 32.5178C110.482 32.5766 110.216 32.6475 109.874 32.7258C109.533 32.8041 109.116 32.8555 108.623 32.8726C107.714 32.9093 106.917 32.787 106.234 32.5081C105.551 32.2292 105.02 31.7962 104.642 31.209C104.264 30.6219 104.078 29.8806 104.083 28.9853V15.7503Z" fill="#202327"/>
<path d="M118.94 32.9532C117.538 32.9532 116.336 32.667 115.327 32.0945C114.32 31.5221 113.544 30.7099 113 29.6579C112.457 28.606 112.184 27.3583 112.184 25.9174C112.184 24.5107 112.454 23.2778 113 22.216C113.544 21.1543 114.312 20.3274 115.302 19.7354C116.292 19.1434 117.455 18.8449 118.792 18.8449C119.689 18.8449 120.528 18.9892 121.306 19.2755C122.084 19.5641 122.764 19.9947 123.344 20.5696C123.927 21.1445 124.381 21.8662 124.705 22.7347C125.029 23.6031 125.192 24.6184 125.192 25.7804V26.8201H113.693V24.4716H121.637C121.637 23.9261 121.52 23.4417 121.284 23.0209C121.047 22.6001 120.72 22.2699 120.303 22.0301C119.887 21.7904 119.404 21.6705 118.855 21.6705C118.282 21.6705 117.775 21.8026 117.334 22.0668C116.892 22.331 116.548 22.6833 116.3 23.1261C116.051 23.5689 115.924 24.0582 115.919 24.5988V26.8324C115.919 27.5076 116.044 28.0923 116.297 28.584C116.548 29.0757 116.904 29.4549 117.365 29.7215C117.826 29.9882 118.372 30.1228 119.006 30.1228C119.426 30.1228 119.811 30.064 120.16 29.9442C120.508 29.8267 120.806 29.6482 121.055 29.4109C121.303 29.1736 121.491 28.8824 121.623 28.5399L125.117 28.7724C124.939 29.6139 124.578 30.3478 124.032 30.9741C123.486 31.6004 122.781 32.0872 121.923 32.4321C121.064 32.7771 120.065 32.9532 118.94 32.9532Z" fill="#202327"/>
<path d="M137.578 19.7086C137.507 18.9919 137.202 18.4341 136.663 18.0353C136.124 17.639 135.395 17.4384 134.473 17.4384C133.847 17.4384 133.318 17.5265 132.886 17.7002C132.454 17.8763 132.125 18.116 131.898 18.4243C131.672 18.7325 131.557 19.0824 131.557 19.4738C131.545 19.7992 131.616 20.0854 131.764 20.3276C131.916 20.5698 132.123 20.7802 132.389 20.9539C132.654 21.13 132.962 21.2792 133.31 21.4064C133.659 21.5336 134.032 21.6413 134.427 21.7318L136.058 22.1232C136.851 22.3018 137.577 22.5391 138.238 22.8351C138.899 23.1311 139.475 23.4957 139.957 23.9287C140.443 24.3617 140.818 24.8705 141.089 25.4577C141.359 26.0448 141.496 26.7175 141.501 27.4759C141.496 28.5915 141.213 29.5554 140.655 30.37C140.096 31.1847 139.292 31.8183 138.243 32.2635C137.195 32.7112 135.932 32.9363 134.454 32.9363C132.988 32.9363 131.713 32.7112 130.628 32.2611C129.543 31.8109 128.699 31.1406 128.092 30.255C127.487 29.3694 127.168 28.271 127.139 26.9597H130.852C130.894 27.5713 131.069 28.0802 131.379 28.4863C131.689 28.8924 132.106 29.1982 132.63 29.4037C133.154 29.6092 133.747 29.7095 134.408 29.7095C135.059 29.7095 135.624 29.6141 136.105 29.4257C136.588 29.2349 136.961 28.9731 137.226 28.6331C137.492 28.2955 137.626 27.9065 137.626 27.4686C137.626 27.06 137.507 26.7151 137.268 26.4362C137.029 26.1573 136.68 25.92 136.222 25.7243C135.763 25.5286 135.202 25.35 134.542 25.191L132.564 24.6919C131.033 24.3176 129.823 23.7354 128.938 22.9403C128.051 22.1452 127.612 21.0762 127.617 19.7282C127.612 18.6249 127.904 17.661 128.499 16.8366C129.094 16.0122 129.911 15.3688 130.95 14.9064C131.991 14.444 133.171 14.2116 134.495 14.2116C135.844 14.2116 137.022 14.444 138.029 14.9064C139.036 15.3688 139.821 16.0122 140.382 16.8366C140.943 17.661 141.233 18.6151 141.25 19.7013H137.578V19.7086Z" fill="#6B8FF1"/>
<path d="M146.692 32.6865L142.986 19.0234H146.807L148.916 28.2023H149.04L151.24 19.0234H154.99L157.224 28.1509H157.338L159.413 19.0234H163.225L159.528 32.6865H155.529L153.188 24.0948H153.02L150.679 32.6865H146.692Z" fill="#6B8FF1"/>
<path d="M169.114 32.9434C168.245 32.9434 167.47 32.7918 166.79 32.486C166.109 32.1802 165.573 31.7276 165.18 31.1258C164.788 30.524 164.59 29.7729 164.59 28.8702C164.59 28.1118 164.729 27.4733 165.007 26.9571C165.285 26.4409 165.663 26.025 166.141 25.7119C166.619 25.3988 167.165 25.1615 167.777 25C168.389 24.8386 169.033 24.7285 169.706 24.6624C170.499 24.5792 171.137 24.5009 171.62 24.4276C172.105 24.3542 172.457 24.2416 172.676 24.0948C172.896 23.9456 173.005 23.7279 173.005 23.4368V23.3829C173.005 22.8203 172.83 22.3848 172.479 22.0766C172.127 21.7683 171.63 21.6142 170.984 21.6142C170.304 21.6142 169.762 21.7634 169.362 22.0643C168.96 22.3628 168.694 22.7395 168.565 23.1897L165.071 22.9059C165.249 22.0766 165.597 21.3573 166.117 20.7482C166.636 20.1415 167.309 19.6718 168.133 19.344C168.958 19.0137 169.913 18.8498 171.001 18.8498C171.757 18.8498 172.483 18.9379 173.178 19.1164C173.873 19.295 174.49 19.569 175.032 19.9433C175.573 20.3176 176 20.7947 176.312 21.3794C176.624 21.964 176.782 22.6613 176.782 23.4735V32.689H173.2V30.7955H173.093C172.874 31.2236 172.581 31.5979 172.215 31.9208C171.849 32.2438 171.408 32.4957 170.894 32.6768C170.382 32.8529 169.789 32.9434 169.114 32.9434ZM170.196 30.3282C170.752 30.3282 171.242 30.2182 171.669 29.9955C172.096 29.7729 172.427 29.472 172.671 29.0928C172.913 28.7136 173.035 28.2831 173.035 27.8036V26.3529C172.915 26.4287 172.754 26.4996 172.552 26.5608C172.347 26.622 172.118 26.6782 171.864 26.7296C171.61 26.781 171.357 26.825 171.101 26.8642C170.847 26.9033 170.616 26.9376 170.408 26.9669C169.965 27.033 169.577 27.1357 169.248 27.2776C168.916 27.4195 168.66 27.6103 168.477 27.8525C168.294 28.0922 168.202 28.3907 168.202 28.7454C168.202 29.2616 168.389 29.653 168.765 29.9246C169.14 30.1937 169.616 30.3282 170.196 30.3282Z" fill="#6B8FF1"/>
<path d="M179.718 37.8093V19.0235H183.441V21.3182H183.609C183.775 20.9512 184.017 20.5745 184.331 20.1929C184.648 19.8112 185.06 19.4908 185.572 19.2314C186.084 18.9746 186.721 18.8449 187.484 18.8449C188.477 18.8449 189.393 19.1042 190.232 19.6229C191.071 20.1415 191.742 20.9219 192.244 21.9616C192.746 23.0013 192.997 24.3052 192.997 25.8709C192.997 27.395 192.753 28.6794 192.266 29.7264C191.778 30.7735 191.117 31.5637 190.281 32.1019C189.445 32.6376 188.508 32.9067 187.474 32.9067C186.74 32.9067 186.119 32.7844 185.609 32.5422C185.099 32.3 184.68 31.9918 184.353 31.6224C184.029 31.253 183.78 30.8762 183.609 30.4971H183.495V37.8093H179.718ZM183.414 25.8538C183.414 26.666 183.527 27.3755 183.751 27.9797C183.975 28.584 184.3 29.0537 184.726 29.3888C185.153 29.724 185.67 29.8903 186.277 29.8903C186.892 29.8903 187.411 29.7191 187.838 29.3791C188.264 29.039 188.586 28.5644 188.808 27.9553C189.03 27.3486 189.14 26.6464 189.14 25.8514C189.14 25.0636 189.03 24.3689 188.811 23.7695C188.591 23.1701 188.269 22.7029 187.845 22.3628C187.418 22.0252 186.896 21.8564 186.275 21.8564C185.66 21.8564 185.141 22.0203 184.719 22.3457C184.297 22.6711 183.973 23.1334 183.748 23.7328C183.527 24.337 183.414 25.0416 183.414 25.8538Z" fill="#6B8FF1"/>
</svg>
